G75*
%MOIN*%
%OFA0B0*%
%FSLAX24Y24*%
%IPPOS*%
%LPD*%
%AMOC8*
5,1,8,0,0,1.08239X$1,22.5*
%
%ADD10C,0.0050*%
%ADD11C,0.0000*%
%ADD12C,0.0040*%
%ADD13C,0.0060*%
%ADD14C,0.0020*%
%ADD15R,0.0850X0.0200*%
D10*
X006313Y003593D02*
X006388Y003518D01*
X006538Y003518D01*
X006613Y003593D01*
X006613Y003668D01*
X006538Y003743D01*
X006463Y003743D01*
X006538Y003743D02*
X006613Y003819D01*
X006613Y003894D01*
X006538Y003969D01*
X006388Y003969D01*
X006313Y003894D01*
X006313Y006668D02*
X006613Y006668D01*
X006463Y006668D02*
X006463Y007119D01*
X006313Y006969D01*
X006438Y008118D02*
X006363Y008193D01*
X006438Y008118D02*
X006588Y008118D01*
X006663Y008193D01*
X006663Y008268D01*
X006588Y008343D01*
X006438Y008343D01*
X006363Y008419D01*
X006363Y008494D01*
X006438Y008569D01*
X006588Y008569D01*
X006663Y008494D01*
X006823Y008494D02*
X006898Y008569D01*
X007048Y008569D01*
X007123Y008494D01*
X007123Y008419D01*
X006823Y008118D01*
X007123Y008118D01*
X006538Y010605D02*
X006388Y010605D01*
X006313Y010680D01*
X006463Y010830D02*
X006538Y010830D01*
X006613Y010755D01*
X006613Y010680D01*
X006538Y010605D01*
X006538Y010830D02*
X006613Y010905D01*
X006613Y010980D01*
X006538Y011055D01*
X006388Y011055D01*
X006313Y010980D01*
X006313Y013755D02*
X006613Y013755D01*
X006463Y013755D02*
X006463Y014205D01*
X006313Y014055D01*
X006438Y015205D02*
X006363Y015280D01*
X006438Y015205D02*
X006588Y015205D01*
X006663Y015280D01*
X006663Y015355D01*
X006588Y015430D01*
X006438Y015430D01*
X006363Y015505D01*
X006363Y015580D01*
X006438Y015655D01*
X006588Y015655D01*
X006663Y015580D01*
X006823Y015505D02*
X006973Y015655D01*
X006973Y015205D01*
X006823Y015205D02*
X007123Y015205D01*
X009913Y014130D02*
X009988Y014205D01*
X010138Y014205D01*
X010213Y014130D01*
X010213Y014055D01*
X009913Y013755D01*
X010213Y013755D01*
X011239Y015369D02*
X011239Y015869D01*
X011239Y016369D01*
X012184Y016369D01*
X012184Y015869D01*
X011239Y015869D01*
X012184Y015869D01*
X012184Y015369D01*
X011239Y015369D01*
X011239Y016369D02*
X011239Y016869D01*
X011239Y017369D01*
X012184Y017369D01*
X012184Y016869D01*
X011239Y016869D01*
X012184Y016869D01*
X012184Y016369D01*
X011239Y016369D01*
X011239Y017369D02*
X011239Y017869D01*
X011239Y018369D01*
X012184Y018369D01*
X012184Y017869D01*
X011239Y017869D01*
X012184Y017869D01*
X012184Y017369D01*
X011239Y017369D01*
X009726Y018544D02*
X009426Y018544D01*
X009726Y018844D01*
X009726Y018919D01*
X009651Y018994D01*
X009501Y018994D01*
X009426Y018919D01*
X009266Y018994D02*
X009266Y018619D01*
X009191Y018544D01*
X009041Y018544D01*
X008966Y018619D01*
X008966Y018994D01*
X009184Y018869D02*
X009184Y018369D01*
X008239Y018369D01*
X008239Y018869D01*
X009184Y018869D01*
X011239Y019869D02*
X011239Y020369D01*
X012184Y020369D01*
X012184Y019869D01*
X011239Y019869D01*
X010684Y024119D02*
X009739Y024119D01*
X009739Y024619D01*
X010684Y024619D01*
X010684Y024119D01*
X010811Y025194D02*
X010886Y025194D01*
X010961Y025269D01*
X010961Y025419D01*
X011036Y025494D01*
X011111Y025494D01*
X011187Y025419D01*
X011187Y025269D01*
X011111Y025194D01*
X010811Y025194D02*
X010736Y025269D01*
X010736Y025419D01*
X010811Y025494D01*
X010736Y025804D02*
X010736Y025955D01*
X010736Y025879D02*
X011111Y025879D01*
X011187Y025804D01*
X011187Y025729D01*
X011111Y025654D01*
X011187Y026115D02*
X010886Y026415D01*
X010811Y026415D01*
X010736Y026340D01*
X010736Y026190D01*
X010811Y026115D01*
X011187Y026115D02*
X011187Y026415D01*
X012782Y028864D02*
X012932Y028864D01*
X013007Y028939D01*
X013007Y029314D01*
X012987Y029265D02*
X012436Y029265D01*
X012436Y029973D01*
X012987Y029973D01*
X012987Y029265D01*
X013167Y029164D02*
X013317Y029314D01*
X013317Y028864D01*
X013167Y028864D02*
X013467Y028864D01*
X012782Y028864D02*
X012707Y028939D01*
X012707Y029314D01*
X008412Y027409D02*
X008412Y024829D01*
X007012Y024829D01*
X007012Y027409D01*
X008412Y027409D01*
X008008Y028894D02*
X007707Y028894D01*
X007857Y028894D02*
X007857Y029344D01*
X007707Y029194D01*
X007547Y029344D02*
X007397Y029344D01*
X007472Y029344D02*
X007472Y028969D01*
X007397Y028894D01*
X007322Y028894D01*
X007247Y028969D01*
X007087Y028969D02*
X007012Y028894D01*
X006862Y028894D01*
X006787Y028969D01*
X006862Y029119D02*
X006787Y029194D01*
X006787Y029269D01*
X006862Y029344D01*
X007012Y029344D01*
X007087Y029269D01*
X007012Y029119D02*
X007087Y029044D01*
X007087Y028969D01*
X007012Y029119D02*
X006862Y029119D01*
X004723Y028076D02*
X004723Y025162D01*
X001613Y025162D01*
X001613Y028076D01*
X004723Y028076D01*
X007239Y024619D02*
X008184Y024619D01*
X008184Y024119D01*
X007239Y024119D01*
X007239Y024619D01*
X005962Y024091D02*
X005962Y023146D01*
X005462Y023146D01*
X005462Y024091D01*
X005962Y024091D01*
X005462Y024091D02*
X005462Y023146D01*
X004962Y023146D01*
X004962Y024091D01*
X005462Y024091D01*
X005407Y024214D02*
X005106Y024514D01*
X005031Y024514D01*
X004956Y024439D01*
X004956Y024289D01*
X005031Y024214D01*
X005031Y024053D02*
X005181Y024053D01*
X005256Y023978D01*
X005256Y023753D01*
X005407Y023753D02*
X004956Y023753D01*
X004956Y023978D01*
X005031Y024053D01*
X005407Y024214D02*
X005407Y024514D01*
X004956Y023593D02*
X004956Y023443D01*
X004956Y023518D02*
X005331Y023518D01*
X005407Y023443D01*
X005407Y023368D01*
X005331Y023293D01*
X005462Y023091D02*
X004962Y023091D01*
X004962Y022146D01*
X005462Y022146D01*
X005962Y022146D01*
X005962Y023091D01*
X005462Y023091D01*
X005462Y022146D01*
X005462Y023091D01*
X005462Y021591D02*
X005962Y021591D01*
X005962Y020646D01*
X005462Y020646D01*
X005462Y021591D01*
X005962Y021591D02*
X005962Y020646D01*
X006462Y020646D01*
X006462Y021591D01*
X005962Y021591D01*
X013357Y013314D02*
X013507Y013314D01*
X013432Y013314D02*
X013432Y012939D01*
X013357Y012864D01*
X013282Y012864D01*
X013207Y012939D01*
X013667Y013014D02*
X013892Y013014D01*
X013967Y013089D01*
X013967Y013239D01*
X013892Y013314D01*
X013667Y013314D01*
X013667Y012864D01*
X014127Y012864D02*
X014428Y012864D01*
X014277Y012864D02*
X014277Y013314D01*
X014127Y013164D01*
X010188Y011055D02*
X010188Y010605D01*
X010263Y010830D02*
X009963Y010830D01*
X010188Y011055D01*
X010138Y007119D02*
X009988Y007119D01*
X009913Y007044D01*
X010138Y007119D02*
X010213Y007044D01*
X010213Y006969D01*
X009913Y006668D01*
X010213Y006668D01*
X010188Y003969D02*
X009963Y003743D01*
X010263Y003743D01*
X010188Y003518D02*
X010188Y003969D01*
X022061Y003894D02*
X022136Y003969D01*
X022286Y003969D01*
X022361Y003894D01*
X022361Y003819D01*
X022286Y003743D01*
X022361Y003668D01*
X022361Y003593D01*
X022286Y003518D01*
X022136Y003518D01*
X022061Y003593D01*
X022211Y003743D02*
X022286Y003743D01*
X022361Y006668D02*
X022061Y006668D01*
X022211Y006668D02*
X022211Y007119D01*
X022061Y006969D01*
X022186Y008118D02*
X022111Y008193D01*
X022186Y008118D02*
X022336Y008118D01*
X022411Y008193D01*
X022411Y008268D01*
X022336Y008343D01*
X022186Y008343D01*
X022111Y008419D01*
X022111Y008494D01*
X022186Y008569D01*
X022336Y008569D01*
X022411Y008494D01*
X022571Y008494D02*
X022646Y008569D01*
X022796Y008569D01*
X022871Y008494D01*
X022871Y008419D01*
X022796Y008343D01*
X022871Y008268D01*
X022871Y008193D01*
X022796Y008118D01*
X022646Y008118D01*
X022571Y008193D01*
X022721Y008343D02*
X022796Y008343D01*
X025661Y007044D02*
X025736Y007119D01*
X025886Y007119D01*
X025961Y007044D01*
X025961Y006969D01*
X025661Y006668D01*
X025961Y006668D01*
X025936Y003969D02*
X025711Y003743D01*
X026011Y003743D01*
X025936Y003518D02*
X025936Y003969D01*
X021184Y017869D02*
X020239Y017869D01*
X020239Y018369D01*
X021184Y018369D01*
X021184Y017869D01*
X021184Y018869D02*
X020239Y018869D01*
X020239Y019369D01*
X021184Y019369D01*
X021184Y018869D01*
X021184Y019869D02*
X020239Y019869D01*
X020239Y020369D01*
X021184Y020369D01*
X021184Y019869D01*
X021184Y020869D02*
X020239Y020869D01*
X020239Y021369D01*
X021184Y021369D01*
X021184Y020869D01*
X027016Y019760D02*
X027016Y019610D01*
X027091Y019535D01*
X027091Y019375D02*
X027241Y019375D01*
X027316Y019299D01*
X027316Y019074D01*
X027467Y019074D02*
X027016Y019074D01*
X027016Y019299D01*
X027091Y019375D01*
X027391Y019535D02*
X027467Y019610D01*
X027467Y019760D01*
X027391Y019835D01*
X027316Y019835D01*
X027241Y019760D01*
X027241Y019685D01*
X027241Y019760D02*
X027166Y019835D01*
X027091Y019835D01*
X027016Y019760D01*
X027016Y018914D02*
X027016Y018764D01*
X027016Y018839D02*
X027391Y018839D01*
X027467Y018764D01*
X027467Y018689D01*
X027391Y018614D01*
X027700Y025162D02*
X027700Y028076D01*
X030810Y028076D01*
X030810Y025162D01*
X027700Y025162D01*
D11*
X019712Y027069D02*
X019712Y013794D01*
X019562Y013619D01*
X017787Y013619D01*
X017287Y013119D01*
X013662Y013119D01*
X013162Y013619D01*
X012712Y013619D01*
X012712Y027069D01*
X012714Y027123D01*
X012720Y027176D01*
X012729Y027228D01*
X012742Y027280D01*
X012759Y027331D01*
X012780Y027381D01*
X012804Y027428D01*
X012831Y027474D01*
X012862Y027518D01*
X012895Y027560D01*
X012932Y027599D01*
X012971Y027636D01*
X013013Y027669D01*
X013057Y027700D01*
X013103Y027727D01*
X013150Y027751D01*
X013200Y027772D01*
X013251Y027789D01*
X013303Y027802D01*
X013355Y027811D01*
X013408Y027817D01*
X013462Y027819D01*
X018962Y027819D01*
X019016Y027817D01*
X019069Y027811D01*
X019121Y027802D01*
X019173Y027789D01*
X019224Y027772D01*
X019274Y027751D01*
X019321Y027727D01*
X019367Y027700D01*
X019411Y027669D01*
X019453Y027636D01*
X019492Y027599D01*
X019529Y027560D01*
X019562Y027518D01*
X019593Y027474D01*
X019620Y027428D01*
X019644Y027381D01*
X019665Y027331D01*
X019682Y027280D01*
X019695Y027228D01*
X019704Y027176D01*
X019710Y027123D01*
X019712Y027069D01*
D12*
X023558Y022235D02*
X023481Y022159D01*
X023481Y022005D01*
X023558Y021929D01*
X023558Y021775D02*
X023711Y021775D01*
X023788Y021698D01*
X023788Y021468D01*
X023942Y021468D02*
X023481Y021468D01*
X023481Y021698D01*
X023558Y021775D01*
X023788Y021622D02*
X023942Y021775D01*
X023942Y021929D02*
X023635Y022235D01*
X023558Y022235D01*
X023942Y022235D02*
X023942Y021929D01*
X023481Y021315D02*
X023481Y021008D01*
X023481Y021161D02*
X023942Y021161D01*
X023942Y020735D02*
X023942Y020429D01*
X023942Y020582D02*
X023481Y020582D01*
X023635Y020429D01*
X023711Y020275D02*
X023558Y020275D01*
X023481Y020198D01*
X023481Y019968D01*
X023942Y019968D01*
X023788Y019968D02*
X023788Y020198D01*
X023711Y020275D01*
X023788Y020122D02*
X023942Y020275D01*
X023942Y019661D02*
X023481Y019661D01*
X023481Y019508D02*
X023481Y019815D01*
X021149Y019719D02*
X021149Y019566D01*
X021072Y019489D01*
X020919Y019489D01*
X020842Y019566D01*
X020842Y019719D02*
X020995Y019796D01*
X021072Y019796D01*
X021149Y019719D01*
X021149Y019949D02*
X020842Y019949D01*
X020842Y019719D01*
X020775Y019749D02*
X020775Y019289D01*
X020928Y019289D02*
X020621Y019289D01*
X020468Y019289D02*
X020314Y019442D01*
X020391Y019442D02*
X020161Y019442D01*
X020161Y019289D02*
X020161Y019749D01*
X020391Y019749D01*
X020468Y019673D01*
X020468Y019519D01*
X020391Y019442D01*
X020382Y019489D02*
X020382Y019949D01*
X020612Y019949D01*
X020688Y019873D01*
X020688Y019719D01*
X020612Y019642D01*
X020382Y019642D01*
X020535Y019642D02*
X020688Y019489D01*
X020621Y019596D02*
X020775Y019749D01*
X020928Y020289D02*
X020621Y020289D01*
X020928Y020596D01*
X020928Y020673D01*
X020851Y020749D01*
X020698Y020749D01*
X020621Y020673D01*
X020468Y020673D02*
X020468Y020519D01*
X020391Y020442D01*
X020161Y020442D01*
X020161Y020289D02*
X020161Y020749D01*
X020391Y020749D01*
X020468Y020673D01*
X020314Y020442D02*
X020468Y020289D01*
X020382Y018949D02*
X020612Y018949D01*
X020688Y018873D01*
X020688Y018719D01*
X020612Y018642D01*
X020382Y018642D01*
X020535Y018642D02*
X020688Y018489D01*
X020842Y018719D02*
X021149Y018719D01*
X021072Y018489D02*
X021072Y018949D01*
X020842Y018719D01*
X020382Y018489D02*
X020382Y018949D01*
X012609Y017873D02*
X012609Y017566D01*
X012533Y017489D01*
X012379Y017489D01*
X012302Y017566D01*
X012609Y017873D01*
X012533Y017949D01*
X012379Y017949D01*
X012302Y017873D01*
X012302Y017566D01*
X012149Y017489D02*
X011842Y017489D01*
X011995Y017489D02*
X011995Y017949D01*
X011842Y017796D01*
X011688Y017873D02*
X011688Y017719D01*
X011612Y017642D01*
X011382Y017642D01*
X011535Y017642D02*
X011688Y017489D01*
X011382Y017489D02*
X011382Y017949D01*
X011612Y017949D01*
X011688Y017873D01*
X011688Y018489D02*
X011535Y018642D01*
X011612Y018642D02*
X011382Y018642D01*
X011382Y018489D02*
X011382Y018949D01*
X011612Y018949D01*
X011688Y018873D01*
X011688Y018719D01*
X011612Y018642D01*
X011842Y018566D02*
X011919Y018489D01*
X012072Y018489D01*
X012149Y018566D01*
X012149Y018873D01*
X012072Y018949D01*
X011919Y018949D01*
X011842Y018873D01*
X011842Y018796D01*
X011919Y018719D01*
X012149Y018719D01*
X011851Y019289D02*
X011698Y019289D01*
X011621Y019366D01*
X011468Y019289D02*
X011161Y019289D01*
X011314Y019289D02*
X011314Y019749D01*
X011161Y019596D01*
X011007Y019673D02*
X011007Y019519D01*
X010931Y019442D01*
X010700Y019442D01*
X010700Y019289D02*
X010700Y019749D01*
X010931Y019749D01*
X011007Y019673D01*
X010854Y019442D02*
X011007Y019289D01*
X011621Y019673D02*
X011698Y019749D01*
X011851Y019749D01*
X011928Y019673D01*
X011928Y019596D01*
X011851Y019519D01*
X011928Y019442D01*
X011928Y019366D01*
X011851Y019289D01*
X011851Y019519D02*
X011775Y019519D01*
X011928Y017249D02*
X011775Y017173D01*
X011621Y017019D01*
X011851Y017019D01*
X011928Y016942D01*
X011928Y016866D01*
X011851Y016789D01*
X011698Y016789D01*
X011621Y016866D01*
X011621Y017019D01*
X011612Y016949D02*
X011688Y016873D01*
X011688Y016719D01*
X011612Y016642D01*
X011382Y016642D01*
X011535Y016642D02*
X011688Y016489D01*
X011842Y016489D02*
X012149Y016489D01*
X012302Y016489D02*
X012609Y016489D01*
X012456Y016489D02*
X012456Y016949D01*
X012302Y016796D01*
X011995Y016949D02*
X011995Y016489D01*
X011928Y016249D02*
X011621Y016249D01*
X011468Y016173D02*
X011468Y016019D01*
X011391Y015942D01*
X011161Y015942D01*
X011161Y015789D02*
X011161Y016249D01*
X011391Y016249D01*
X011468Y016173D01*
X011314Y015942D02*
X011468Y015789D01*
X011621Y015789D02*
X011621Y015866D01*
X011928Y016173D01*
X011928Y016249D01*
X011382Y016489D02*
X011382Y016949D01*
X011612Y016949D01*
X011468Y017019D02*
X011391Y016942D01*
X011161Y016942D01*
X011161Y016789D02*
X011161Y017249D01*
X011391Y017249D01*
X011468Y017173D01*
X011468Y017019D01*
X011314Y016942D02*
X011468Y016789D01*
X011842Y016796D02*
X011995Y016949D01*
X011851Y015249D02*
X011928Y015173D01*
X011928Y015096D01*
X011851Y015019D01*
X011698Y015019D01*
X011621Y015096D01*
X011621Y015173D01*
X011698Y015249D01*
X011851Y015249D01*
X011851Y015019D02*
X011928Y014942D01*
X011928Y014866D01*
X011851Y014789D01*
X011698Y014789D01*
X011621Y014866D01*
X011621Y014942D01*
X011698Y015019D01*
X011468Y015019D02*
X011468Y015173D01*
X011391Y015249D01*
X011161Y015249D01*
X011161Y014789D01*
X011161Y014942D02*
X011391Y014942D01*
X011468Y015019D01*
X011314Y014942D02*
X011468Y014789D01*
X008928Y017789D02*
X008621Y017789D01*
X008775Y017789D02*
X008775Y018249D01*
X008621Y018096D01*
X008468Y018173D02*
X008391Y018249D01*
X008237Y018249D01*
X008161Y018173D01*
X008161Y017866D01*
X008237Y017789D01*
X008391Y017789D01*
X008468Y017866D01*
X006965Y020568D02*
X006658Y020568D01*
X006581Y020645D01*
X006581Y020798D01*
X006658Y020875D01*
X006542Y020798D02*
X006465Y020875D01*
X006542Y020798D02*
X006542Y020645D01*
X006465Y020568D01*
X006158Y020568D01*
X006081Y020645D01*
X006081Y020798D01*
X006158Y020875D01*
X006158Y021029D02*
X006081Y021105D01*
X006081Y021259D01*
X006158Y021335D01*
X006235Y021335D01*
X006311Y021259D01*
X006388Y021335D01*
X006465Y021335D01*
X006542Y021259D01*
X006542Y021105D01*
X006465Y021029D01*
X006581Y021105D02*
X006658Y021029D01*
X006581Y021105D02*
X006581Y021259D01*
X006658Y021335D01*
X006735Y021335D01*
X007042Y021029D01*
X007042Y021335D01*
X006965Y020875D02*
X007042Y020798D01*
X007042Y020645D01*
X006965Y020568D01*
X006311Y021182D02*
X006311Y021259D01*
X005342Y022289D02*
X004881Y022289D01*
X004881Y022519D01*
X004958Y022596D01*
X005111Y022596D01*
X005188Y022519D01*
X005188Y022289D01*
X005188Y022442D02*
X005342Y022596D01*
X005342Y022749D02*
X005342Y023056D01*
X005342Y022903D02*
X004881Y022903D01*
X005035Y022749D01*
X004842Y022749D02*
X004842Y023056D01*
X004842Y022903D02*
X004381Y022903D01*
X004535Y022749D01*
X004611Y022596D02*
X004458Y022596D01*
X004381Y022519D01*
X004381Y022289D01*
X004842Y022289D01*
X004688Y022289D02*
X004688Y022519D01*
X004611Y022596D01*
X004688Y022442D02*
X004842Y022596D01*
X004881Y023210D02*
X004881Y023517D01*
X004958Y023517D01*
X005265Y023210D01*
X005342Y023210D01*
X005342Y023289D02*
X004881Y023289D01*
X004881Y023519D01*
X004958Y023596D01*
X005111Y023596D01*
X005188Y023519D01*
X005188Y023289D01*
X005188Y023442D02*
X005342Y023596D01*
X005342Y023749D02*
X005342Y024056D01*
X005342Y023903D02*
X004881Y023903D01*
X005035Y023749D01*
X004842Y023749D02*
X004842Y024056D01*
X004842Y023903D02*
X004381Y023903D01*
X004535Y023749D01*
X004611Y023596D02*
X004458Y023596D01*
X004381Y023519D01*
X004381Y023289D01*
X004842Y023289D01*
X004842Y023286D02*
X004842Y023440D01*
X004765Y023517D01*
X004688Y023517D01*
X004611Y023440D01*
X004611Y023210D01*
X004765Y023210D01*
X004842Y023286D01*
X004688Y023289D02*
X004688Y023519D01*
X004611Y023596D01*
X004688Y023442D02*
X004842Y023596D01*
X004458Y023363D02*
X004611Y023210D01*
X004458Y023363D02*
X004381Y023517D01*
X004611Y024210D02*
X004611Y024517D01*
X004381Y024440D02*
X004842Y024440D01*
X004881Y024517D02*
X004881Y024210D01*
X005111Y024210D01*
X005035Y024363D01*
X005035Y024440D01*
X005111Y024517D01*
X005265Y024517D01*
X005342Y024440D01*
X005342Y024286D01*
X005265Y024210D01*
X004611Y024210D02*
X004381Y024440D01*
X004788Y025139D02*
X004711Y025216D01*
X004711Y025369D01*
X004788Y025446D01*
X005095Y025446D01*
X005172Y025369D01*
X005172Y025216D01*
X005095Y025139D01*
X004788Y025139D01*
X005018Y025292D02*
X005172Y025446D01*
X005172Y025599D02*
X005172Y025906D01*
X005172Y025753D02*
X004711Y025753D01*
X004865Y025599D01*
X003207Y027131D02*
X003207Y027438D01*
X003207Y027284D02*
X002747Y027284D01*
X002900Y027131D01*
X000747Y025930D02*
X000747Y025623D01*
X000747Y025776D02*
X000286Y025776D01*
X000440Y025623D01*
X000286Y025469D02*
X000747Y025163D01*
X000747Y025469D02*
X000286Y025163D01*
X007161Y023999D02*
X007161Y023539D01*
X007161Y023692D02*
X007391Y023692D01*
X007468Y023769D01*
X007468Y023923D01*
X007391Y023999D01*
X007161Y023999D01*
X007314Y023692D02*
X007468Y023539D01*
X007621Y023616D02*
X007698Y023539D01*
X007851Y023539D01*
X007928Y023616D01*
X007928Y023692D01*
X007851Y023769D01*
X007775Y023769D01*
X007851Y023769D02*
X007928Y023846D01*
X007928Y023923D01*
X007851Y023999D01*
X007698Y023999D01*
X007621Y023923D01*
X008981Y025389D02*
X008981Y025696D01*
X008981Y025849D02*
X008981Y026079D01*
X009058Y026156D01*
X009211Y026156D01*
X009288Y026079D01*
X009288Y025849D01*
X009442Y025849D02*
X008981Y025849D01*
X008981Y025542D02*
X009442Y025542D01*
X009288Y026003D02*
X009442Y026156D01*
X009365Y026310D02*
X009442Y026386D01*
X009442Y026540D01*
X009365Y026617D01*
X009288Y026617D01*
X009211Y026540D01*
X009211Y026463D01*
X009211Y026540D02*
X009135Y026617D01*
X009058Y026617D01*
X008981Y026540D01*
X008981Y026386D01*
X009058Y026310D01*
X009882Y025199D02*
X010112Y025199D01*
X010188Y025123D01*
X010188Y024969D01*
X010112Y024892D01*
X009882Y024892D01*
X010035Y024892D02*
X010188Y024739D01*
X010342Y024739D02*
X010649Y024739D01*
X010802Y024739D02*
X011109Y025046D01*
X011109Y025123D01*
X011033Y025199D01*
X010879Y025199D01*
X010802Y025123D01*
X010495Y025199D02*
X010495Y024739D01*
X010802Y024739D02*
X011109Y024739D01*
X010495Y025199D02*
X010342Y025046D01*
X009882Y025199D02*
X009882Y024739D01*
X011731Y028639D02*
X011731Y028946D01*
X011731Y029099D02*
X012038Y029099D01*
X012192Y029253D01*
X012038Y029406D01*
X011731Y029406D01*
X011808Y029560D02*
X011885Y029560D01*
X011961Y029636D01*
X011961Y029790D01*
X012038Y029867D01*
X012115Y029867D01*
X012192Y029790D01*
X012192Y029636D01*
X012115Y029560D01*
X011808Y029560D02*
X011731Y029636D01*
X011731Y029790D01*
X011808Y029867D01*
X011885Y030020D02*
X011731Y030174D01*
X012192Y030174D01*
X012192Y030327D02*
X012192Y030020D01*
X012192Y028792D02*
X011731Y028792D01*
X029215Y025840D02*
X029676Y025840D01*
X029676Y025993D02*
X029676Y025686D01*
X029369Y025686D02*
X029215Y025840D01*
X031676Y027194D02*
X032136Y027501D01*
X032060Y027655D02*
X032136Y027732D01*
X032136Y027885D01*
X032060Y027962D01*
X031906Y027962D01*
X031830Y027885D01*
X031830Y027808D01*
X031906Y027655D01*
X031676Y027655D01*
X031676Y027962D01*
X031676Y027501D02*
X032136Y027194D01*
D13*
X002550Y001800D02*
X002552Y001851D01*
X002558Y001902D01*
X002568Y001952D01*
X002581Y002002D01*
X002599Y002050D01*
X002619Y002097D01*
X002644Y002142D01*
X002672Y002185D01*
X002703Y002226D01*
X002737Y002264D01*
X002774Y002299D01*
X002813Y002332D01*
X002855Y002362D01*
X002899Y002388D01*
X002945Y002410D01*
X002993Y002430D01*
X003042Y002445D01*
X003092Y002457D01*
X003142Y002465D01*
X003193Y002469D01*
X003245Y002469D01*
X003296Y002465D01*
X003346Y002457D01*
X003396Y002445D01*
X003445Y002430D01*
X003493Y002410D01*
X003539Y002388D01*
X003583Y002362D01*
X003625Y002332D01*
X003664Y002299D01*
X003701Y002264D01*
X003735Y002226D01*
X003766Y002185D01*
X003794Y002142D01*
X003819Y002097D01*
X003839Y002050D01*
X003857Y002002D01*
X003870Y001952D01*
X003880Y001902D01*
X003886Y001851D01*
X003888Y001800D01*
X003886Y001749D01*
X003880Y001698D01*
X003870Y001648D01*
X003857Y001598D01*
X003839Y001550D01*
X003819Y001503D01*
X003794Y001458D01*
X003766Y001415D01*
X003735Y001374D01*
X003701Y001336D01*
X003664Y001301D01*
X003625Y001268D01*
X003583Y001238D01*
X003539Y001212D01*
X003493Y001190D01*
X003445Y001170D01*
X003396Y001155D01*
X003346Y001143D01*
X003296Y001135D01*
X003245Y001131D01*
X003193Y001131D01*
X003142Y001135D01*
X003092Y001143D01*
X003042Y001155D01*
X002993Y001170D01*
X002945Y001190D01*
X002899Y001212D01*
X002855Y001238D01*
X002813Y001268D01*
X002774Y001301D01*
X002737Y001336D01*
X002703Y001374D01*
X002672Y001415D01*
X002644Y001458D01*
X002619Y001503D01*
X002599Y001550D01*
X002581Y001598D01*
X002568Y001648D01*
X002558Y001698D01*
X002552Y001749D01*
X002550Y001800D01*
X005938Y003343D02*
X006338Y002943D01*
X006438Y002843D01*
X007638Y002843D01*
X007638Y002943D01*
X007938Y002943D01*
X008738Y002943D01*
X009038Y002943D01*
X010338Y002943D01*
X010238Y002843D01*
X009038Y002843D01*
X009038Y002943D01*
X008738Y002943D02*
X008738Y002793D01*
X007938Y002793D01*
X007938Y002943D01*
X007638Y002943D02*
X006338Y002943D01*
X005938Y003343D02*
X005938Y003843D01*
X005938Y004893D02*
X005938Y005793D01*
X005938Y006843D02*
X005938Y007343D01*
X006338Y007743D01*
X006438Y007843D01*
X007638Y007843D01*
X007638Y007743D01*
X007938Y007743D01*
X008738Y007743D01*
X009038Y007743D01*
X009038Y007843D01*
X010238Y007843D01*
X010338Y007743D01*
X009038Y007743D01*
X008738Y007743D02*
X008738Y007893D01*
X007938Y007893D01*
X007938Y007743D01*
X007638Y007743D02*
X006338Y007743D01*
X007588Y006093D02*
X007588Y004593D01*
X009088Y004593D01*
X009088Y006093D01*
X007588Y006093D01*
X006938Y005343D02*
X006940Y005418D01*
X006946Y005492D01*
X006956Y005566D01*
X006970Y005639D01*
X006987Y005711D01*
X007009Y005783D01*
X007034Y005853D01*
X007063Y005921D01*
X007096Y005989D01*
X007132Y006054D01*
X007171Y006117D01*
X007214Y006178D01*
X007260Y006237D01*
X007309Y006293D01*
X007361Y006346D01*
X007416Y006397D01*
X007473Y006444D01*
X007533Y006489D01*
X007595Y006530D01*
X007660Y006568D01*
X007726Y006602D01*
X007794Y006633D01*
X007863Y006660D01*
X007934Y006683D01*
X008006Y006703D01*
X008079Y006719D01*
X008152Y006731D01*
X008226Y006739D01*
X008301Y006743D01*
X008375Y006743D01*
X008450Y006739D01*
X008524Y006731D01*
X008597Y006719D01*
X008670Y006703D01*
X008742Y006683D01*
X008813Y006660D01*
X008882Y006633D01*
X008950Y006602D01*
X009016Y006568D01*
X009081Y006530D01*
X009143Y006489D01*
X009203Y006444D01*
X009260Y006397D01*
X009315Y006346D01*
X009367Y006293D01*
X009416Y006237D01*
X009462Y006178D01*
X009505Y006117D01*
X009544Y006054D01*
X009580Y005989D01*
X009613Y005921D01*
X009642Y005853D01*
X009667Y005783D01*
X009689Y005711D01*
X009706Y005639D01*
X009720Y005566D01*
X009730Y005492D01*
X009736Y005418D01*
X009738Y005343D01*
X009736Y005268D01*
X009730Y005194D01*
X009720Y005120D01*
X009706Y005047D01*
X009689Y004975D01*
X009667Y004903D01*
X009642Y004833D01*
X009613Y004765D01*
X009580Y004697D01*
X009544Y004632D01*
X009505Y004569D01*
X009462Y004508D01*
X009416Y004449D01*
X009367Y004393D01*
X009315Y004340D01*
X009260Y004289D01*
X009203Y004242D01*
X009143Y004197D01*
X009081Y004156D01*
X009016Y004118D01*
X008950Y004084D01*
X008882Y004053D01*
X008813Y004026D01*
X008742Y004003D01*
X008670Y003983D01*
X008597Y003967D01*
X008524Y003955D01*
X008450Y003947D01*
X008375Y003943D01*
X008301Y003943D01*
X008226Y003947D01*
X008152Y003955D01*
X008079Y003967D01*
X008006Y003983D01*
X007934Y004003D01*
X007863Y004026D01*
X007794Y004053D01*
X007726Y004084D01*
X007660Y004118D01*
X007595Y004156D01*
X007533Y004197D01*
X007473Y004242D01*
X007416Y004289D01*
X007361Y004340D01*
X007309Y004393D01*
X007260Y004449D01*
X007214Y004508D01*
X007171Y004569D01*
X007132Y004632D01*
X007096Y004697D01*
X007063Y004765D01*
X007034Y004833D01*
X007009Y004903D01*
X006987Y004975D01*
X006970Y005047D01*
X006956Y005120D01*
X006946Y005194D01*
X006940Y005268D01*
X006938Y005343D01*
X010338Y002943D02*
X010738Y003343D01*
X010738Y003843D01*
X010738Y004893D02*
X010738Y005793D01*
X010738Y006843D02*
X010738Y007343D01*
X010338Y007743D01*
X010238Y009930D02*
X009038Y009930D01*
X009038Y010030D01*
X010338Y010030D01*
X010238Y009930D01*
X010338Y010030D02*
X010738Y010430D01*
X010738Y010930D01*
X010738Y011980D02*
X010738Y012880D01*
X010738Y013930D02*
X010738Y014430D01*
X010338Y014830D01*
X010238Y014930D01*
X009038Y014930D01*
X009038Y014830D01*
X008738Y014830D01*
X008738Y014980D01*
X007938Y014980D01*
X007938Y014830D01*
X007638Y014830D01*
X007638Y014930D01*
X006438Y014930D01*
X006338Y014830D01*
X005938Y014430D01*
X005938Y013930D01*
X006338Y014830D02*
X007638Y014830D01*
X007938Y014830D02*
X008738Y014830D01*
X009038Y014830D02*
X010338Y014830D01*
X009088Y013180D02*
X009088Y011680D01*
X007588Y011680D01*
X007588Y013180D01*
X009088Y013180D01*
X006938Y012430D02*
X006940Y012505D01*
X006946Y012579D01*
X006956Y012653D01*
X006970Y012726D01*
X006987Y012798D01*
X007009Y012870D01*
X007034Y012940D01*
X007063Y013008D01*
X007096Y013076D01*
X007132Y013141D01*
X007171Y013204D01*
X007214Y013265D01*
X007260Y013324D01*
X007309Y013380D01*
X007361Y013433D01*
X007416Y013484D01*
X007473Y013531D01*
X007533Y013576D01*
X007595Y013617D01*
X007660Y013655D01*
X007726Y013689D01*
X007794Y013720D01*
X007863Y013747D01*
X007934Y013770D01*
X008006Y013790D01*
X008079Y013806D01*
X008152Y013818D01*
X008226Y013826D01*
X008301Y013830D01*
X008375Y013830D01*
X008450Y013826D01*
X008524Y013818D01*
X008597Y013806D01*
X008670Y013790D01*
X008742Y013770D01*
X008813Y013747D01*
X008882Y013720D01*
X008950Y013689D01*
X009016Y013655D01*
X009081Y013617D01*
X009143Y013576D01*
X009203Y013531D01*
X009260Y013484D01*
X009315Y013433D01*
X009367Y013380D01*
X009416Y013324D01*
X009462Y013265D01*
X009505Y013204D01*
X009544Y013141D01*
X009580Y013076D01*
X009613Y013008D01*
X009642Y012940D01*
X009667Y012870D01*
X009689Y012798D01*
X009706Y012726D01*
X009720Y012653D01*
X009730Y012579D01*
X009736Y012505D01*
X009738Y012430D01*
X009736Y012355D01*
X009730Y012281D01*
X009720Y012207D01*
X009706Y012134D01*
X009689Y012062D01*
X009667Y011990D01*
X009642Y011920D01*
X009613Y011852D01*
X009580Y011784D01*
X009544Y011719D01*
X009505Y011656D01*
X009462Y011595D01*
X009416Y011536D01*
X009367Y011480D01*
X009315Y011427D01*
X009260Y011376D01*
X009203Y011329D01*
X009143Y011284D01*
X009081Y011243D01*
X009016Y011205D01*
X008950Y011171D01*
X008882Y011140D01*
X008813Y011113D01*
X008742Y011090D01*
X008670Y011070D01*
X008597Y011054D01*
X008524Y011042D01*
X008450Y011034D01*
X008375Y011030D01*
X008301Y011030D01*
X008226Y011034D01*
X008152Y011042D01*
X008079Y011054D01*
X008006Y011070D01*
X007934Y011090D01*
X007863Y011113D01*
X007794Y011140D01*
X007726Y011171D01*
X007660Y011205D01*
X007595Y011243D01*
X007533Y011284D01*
X007473Y011329D01*
X007416Y011376D01*
X007361Y011427D01*
X007309Y011480D01*
X007260Y011536D01*
X007214Y011595D01*
X007171Y011656D01*
X007132Y011719D01*
X007096Y011784D01*
X007063Y011852D01*
X007034Y011920D01*
X007009Y011990D01*
X006987Y012062D01*
X006970Y012134D01*
X006956Y012207D01*
X006946Y012281D01*
X006940Y012355D01*
X006938Y012430D01*
X005938Y012880D02*
X005938Y011980D01*
X005938Y010930D02*
X005938Y010430D01*
X006338Y010030D01*
X006438Y009930D01*
X007638Y009930D01*
X007638Y010030D01*
X007938Y010030D01*
X008738Y010030D01*
X009038Y010030D01*
X008738Y010030D02*
X008738Y009880D01*
X007938Y009880D01*
X007938Y010030D01*
X007638Y010030D02*
X006338Y010030D01*
X007562Y019119D02*
X008312Y019119D01*
X008314Y019158D01*
X008320Y019197D01*
X008329Y019235D01*
X008342Y019272D01*
X008359Y019308D01*
X008379Y019341D01*
X008403Y019373D01*
X008429Y019402D01*
X008458Y019428D01*
X008490Y019452D01*
X008523Y019472D01*
X008559Y019489D01*
X008596Y019502D01*
X008634Y019511D01*
X008673Y019517D01*
X008712Y019519D01*
X008751Y019517D01*
X008790Y019511D01*
X008828Y019502D01*
X008865Y019489D01*
X008901Y019472D01*
X008934Y019452D01*
X008966Y019428D01*
X008995Y019402D01*
X009021Y019373D01*
X009045Y019341D01*
X009065Y019308D01*
X009082Y019272D01*
X009095Y019235D01*
X009104Y019197D01*
X009110Y019158D01*
X009112Y019119D01*
X009862Y019119D01*
X009862Y023119D01*
X007562Y023119D01*
X007562Y019119D01*
X011412Y025169D02*
X012012Y025169D01*
X012029Y025171D01*
X012046Y025175D01*
X012062Y025182D01*
X012076Y025192D01*
X012089Y025205D01*
X012099Y025219D01*
X012106Y025235D01*
X012110Y025252D01*
X012112Y025269D01*
X012112Y026969D01*
X012110Y026986D01*
X012106Y027003D01*
X012099Y027019D01*
X012089Y027033D01*
X012076Y027046D01*
X012062Y027056D01*
X012046Y027063D01*
X012029Y027067D01*
X012012Y027069D01*
X011412Y027069D01*
X011395Y027067D01*
X011378Y027063D01*
X011362Y027056D01*
X011348Y027046D01*
X011335Y027033D01*
X011325Y027019D01*
X011318Y027003D01*
X011314Y026986D01*
X011312Y026969D01*
X011312Y025269D01*
X011314Y025252D01*
X011318Y025235D01*
X011325Y025219D01*
X011335Y025205D01*
X011348Y025192D01*
X011362Y025182D01*
X011378Y025175D01*
X011395Y025171D01*
X011412Y025169D01*
X010272Y025559D02*
X009952Y025559D01*
X009952Y025779D01*
X009952Y026459D02*
X009952Y026679D01*
X010272Y026679D01*
X008662Y028069D02*
X008662Y028669D01*
X008660Y028686D01*
X008656Y028703D01*
X008649Y028719D01*
X008639Y028733D01*
X008626Y028746D01*
X008612Y028756D01*
X008596Y028763D01*
X008579Y028767D01*
X008562Y028769D01*
X006862Y028769D01*
X006845Y028767D01*
X006828Y028763D01*
X006812Y028756D01*
X006798Y028746D01*
X006785Y028733D01*
X006775Y028719D01*
X006768Y028703D01*
X006764Y028686D01*
X006762Y028669D01*
X006762Y028069D01*
X006764Y028052D01*
X006768Y028035D01*
X006775Y028019D01*
X006785Y028005D01*
X006798Y027992D01*
X006812Y027982D01*
X006828Y027975D01*
X006845Y027971D01*
X006862Y027969D01*
X008562Y027969D01*
X008579Y027971D01*
X008596Y027975D01*
X008612Y027982D01*
X008626Y027992D01*
X008639Y028005D01*
X008649Y028019D01*
X008656Y028035D01*
X008660Y028052D01*
X008662Y028069D01*
X002550Y030934D02*
X002552Y030985D01*
X002558Y031036D01*
X002568Y031086D01*
X002581Y031136D01*
X002599Y031184D01*
X002619Y031231D01*
X002644Y031276D01*
X002672Y031319D01*
X002703Y031360D01*
X002737Y031398D01*
X002774Y031433D01*
X002813Y031466D01*
X002855Y031496D01*
X002899Y031522D01*
X002945Y031544D01*
X002993Y031564D01*
X003042Y031579D01*
X003092Y031591D01*
X003142Y031599D01*
X003193Y031603D01*
X003245Y031603D01*
X003296Y031599D01*
X003346Y031591D01*
X003396Y031579D01*
X003445Y031564D01*
X003493Y031544D01*
X003539Y031522D01*
X003583Y031496D01*
X003625Y031466D01*
X003664Y031433D01*
X003701Y031398D01*
X003735Y031360D01*
X003766Y031319D01*
X003794Y031276D01*
X003819Y031231D01*
X003839Y031184D01*
X003857Y031136D01*
X003870Y031086D01*
X003880Y031036D01*
X003886Y030985D01*
X003888Y030934D01*
X003886Y030883D01*
X003880Y030832D01*
X003870Y030782D01*
X003857Y030732D01*
X003839Y030684D01*
X003819Y030637D01*
X003794Y030592D01*
X003766Y030549D01*
X003735Y030508D01*
X003701Y030470D01*
X003664Y030435D01*
X003625Y030402D01*
X003583Y030372D01*
X003539Y030346D01*
X003493Y030324D01*
X003445Y030304D01*
X003396Y030289D01*
X003346Y030277D01*
X003296Y030269D01*
X003245Y030265D01*
X003193Y030265D01*
X003142Y030269D01*
X003092Y030277D01*
X003042Y030289D01*
X002993Y030304D01*
X002945Y030324D01*
X002899Y030346D01*
X002855Y030372D01*
X002813Y030402D01*
X002774Y030435D01*
X002737Y030470D01*
X002703Y030508D01*
X002672Y030549D01*
X002644Y030592D01*
X002619Y030637D01*
X002599Y030684D01*
X002581Y030732D01*
X002568Y030782D01*
X002558Y030832D01*
X002552Y030883D01*
X002550Y030934D01*
X022652Y022179D02*
X022972Y022179D01*
X022972Y021959D01*
X022972Y021279D02*
X022972Y021059D01*
X022652Y021059D01*
X022652Y020679D02*
X022972Y020679D01*
X022972Y020459D01*
X022972Y019779D02*
X022972Y019559D01*
X022652Y019559D01*
X023686Y007893D02*
X024486Y007893D01*
X024486Y007743D01*
X024786Y007743D01*
X024786Y007843D01*
X025986Y007843D01*
X026086Y007743D01*
X024786Y007743D01*
X024486Y007743D02*
X023686Y007743D01*
X023386Y007743D01*
X023386Y007843D01*
X022186Y007843D01*
X022086Y007743D01*
X021686Y007343D01*
X021686Y006843D01*
X022086Y007743D02*
X023386Y007743D01*
X023686Y007743D02*
X023686Y007893D01*
X023336Y006093D02*
X023336Y004593D01*
X024836Y004593D01*
X024836Y006093D01*
X023336Y006093D01*
X022686Y005343D02*
X022688Y005418D01*
X022694Y005492D01*
X022704Y005566D01*
X022718Y005639D01*
X022735Y005711D01*
X022757Y005783D01*
X022782Y005853D01*
X022811Y005921D01*
X022844Y005989D01*
X022880Y006054D01*
X022919Y006117D01*
X022962Y006178D01*
X023008Y006237D01*
X023057Y006293D01*
X023109Y006346D01*
X023164Y006397D01*
X023221Y006444D01*
X023281Y006489D01*
X023343Y006530D01*
X023408Y006568D01*
X023474Y006602D01*
X023542Y006633D01*
X023611Y006660D01*
X023682Y006683D01*
X023754Y006703D01*
X023827Y006719D01*
X023900Y006731D01*
X023974Y006739D01*
X024049Y006743D01*
X024123Y006743D01*
X024198Y006739D01*
X024272Y006731D01*
X024345Y006719D01*
X024418Y006703D01*
X024490Y006683D01*
X024561Y006660D01*
X024630Y006633D01*
X024698Y006602D01*
X024764Y006568D01*
X024829Y006530D01*
X024891Y006489D01*
X024951Y006444D01*
X025008Y006397D01*
X025063Y006346D01*
X025115Y006293D01*
X025164Y006237D01*
X025210Y006178D01*
X025253Y006117D01*
X025292Y006054D01*
X025328Y005989D01*
X025361Y005921D01*
X025390Y005853D01*
X025415Y005783D01*
X025437Y005711D01*
X025454Y005639D01*
X025468Y005566D01*
X025478Y005492D01*
X025484Y005418D01*
X025486Y005343D01*
X025484Y005268D01*
X025478Y005194D01*
X025468Y005120D01*
X025454Y005047D01*
X025437Y004975D01*
X025415Y004903D01*
X025390Y004833D01*
X025361Y004765D01*
X025328Y004697D01*
X025292Y004632D01*
X025253Y004569D01*
X025210Y004508D01*
X025164Y004449D01*
X025115Y004393D01*
X025063Y004340D01*
X025008Y004289D01*
X024951Y004242D01*
X024891Y004197D01*
X024829Y004156D01*
X024764Y004118D01*
X024698Y004084D01*
X024630Y004053D01*
X024561Y004026D01*
X024490Y004003D01*
X024418Y003983D01*
X024345Y003967D01*
X024272Y003955D01*
X024198Y003947D01*
X024123Y003943D01*
X024049Y003943D01*
X023974Y003947D01*
X023900Y003955D01*
X023827Y003967D01*
X023754Y003983D01*
X023682Y004003D01*
X023611Y004026D01*
X023542Y004053D01*
X023474Y004084D01*
X023408Y004118D01*
X023343Y004156D01*
X023281Y004197D01*
X023221Y004242D01*
X023164Y004289D01*
X023109Y004340D01*
X023057Y004393D01*
X023008Y004449D01*
X022962Y004508D01*
X022919Y004569D01*
X022880Y004632D01*
X022844Y004697D01*
X022811Y004765D01*
X022782Y004833D01*
X022757Y004903D01*
X022735Y004975D01*
X022718Y005047D01*
X022704Y005120D01*
X022694Y005194D01*
X022688Y005268D01*
X022686Y005343D01*
X021686Y005793D02*
X021686Y004893D01*
X021686Y003843D02*
X021686Y003343D01*
X022086Y002943D01*
X022186Y002843D01*
X023386Y002843D01*
X023386Y002943D01*
X023686Y002943D01*
X024486Y002943D01*
X024786Y002943D01*
X026086Y002943D01*
X025986Y002843D01*
X024786Y002843D01*
X024786Y002943D01*
X024486Y002943D02*
X024486Y002793D01*
X023686Y002793D01*
X023686Y002943D01*
X023386Y002943D02*
X022086Y002943D01*
X026086Y002943D02*
X026486Y003343D01*
X026486Y003843D01*
X026486Y004893D02*
X026486Y005793D01*
X026486Y006843D02*
X026486Y007343D01*
X026086Y007743D01*
X028535Y001800D02*
X028537Y001851D01*
X028543Y001902D01*
X028553Y001952D01*
X028566Y002002D01*
X028584Y002050D01*
X028604Y002097D01*
X028629Y002142D01*
X028657Y002185D01*
X028688Y002226D01*
X028722Y002264D01*
X028759Y002299D01*
X028798Y002332D01*
X028840Y002362D01*
X028884Y002388D01*
X028930Y002410D01*
X028978Y002430D01*
X029027Y002445D01*
X029077Y002457D01*
X029127Y002465D01*
X029178Y002469D01*
X029230Y002469D01*
X029281Y002465D01*
X029331Y002457D01*
X029381Y002445D01*
X029430Y002430D01*
X029478Y002410D01*
X029524Y002388D01*
X029568Y002362D01*
X029610Y002332D01*
X029649Y002299D01*
X029686Y002264D01*
X029720Y002226D01*
X029751Y002185D01*
X029779Y002142D01*
X029804Y002097D01*
X029824Y002050D01*
X029842Y002002D01*
X029855Y001952D01*
X029865Y001902D01*
X029871Y001851D01*
X029873Y001800D01*
X029871Y001749D01*
X029865Y001698D01*
X029855Y001648D01*
X029842Y001598D01*
X029824Y001550D01*
X029804Y001503D01*
X029779Y001458D01*
X029751Y001415D01*
X029720Y001374D01*
X029686Y001336D01*
X029649Y001301D01*
X029610Y001268D01*
X029568Y001238D01*
X029524Y001212D01*
X029478Y001190D01*
X029430Y001170D01*
X029381Y001155D01*
X029331Y001143D01*
X029281Y001135D01*
X029230Y001131D01*
X029178Y001131D01*
X029127Y001135D01*
X029077Y001143D01*
X029027Y001155D01*
X028978Y001170D01*
X028930Y001190D01*
X028884Y001212D01*
X028840Y001238D01*
X028798Y001268D01*
X028759Y001301D01*
X028722Y001336D01*
X028688Y001374D01*
X028657Y001415D01*
X028629Y001458D01*
X028604Y001503D01*
X028584Y001550D01*
X028566Y001598D01*
X028553Y001648D01*
X028543Y001698D01*
X028537Y001749D01*
X028535Y001800D01*
X028535Y030934D02*
X028537Y030985D01*
X028543Y031036D01*
X028553Y031086D01*
X028566Y031136D01*
X028584Y031184D01*
X028604Y031231D01*
X028629Y031276D01*
X028657Y031319D01*
X028688Y031360D01*
X028722Y031398D01*
X028759Y031433D01*
X028798Y031466D01*
X028840Y031496D01*
X028884Y031522D01*
X028930Y031544D01*
X028978Y031564D01*
X029027Y031579D01*
X029077Y031591D01*
X029127Y031599D01*
X029178Y031603D01*
X029230Y031603D01*
X029281Y031599D01*
X029331Y031591D01*
X029381Y031579D01*
X029430Y031564D01*
X029478Y031544D01*
X029524Y031522D01*
X029568Y031496D01*
X029610Y031466D01*
X029649Y031433D01*
X029686Y031398D01*
X029720Y031360D01*
X029751Y031319D01*
X029779Y031276D01*
X029804Y031231D01*
X029824Y031184D01*
X029842Y031136D01*
X029855Y031086D01*
X029865Y031036D01*
X029871Y030985D01*
X029873Y030934D01*
X029871Y030883D01*
X029865Y030832D01*
X029855Y030782D01*
X029842Y030732D01*
X029824Y030684D01*
X029804Y030637D01*
X029779Y030592D01*
X029751Y030549D01*
X029720Y030508D01*
X029686Y030470D01*
X029649Y030435D01*
X029610Y030402D01*
X029568Y030372D01*
X029524Y030346D01*
X029478Y030324D01*
X029430Y030304D01*
X029381Y030289D01*
X029331Y030277D01*
X029281Y030269D01*
X029230Y030265D01*
X029178Y030265D01*
X029127Y030269D01*
X029077Y030277D01*
X029027Y030289D01*
X028978Y030304D01*
X028930Y030324D01*
X028884Y030346D01*
X028840Y030372D01*
X028798Y030402D01*
X028759Y030435D01*
X028722Y030470D01*
X028688Y030508D01*
X028657Y030549D01*
X028629Y030592D01*
X028604Y030637D01*
X028584Y030684D01*
X028566Y030732D01*
X028553Y030782D01*
X028543Y030832D01*
X028537Y030883D01*
X028535Y030934D01*
D14*
X008988Y013080D02*
X008988Y011780D01*
X007688Y011780D01*
X007688Y013080D01*
X008988Y013080D01*
X008038Y012430D02*
X008040Y012464D01*
X008046Y012498D01*
X008055Y012531D01*
X008069Y012562D01*
X008086Y012592D01*
X008106Y012620D01*
X008129Y012645D01*
X008155Y012668D01*
X008183Y012687D01*
X008213Y012703D01*
X008245Y012715D01*
X008278Y012724D01*
X008312Y012729D01*
X008347Y012730D01*
X008381Y012727D01*
X008414Y012720D01*
X008447Y012710D01*
X008478Y012695D01*
X008507Y012678D01*
X008534Y012657D01*
X008559Y012633D01*
X008581Y012606D01*
X008599Y012578D01*
X008614Y012547D01*
X008626Y012515D01*
X008634Y012481D01*
X008638Y012447D01*
X008638Y012413D01*
X008634Y012379D01*
X008626Y012345D01*
X008614Y012313D01*
X008599Y012282D01*
X008581Y012254D01*
X008559Y012227D01*
X008534Y012203D01*
X008507Y012182D01*
X008478Y012165D01*
X008447Y012150D01*
X008414Y012140D01*
X008381Y012133D01*
X008347Y012130D01*
X008312Y012131D01*
X008278Y012136D01*
X008245Y012145D01*
X008213Y012157D01*
X008183Y012173D01*
X008155Y012192D01*
X008129Y012215D01*
X008106Y012240D01*
X008086Y012268D01*
X008069Y012298D01*
X008055Y012329D01*
X008046Y012362D01*
X008040Y012396D01*
X008038Y012430D01*
X007938Y012430D02*
X007940Y012470D01*
X007946Y012509D01*
X007956Y012548D01*
X007969Y012585D01*
X007987Y012621D01*
X008008Y012655D01*
X008032Y012687D01*
X008059Y012716D01*
X008089Y012743D01*
X008121Y012766D01*
X008156Y012786D01*
X008192Y012802D01*
X008230Y012815D01*
X008269Y012824D01*
X008308Y012829D01*
X008348Y012830D01*
X008388Y012827D01*
X008427Y012820D01*
X008465Y012809D01*
X008503Y012795D01*
X008538Y012776D01*
X008571Y012755D01*
X008603Y012730D01*
X008631Y012702D01*
X008657Y012672D01*
X008679Y012639D01*
X008698Y012604D01*
X008714Y012567D01*
X008726Y012529D01*
X008734Y012490D01*
X008738Y012450D01*
X008738Y012410D01*
X008734Y012370D01*
X008726Y012331D01*
X008714Y012293D01*
X008698Y012256D01*
X008679Y012221D01*
X008657Y012188D01*
X008631Y012158D01*
X008603Y012130D01*
X008571Y012105D01*
X008538Y012084D01*
X008503Y012065D01*
X008465Y012051D01*
X008427Y012040D01*
X008388Y012033D01*
X008348Y012030D01*
X008308Y012031D01*
X008269Y012036D01*
X008230Y012045D01*
X008192Y012058D01*
X008156Y012074D01*
X008121Y012094D01*
X008089Y012117D01*
X008059Y012144D01*
X008032Y012173D01*
X008008Y012205D01*
X007987Y012239D01*
X007969Y012275D01*
X007956Y012312D01*
X007946Y012351D01*
X007940Y012390D01*
X007938Y012430D01*
X007688Y005993D02*
X007688Y004693D01*
X008988Y004693D01*
X008988Y005993D01*
X007688Y005993D01*
X008038Y005343D02*
X008040Y005377D01*
X008046Y005411D01*
X008055Y005444D01*
X008069Y005475D01*
X008086Y005505D01*
X008106Y005533D01*
X008129Y005558D01*
X008155Y005581D01*
X008183Y005600D01*
X008213Y005616D01*
X008245Y005628D01*
X008278Y005637D01*
X008312Y005642D01*
X008347Y005643D01*
X008381Y005640D01*
X008414Y005633D01*
X008447Y005623D01*
X008478Y005608D01*
X008507Y005591D01*
X008534Y005570D01*
X008559Y005546D01*
X008581Y005519D01*
X008599Y005491D01*
X008614Y005460D01*
X008626Y005428D01*
X008634Y005394D01*
X008638Y005360D01*
X008638Y005326D01*
X008634Y005292D01*
X008626Y005258D01*
X008614Y005226D01*
X008599Y005195D01*
X008581Y005167D01*
X008559Y005140D01*
X008534Y005116D01*
X008507Y005095D01*
X008478Y005078D01*
X008447Y005063D01*
X008414Y005053D01*
X008381Y005046D01*
X008347Y005043D01*
X008312Y005044D01*
X008278Y005049D01*
X008245Y005058D01*
X008213Y005070D01*
X008183Y005086D01*
X008155Y005105D01*
X008129Y005128D01*
X008106Y005153D01*
X008086Y005181D01*
X008069Y005211D01*
X008055Y005242D01*
X008046Y005275D01*
X008040Y005309D01*
X008038Y005343D01*
X007938Y005343D02*
X007940Y005383D01*
X007946Y005422D01*
X007956Y005461D01*
X007969Y005498D01*
X007987Y005534D01*
X008008Y005568D01*
X008032Y005600D01*
X008059Y005629D01*
X008089Y005656D01*
X008121Y005679D01*
X008156Y005699D01*
X008192Y005715D01*
X008230Y005728D01*
X008269Y005737D01*
X008308Y005742D01*
X008348Y005743D01*
X008388Y005740D01*
X008427Y005733D01*
X008465Y005722D01*
X008503Y005708D01*
X008538Y005689D01*
X008571Y005668D01*
X008603Y005643D01*
X008631Y005615D01*
X008657Y005585D01*
X008679Y005552D01*
X008698Y005517D01*
X008714Y005480D01*
X008726Y005442D01*
X008734Y005403D01*
X008738Y005363D01*
X008738Y005323D01*
X008734Y005283D01*
X008726Y005244D01*
X008714Y005206D01*
X008698Y005169D01*
X008679Y005134D01*
X008657Y005101D01*
X008631Y005071D01*
X008603Y005043D01*
X008571Y005018D01*
X008538Y004997D01*
X008503Y004978D01*
X008465Y004964D01*
X008427Y004953D01*
X008388Y004946D01*
X008348Y004943D01*
X008308Y004944D01*
X008269Y004949D01*
X008230Y004958D01*
X008192Y004971D01*
X008156Y004987D01*
X008121Y005007D01*
X008089Y005030D01*
X008059Y005057D01*
X008032Y005086D01*
X008008Y005118D01*
X007987Y005152D01*
X007969Y005188D01*
X007956Y005225D01*
X007946Y005264D01*
X007940Y005303D01*
X007938Y005343D01*
X023436Y005993D02*
X023436Y004693D01*
X024736Y004693D01*
X024736Y005993D01*
X023436Y005993D01*
X023786Y005343D02*
X023788Y005377D01*
X023794Y005411D01*
X023803Y005444D01*
X023817Y005475D01*
X023834Y005505D01*
X023854Y005533D01*
X023877Y005558D01*
X023903Y005581D01*
X023931Y005600D01*
X023961Y005616D01*
X023993Y005628D01*
X024026Y005637D01*
X024060Y005642D01*
X024095Y005643D01*
X024129Y005640D01*
X024162Y005633D01*
X024195Y005623D01*
X024226Y005608D01*
X024255Y005591D01*
X024282Y005570D01*
X024307Y005546D01*
X024329Y005519D01*
X024347Y005491D01*
X024362Y005460D01*
X024374Y005428D01*
X024382Y005394D01*
X024386Y005360D01*
X024386Y005326D01*
X024382Y005292D01*
X024374Y005258D01*
X024362Y005226D01*
X024347Y005195D01*
X024329Y005167D01*
X024307Y005140D01*
X024282Y005116D01*
X024255Y005095D01*
X024226Y005078D01*
X024195Y005063D01*
X024162Y005053D01*
X024129Y005046D01*
X024095Y005043D01*
X024060Y005044D01*
X024026Y005049D01*
X023993Y005058D01*
X023961Y005070D01*
X023931Y005086D01*
X023903Y005105D01*
X023877Y005128D01*
X023854Y005153D01*
X023834Y005181D01*
X023817Y005211D01*
X023803Y005242D01*
X023794Y005275D01*
X023788Y005309D01*
X023786Y005343D01*
X023686Y005343D02*
X023688Y005383D01*
X023694Y005422D01*
X023704Y005461D01*
X023717Y005498D01*
X023735Y005534D01*
X023756Y005568D01*
X023780Y005600D01*
X023807Y005629D01*
X023837Y005656D01*
X023869Y005679D01*
X023904Y005699D01*
X023940Y005715D01*
X023978Y005728D01*
X024017Y005737D01*
X024056Y005742D01*
X024096Y005743D01*
X024136Y005740D01*
X024175Y005733D01*
X024213Y005722D01*
X024251Y005708D01*
X024286Y005689D01*
X024319Y005668D01*
X024351Y005643D01*
X024379Y005615D01*
X024405Y005585D01*
X024427Y005552D01*
X024446Y005517D01*
X024462Y005480D01*
X024474Y005442D01*
X024482Y005403D01*
X024486Y005363D01*
X024486Y005323D01*
X024482Y005283D01*
X024474Y005244D01*
X024462Y005206D01*
X024446Y005169D01*
X024427Y005134D01*
X024405Y005101D01*
X024379Y005071D01*
X024351Y005043D01*
X024319Y005018D01*
X024286Y004997D01*
X024251Y004978D01*
X024213Y004964D01*
X024175Y004953D01*
X024136Y004946D01*
X024096Y004943D01*
X024056Y004944D01*
X024017Y004949D01*
X023978Y004958D01*
X023940Y004971D01*
X023904Y004987D01*
X023869Y005007D01*
X023837Y005030D01*
X023807Y005057D01*
X023780Y005086D01*
X023756Y005118D01*
X023735Y005152D01*
X023717Y005188D01*
X023704Y005225D01*
X023694Y005264D01*
X023688Y005303D01*
X023686Y005343D01*
D15*
X022761Y007743D03*
X025411Y007743D03*
X025411Y002943D03*
X022761Y002943D03*
X009663Y002943D03*
X007013Y002943D03*
X007013Y007743D03*
X007013Y010030D03*
X009663Y010030D03*
X009663Y007743D03*
X009663Y014830D03*
X007013Y014830D03*
M02*
