G75*
%MOIN*%
%OFA0B0*%
%FSLAX24Y24*%
%IPPOS*%
%LPD*%
%AMOC8*
5,1,8,0,0,1.08239X$1,22.5*
%
%ADD10C,0.1655*%
%ADD11C,0.0780*%
%ADD12OC8,0.0780*%
%ADD13C,0.0600*%
%ADD14C,0.0750*%
%ADD15C,0.0790*%
%ADD16C,0.2380*%
%ADD17C,0.0634*%
%ADD18C,0.0436*%
%ADD19C,0.0318*%
D10*
X014212Y002119D03*
X014212Y004119D03*
X018212Y004119D03*
X018212Y002119D03*
D11*
X019212Y015119D03*
X019212Y016119D03*
X019212Y017119D03*
X019212Y018119D03*
X019212Y019119D03*
X019212Y020119D03*
X019212Y021119D03*
X019212Y022119D03*
X019212Y023119D03*
X019212Y024119D03*
X019212Y025119D03*
X019212Y026119D03*
X013212Y026119D03*
X013212Y025119D03*
X013212Y024119D03*
X013212Y023119D03*
X013212Y022119D03*
X013212Y021119D03*
X013212Y020119D03*
X013212Y019119D03*
X013212Y018119D03*
X013212Y017119D03*
X013212Y016119D03*
X013212Y015119D03*
D12*
X013712Y014119D03*
X014712Y014119D03*
X015712Y014119D03*
X016712Y014119D03*
X017712Y014119D03*
X018712Y014119D03*
X018712Y012119D03*
X017712Y012119D03*
X016712Y012119D03*
X015712Y012119D03*
X014712Y012119D03*
X013712Y012119D03*
X004212Y019119D03*
X004212Y020119D03*
X004212Y021119D03*
X004212Y022119D03*
X004212Y023119D03*
X004212Y024119D03*
X028212Y024119D03*
X028212Y023119D03*
X028212Y022119D03*
X028212Y021119D03*
X028212Y020119D03*
X028212Y019119D03*
D13*
X010472Y019619D02*
X009952Y019619D01*
X009952Y020619D02*
X010472Y020619D01*
X010472Y021619D02*
X009952Y021619D01*
X009952Y022619D02*
X010472Y022619D01*
X007472Y022619D02*
X006952Y022619D01*
X006952Y021619D02*
X007472Y021619D01*
X007472Y020619D02*
X006952Y020619D01*
X006952Y019619D02*
X007472Y019619D01*
D14*
X006213Y013410D02*
X005543Y013410D01*
X005543Y011450D02*
X006213Y011450D01*
X010463Y011450D02*
X011133Y011450D01*
X011133Y013410D02*
X010463Y013410D01*
X010463Y006323D02*
X011133Y006323D01*
X011133Y004363D02*
X010463Y004363D01*
X006213Y004363D02*
X005543Y004363D01*
X005543Y006323D02*
X006213Y006323D01*
X021291Y006323D02*
X021961Y006323D01*
X021961Y004363D02*
X021291Y004363D01*
X026211Y004363D02*
X026881Y004363D01*
X026881Y006323D02*
X026211Y006323D01*
D15*
X024086Y007113D03*
X024086Y003573D03*
X008338Y003573D03*
X008338Y007113D03*
X008338Y010660D03*
X008338Y014200D03*
D16*
X003219Y001800D03*
X029204Y001800D03*
X029204Y030934D03*
X003219Y030934D03*
D17*
X003934Y027111D02*
X004489Y027111D01*
X004489Y026127D02*
X003934Y026127D01*
X027934Y026127D02*
X028489Y026127D01*
X028489Y027111D02*
X027934Y027111D01*
D18*
X021712Y021119D03*
X021712Y019619D03*
X012462Y017619D03*
X012462Y016619D03*
X012462Y015619D03*
X007712Y018619D03*
X005212Y021869D03*
X009462Y024369D03*
X010712Y027119D03*
X012712Y028619D03*
D19*
X009962Y025369D03*
X011212Y024869D03*
X007712Y025619D03*
X007712Y026619D03*
X006212Y027619D03*
X005212Y024869D03*
X005212Y020619D03*
X005212Y019619D03*
X008712Y020619D03*
X011712Y007119D03*
X012212Y006869D03*
X012212Y005619D03*
X011712Y005619D03*
M02*
