G75*
%MOIN*%
%OFA0B0*%
%FSLAX24Y24*%
%IPPOS*%
%LPD*%
%AMOC8*
5,1,8,0,0,1.08239X$1,22.5*
%
%ADD10C,0.0000*%
D10*
X002038Y001879D02*
X002038Y030855D01*
X002040Y030923D01*
X002045Y030991D01*
X002055Y031059D01*
X002067Y031126D01*
X002084Y031192D01*
X002104Y031257D01*
X002127Y031321D01*
X002154Y031384D01*
X002185Y031445D01*
X002218Y031505D01*
X002255Y031562D01*
X002295Y031618D01*
X002338Y031671D01*
X002383Y031722D01*
X002431Y031770D01*
X002482Y031815D01*
X002535Y031858D01*
X002591Y031898D01*
X002648Y031935D01*
X002708Y031968D01*
X002769Y031999D01*
X002832Y032026D01*
X002896Y032049D01*
X002961Y032069D01*
X003027Y032086D01*
X003094Y032098D01*
X003162Y032108D01*
X003230Y032113D01*
X003298Y032115D01*
X029125Y032115D01*
X029193Y032113D01*
X029261Y032108D01*
X029329Y032098D01*
X029396Y032086D01*
X029462Y032069D01*
X029527Y032049D01*
X029591Y032026D01*
X029654Y031999D01*
X029715Y031968D01*
X029775Y031935D01*
X029832Y031898D01*
X029888Y031858D01*
X029941Y031815D01*
X029992Y031770D01*
X030040Y031722D01*
X030085Y031671D01*
X030128Y031618D01*
X030168Y031562D01*
X030205Y031505D01*
X030238Y031445D01*
X030269Y031384D01*
X030296Y031321D01*
X030319Y031257D01*
X030339Y031192D01*
X030356Y031126D01*
X030368Y031059D01*
X030378Y030991D01*
X030383Y030923D01*
X030385Y030855D01*
X030385Y001879D01*
X030383Y001811D01*
X030378Y001743D01*
X030368Y001675D01*
X030356Y001608D01*
X030339Y001542D01*
X030319Y001477D01*
X030296Y001413D01*
X030269Y001350D01*
X030238Y001289D01*
X030205Y001229D01*
X030168Y001172D01*
X030128Y001116D01*
X030085Y001063D01*
X030040Y001012D01*
X029992Y000964D01*
X029941Y000919D01*
X029888Y000876D01*
X029832Y000836D01*
X029775Y000799D01*
X029715Y000766D01*
X029654Y000735D01*
X029591Y000708D01*
X029527Y000685D01*
X029462Y000665D01*
X029396Y000648D01*
X029329Y000636D01*
X029261Y000626D01*
X029193Y000621D01*
X029125Y000619D01*
X003298Y000619D01*
X003230Y000621D01*
X003162Y000626D01*
X003094Y000636D01*
X003027Y000648D01*
X002961Y000665D01*
X002896Y000685D01*
X002832Y000708D01*
X002769Y000735D01*
X002708Y000766D01*
X002648Y000799D01*
X002591Y000836D01*
X002535Y000876D01*
X002482Y000919D01*
X002431Y000964D01*
X002383Y001012D01*
X002338Y001063D01*
X002295Y001116D01*
X002255Y001172D01*
X002218Y001229D01*
X002185Y001289D01*
X002154Y001350D01*
X002127Y001413D01*
X002104Y001477D01*
X002084Y001542D01*
X002067Y001608D01*
X002055Y001675D01*
X002045Y001743D01*
X002040Y001811D01*
X002038Y001879D01*
X007983Y003573D02*
X007985Y003610D01*
X007991Y003647D01*
X008000Y003683D01*
X008014Y003717D01*
X008031Y003750D01*
X008051Y003782D01*
X008074Y003811D01*
X008100Y003837D01*
X008129Y003860D01*
X008160Y003880D01*
X008194Y003897D01*
X008228Y003911D01*
X008264Y003920D01*
X008301Y003926D01*
X008338Y003928D01*
X008375Y003926D01*
X008412Y003920D01*
X008448Y003911D01*
X008482Y003897D01*
X008515Y003880D01*
X008547Y003860D01*
X008576Y003837D01*
X008602Y003811D01*
X008625Y003782D01*
X008645Y003751D01*
X008662Y003717D01*
X008676Y003683D01*
X008685Y003647D01*
X008691Y003610D01*
X008693Y003573D01*
X008691Y003536D01*
X008685Y003499D01*
X008676Y003463D01*
X008662Y003429D01*
X008645Y003396D01*
X008625Y003364D01*
X008602Y003335D01*
X008576Y003309D01*
X008547Y003286D01*
X008516Y003266D01*
X008482Y003249D01*
X008448Y003235D01*
X008412Y003226D01*
X008375Y003220D01*
X008338Y003218D01*
X008301Y003220D01*
X008264Y003226D01*
X008228Y003235D01*
X008194Y003249D01*
X008161Y003266D01*
X008129Y003286D01*
X008100Y003309D01*
X008074Y003335D01*
X008051Y003364D01*
X008031Y003395D01*
X008014Y003429D01*
X008000Y003463D01*
X007991Y003499D01*
X007985Y003536D01*
X007983Y003573D01*
X007983Y007113D02*
X007985Y007150D01*
X007991Y007187D01*
X008000Y007223D01*
X008014Y007257D01*
X008031Y007290D01*
X008051Y007322D01*
X008074Y007351D01*
X008100Y007377D01*
X008129Y007400D01*
X008160Y007420D01*
X008194Y007437D01*
X008228Y007451D01*
X008264Y007460D01*
X008301Y007466D01*
X008338Y007468D01*
X008375Y007466D01*
X008412Y007460D01*
X008448Y007451D01*
X008482Y007437D01*
X008515Y007420D01*
X008547Y007400D01*
X008576Y007377D01*
X008602Y007351D01*
X008625Y007322D01*
X008645Y007291D01*
X008662Y007257D01*
X008676Y007223D01*
X008685Y007187D01*
X008691Y007150D01*
X008693Y007113D01*
X008691Y007076D01*
X008685Y007039D01*
X008676Y007003D01*
X008662Y006969D01*
X008645Y006936D01*
X008625Y006904D01*
X008602Y006875D01*
X008576Y006849D01*
X008547Y006826D01*
X008516Y006806D01*
X008482Y006789D01*
X008448Y006775D01*
X008412Y006766D01*
X008375Y006760D01*
X008338Y006758D01*
X008301Y006760D01*
X008264Y006766D01*
X008228Y006775D01*
X008194Y006789D01*
X008161Y006806D01*
X008129Y006826D01*
X008100Y006849D01*
X008074Y006875D01*
X008051Y006904D01*
X008031Y006935D01*
X008014Y006969D01*
X008000Y007003D01*
X007991Y007039D01*
X007985Y007076D01*
X007983Y007113D01*
X007983Y010660D02*
X007985Y010697D01*
X007991Y010734D01*
X008000Y010770D01*
X008014Y010804D01*
X008031Y010837D01*
X008051Y010869D01*
X008074Y010898D01*
X008100Y010924D01*
X008129Y010947D01*
X008160Y010967D01*
X008194Y010984D01*
X008228Y010998D01*
X008264Y011007D01*
X008301Y011013D01*
X008338Y011015D01*
X008375Y011013D01*
X008412Y011007D01*
X008448Y010998D01*
X008482Y010984D01*
X008515Y010967D01*
X008547Y010947D01*
X008576Y010924D01*
X008602Y010898D01*
X008625Y010869D01*
X008645Y010838D01*
X008662Y010804D01*
X008676Y010770D01*
X008685Y010734D01*
X008691Y010697D01*
X008693Y010660D01*
X008691Y010623D01*
X008685Y010586D01*
X008676Y010550D01*
X008662Y010516D01*
X008645Y010483D01*
X008625Y010451D01*
X008602Y010422D01*
X008576Y010396D01*
X008547Y010373D01*
X008516Y010353D01*
X008482Y010336D01*
X008448Y010322D01*
X008412Y010313D01*
X008375Y010307D01*
X008338Y010305D01*
X008301Y010307D01*
X008264Y010313D01*
X008228Y010322D01*
X008194Y010336D01*
X008161Y010353D01*
X008129Y010373D01*
X008100Y010396D01*
X008074Y010422D01*
X008051Y010451D01*
X008031Y010482D01*
X008014Y010516D01*
X008000Y010550D01*
X007991Y010586D01*
X007985Y010623D01*
X007983Y010660D01*
X007983Y014200D02*
X007985Y014237D01*
X007991Y014274D01*
X008000Y014310D01*
X008014Y014344D01*
X008031Y014377D01*
X008051Y014409D01*
X008074Y014438D01*
X008100Y014464D01*
X008129Y014487D01*
X008160Y014507D01*
X008194Y014524D01*
X008228Y014538D01*
X008264Y014547D01*
X008301Y014553D01*
X008338Y014555D01*
X008375Y014553D01*
X008412Y014547D01*
X008448Y014538D01*
X008482Y014524D01*
X008515Y014507D01*
X008547Y014487D01*
X008576Y014464D01*
X008602Y014438D01*
X008625Y014409D01*
X008645Y014378D01*
X008662Y014344D01*
X008676Y014310D01*
X008685Y014274D01*
X008691Y014237D01*
X008693Y014200D01*
X008691Y014163D01*
X008685Y014126D01*
X008676Y014090D01*
X008662Y014056D01*
X008645Y014023D01*
X008625Y013991D01*
X008602Y013962D01*
X008576Y013936D01*
X008547Y013913D01*
X008516Y013893D01*
X008482Y013876D01*
X008448Y013862D01*
X008412Y013853D01*
X008375Y013847D01*
X008338Y013845D01*
X008301Y013847D01*
X008264Y013853D01*
X008228Y013862D01*
X008194Y013876D01*
X008161Y013893D01*
X008129Y013913D01*
X008100Y013936D01*
X008074Y013962D01*
X008051Y013991D01*
X008031Y014022D01*
X008014Y014056D01*
X008000Y014090D01*
X007991Y014126D01*
X007985Y014163D01*
X007983Y014200D01*
X013425Y004119D02*
X013427Y004175D01*
X013433Y004230D01*
X013443Y004284D01*
X013456Y004338D01*
X013474Y004391D01*
X013495Y004442D01*
X013519Y004492D01*
X013547Y004540D01*
X013579Y004586D01*
X013613Y004630D01*
X013651Y004671D01*
X013691Y004709D01*
X013734Y004744D01*
X013779Y004776D01*
X013827Y004805D01*
X013876Y004831D01*
X013927Y004853D01*
X013979Y004871D01*
X014033Y004885D01*
X014088Y004896D01*
X014143Y004903D01*
X014198Y004906D01*
X014254Y004905D01*
X014309Y004900D01*
X014364Y004891D01*
X014418Y004879D01*
X014471Y004862D01*
X014523Y004842D01*
X014573Y004818D01*
X014621Y004791D01*
X014668Y004761D01*
X014712Y004727D01*
X014754Y004690D01*
X014792Y004650D01*
X014829Y004608D01*
X014862Y004563D01*
X014891Y004517D01*
X014918Y004468D01*
X014940Y004417D01*
X014960Y004365D01*
X014975Y004311D01*
X014987Y004257D01*
X014995Y004202D01*
X014999Y004147D01*
X014999Y004091D01*
X014995Y004036D01*
X014987Y003981D01*
X014975Y003927D01*
X014960Y003873D01*
X014940Y003821D01*
X014918Y003770D01*
X014891Y003721D01*
X014862Y003675D01*
X014829Y003630D01*
X014792Y003588D01*
X014754Y003548D01*
X014712Y003511D01*
X014668Y003477D01*
X014621Y003447D01*
X014573Y003420D01*
X014523Y003396D01*
X014471Y003376D01*
X014418Y003359D01*
X014364Y003347D01*
X014309Y003338D01*
X014254Y003333D01*
X014198Y003332D01*
X014143Y003335D01*
X014088Y003342D01*
X014033Y003353D01*
X013979Y003367D01*
X013927Y003385D01*
X013876Y003407D01*
X013827Y003433D01*
X013779Y003462D01*
X013734Y003494D01*
X013691Y003529D01*
X013651Y003567D01*
X013613Y003608D01*
X013579Y003652D01*
X013547Y003698D01*
X013519Y003746D01*
X013495Y003796D01*
X013474Y003847D01*
X013456Y003900D01*
X013443Y003954D01*
X013433Y004008D01*
X013427Y004063D01*
X013425Y004119D01*
X013425Y002119D02*
X013427Y002175D01*
X013433Y002230D01*
X013443Y002284D01*
X013456Y002338D01*
X013474Y002391D01*
X013495Y002442D01*
X013519Y002492D01*
X013547Y002540D01*
X013579Y002586D01*
X013613Y002630D01*
X013651Y002671D01*
X013691Y002709D01*
X013734Y002744D01*
X013779Y002776D01*
X013827Y002805D01*
X013876Y002831D01*
X013927Y002853D01*
X013979Y002871D01*
X014033Y002885D01*
X014088Y002896D01*
X014143Y002903D01*
X014198Y002906D01*
X014254Y002905D01*
X014309Y002900D01*
X014364Y002891D01*
X014418Y002879D01*
X014471Y002862D01*
X014523Y002842D01*
X014573Y002818D01*
X014621Y002791D01*
X014668Y002761D01*
X014712Y002727D01*
X014754Y002690D01*
X014792Y002650D01*
X014829Y002608D01*
X014862Y002563D01*
X014891Y002517D01*
X014918Y002468D01*
X014940Y002417D01*
X014960Y002365D01*
X014975Y002311D01*
X014987Y002257D01*
X014995Y002202D01*
X014999Y002147D01*
X014999Y002091D01*
X014995Y002036D01*
X014987Y001981D01*
X014975Y001927D01*
X014960Y001873D01*
X014940Y001821D01*
X014918Y001770D01*
X014891Y001721D01*
X014862Y001675D01*
X014829Y001630D01*
X014792Y001588D01*
X014754Y001548D01*
X014712Y001511D01*
X014668Y001477D01*
X014621Y001447D01*
X014573Y001420D01*
X014523Y001396D01*
X014471Y001376D01*
X014418Y001359D01*
X014364Y001347D01*
X014309Y001338D01*
X014254Y001333D01*
X014198Y001332D01*
X014143Y001335D01*
X014088Y001342D01*
X014033Y001353D01*
X013979Y001367D01*
X013927Y001385D01*
X013876Y001407D01*
X013827Y001433D01*
X013779Y001462D01*
X013734Y001494D01*
X013691Y001529D01*
X013651Y001567D01*
X013613Y001608D01*
X013579Y001652D01*
X013547Y001698D01*
X013519Y001746D01*
X013495Y001796D01*
X013474Y001847D01*
X013456Y001900D01*
X013443Y001954D01*
X013433Y002008D01*
X013427Y002063D01*
X013425Y002119D01*
X017425Y002119D02*
X017427Y002175D01*
X017433Y002230D01*
X017443Y002284D01*
X017456Y002338D01*
X017474Y002391D01*
X017495Y002442D01*
X017519Y002492D01*
X017547Y002540D01*
X017579Y002586D01*
X017613Y002630D01*
X017651Y002671D01*
X017691Y002709D01*
X017734Y002744D01*
X017779Y002776D01*
X017827Y002805D01*
X017876Y002831D01*
X017927Y002853D01*
X017979Y002871D01*
X018033Y002885D01*
X018088Y002896D01*
X018143Y002903D01*
X018198Y002906D01*
X018254Y002905D01*
X018309Y002900D01*
X018364Y002891D01*
X018418Y002879D01*
X018471Y002862D01*
X018523Y002842D01*
X018573Y002818D01*
X018621Y002791D01*
X018668Y002761D01*
X018712Y002727D01*
X018754Y002690D01*
X018792Y002650D01*
X018829Y002608D01*
X018862Y002563D01*
X018891Y002517D01*
X018918Y002468D01*
X018940Y002417D01*
X018960Y002365D01*
X018975Y002311D01*
X018987Y002257D01*
X018995Y002202D01*
X018999Y002147D01*
X018999Y002091D01*
X018995Y002036D01*
X018987Y001981D01*
X018975Y001927D01*
X018960Y001873D01*
X018940Y001821D01*
X018918Y001770D01*
X018891Y001721D01*
X018862Y001675D01*
X018829Y001630D01*
X018792Y001588D01*
X018754Y001548D01*
X018712Y001511D01*
X018668Y001477D01*
X018621Y001447D01*
X018573Y001420D01*
X018523Y001396D01*
X018471Y001376D01*
X018418Y001359D01*
X018364Y001347D01*
X018309Y001338D01*
X018254Y001333D01*
X018198Y001332D01*
X018143Y001335D01*
X018088Y001342D01*
X018033Y001353D01*
X017979Y001367D01*
X017927Y001385D01*
X017876Y001407D01*
X017827Y001433D01*
X017779Y001462D01*
X017734Y001494D01*
X017691Y001529D01*
X017651Y001567D01*
X017613Y001608D01*
X017579Y001652D01*
X017547Y001698D01*
X017519Y001746D01*
X017495Y001796D01*
X017474Y001847D01*
X017456Y001900D01*
X017443Y001954D01*
X017433Y002008D01*
X017427Y002063D01*
X017425Y002119D01*
X017425Y004119D02*
X017427Y004175D01*
X017433Y004230D01*
X017443Y004284D01*
X017456Y004338D01*
X017474Y004391D01*
X017495Y004442D01*
X017519Y004492D01*
X017547Y004540D01*
X017579Y004586D01*
X017613Y004630D01*
X017651Y004671D01*
X017691Y004709D01*
X017734Y004744D01*
X017779Y004776D01*
X017827Y004805D01*
X017876Y004831D01*
X017927Y004853D01*
X017979Y004871D01*
X018033Y004885D01*
X018088Y004896D01*
X018143Y004903D01*
X018198Y004906D01*
X018254Y004905D01*
X018309Y004900D01*
X018364Y004891D01*
X018418Y004879D01*
X018471Y004862D01*
X018523Y004842D01*
X018573Y004818D01*
X018621Y004791D01*
X018668Y004761D01*
X018712Y004727D01*
X018754Y004690D01*
X018792Y004650D01*
X018829Y004608D01*
X018862Y004563D01*
X018891Y004517D01*
X018918Y004468D01*
X018940Y004417D01*
X018960Y004365D01*
X018975Y004311D01*
X018987Y004257D01*
X018995Y004202D01*
X018999Y004147D01*
X018999Y004091D01*
X018995Y004036D01*
X018987Y003981D01*
X018975Y003927D01*
X018960Y003873D01*
X018940Y003821D01*
X018918Y003770D01*
X018891Y003721D01*
X018862Y003675D01*
X018829Y003630D01*
X018792Y003588D01*
X018754Y003548D01*
X018712Y003511D01*
X018668Y003477D01*
X018621Y003447D01*
X018573Y003420D01*
X018523Y003396D01*
X018471Y003376D01*
X018418Y003359D01*
X018364Y003347D01*
X018309Y003338D01*
X018254Y003333D01*
X018198Y003332D01*
X018143Y003335D01*
X018088Y003342D01*
X018033Y003353D01*
X017979Y003367D01*
X017927Y003385D01*
X017876Y003407D01*
X017827Y003433D01*
X017779Y003462D01*
X017734Y003494D01*
X017691Y003529D01*
X017651Y003567D01*
X017613Y003608D01*
X017579Y003652D01*
X017547Y003698D01*
X017519Y003746D01*
X017495Y003796D01*
X017474Y003847D01*
X017456Y003900D01*
X017443Y003954D01*
X017433Y004008D01*
X017427Y004063D01*
X017425Y004119D01*
X023731Y003573D02*
X023733Y003610D01*
X023739Y003647D01*
X023748Y003683D01*
X023762Y003717D01*
X023779Y003750D01*
X023799Y003782D01*
X023822Y003811D01*
X023848Y003837D01*
X023877Y003860D01*
X023908Y003880D01*
X023942Y003897D01*
X023976Y003911D01*
X024012Y003920D01*
X024049Y003926D01*
X024086Y003928D01*
X024123Y003926D01*
X024160Y003920D01*
X024196Y003911D01*
X024230Y003897D01*
X024263Y003880D01*
X024295Y003860D01*
X024324Y003837D01*
X024350Y003811D01*
X024373Y003782D01*
X024393Y003751D01*
X024410Y003717D01*
X024424Y003683D01*
X024433Y003647D01*
X024439Y003610D01*
X024441Y003573D01*
X024439Y003536D01*
X024433Y003499D01*
X024424Y003463D01*
X024410Y003429D01*
X024393Y003396D01*
X024373Y003364D01*
X024350Y003335D01*
X024324Y003309D01*
X024295Y003286D01*
X024264Y003266D01*
X024230Y003249D01*
X024196Y003235D01*
X024160Y003226D01*
X024123Y003220D01*
X024086Y003218D01*
X024049Y003220D01*
X024012Y003226D01*
X023976Y003235D01*
X023942Y003249D01*
X023909Y003266D01*
X023877Y003286D01*
X023848Y003309D01*
X023822Y003335D01*
X023799Y003364D01*
X023779Y003395D01*
X023762Y003429D01*
X023748Y003463D01*
X023739Y003499D01*
X023733Y003536D01*
X023731Y003573D01*
X023731Y007113D02*
X023733Y007150D01*
X023739Y007187D01*
X023748Y007223D01*
X023762Y007257D01*
X023779Y007290D01*
X023799Y007322D01*
X023822Y007351D01*
X023848Y007377D01*
X023877Y007400D01*
X023908Y007420D01*
X023942Y007437D01*
X023976Y007451D01*
X024012Y007460D01*
X024049Y007466D01*
X024086Y007468D01*
X024123Y007466D01*
X024160Y007460D01*
X024196Y007451D01*
X024230Y007437D01*
X024263Y007420D01*
X024295Y007400D01*
X024324Y007377D01*
X024350Y007351D01*
X024373Y007322D01*
X024393Y007291D01*
X024410Y007257D01*
X024424Y007223D01*
X024433Y007187D01*
X024439Y007150D01*
X024441Y007113D01*
X024439Y007076D01*
X024433Y007039D01*
X024424Y007003D01*
X024410Y006969D01*
X024393Y006936D01*
X024373Y006904D01*
X024350Y006875D01*
X024324Y006849D01*
X024295Y006826D01*
X024264Y006806D01*
X024230Y006789D01*
X024196Y006775D01*
X024160Y006766D01*
X024123Y006760D01*
X024086Y006758D01*
X024049Y006760D01*
X024012Y006766D01*
X023976Y006775D01*
X023942Y006789D01*
X023909Y006806D01*
X023877Y006826D01*
X023848Y006849D01*
X023822Y006875D01*
X023799Y006904D01*
X023779Y006935D01*
X023762Y006969D01*
X023748Y007003D01*
X023739Y007039D01*
X023733Y007076D01*
X023731Y007113D01*
M02*
