G75*
%MOIN*%
%OFA0B0*%
%FSLAX24Y24*%
%IPPOS*%
%LPD*%
%AMOC8*
5,1,8,0,0,1.08239X$1,22.5*
%
%ADD10C,0.0700*%
%ADD11OC8,0.0700*%
%ADD12C,0.0520*%
%ADD13C,0.0670*%
%ADD14C,0.2300*%
%ADD15C,0.0554*%
%ADD16C,0.0120*%
%ADD17C,0.0356*%
%ADD18C,0.0238*%
%ADD19C,0.0100*%
D10*
X013212Y015119D03*
X013212Y016119D03*
X013212Y017119D03*
X013212Y018119D03*
X013212Y019119D03*
X013212Y020119D03*
X013212Y021119D03*
X013212Y022119D03*
X013212Y023119D03*
X013212Y024119D03*
X013212Y025119D03*
X013212Y026119D03*
X019212Y026119D03*
X019212Y025119D03*
X019212Y024119D03*
X019212Y023119D03*
X019212Y022119D03*
X019212Y021119D03*
X019212Y020119D03*
X019212Y019119D03*
X019212Y018119D03*
X019212Y017119D03*
X019212Y016119D03*
X019212Y015119D03*
D11*
X018712Y014119D03*
X017712Y014119D03*
X016712Y014119D03*
X015712Y014119D03*
X014712Y014119D03*
X013712Y014119D03*
X013712Y012119D03*
X014712Y012119D03*
X015712Y012119D03*
X016712Y012119D03*
X017712Y012119D03*
X018712Y012119D03*
X028212Y019119D03*
X028212Y020119D03*
X028212Y021119D03*
X028212Y022119D03*
X028212Y023119D03*
X028212Y024119D03*
X004212Y024119D03*
X004212Y023119D03*
X004212Y022119D03*
X004212Y021119D03*
X004212Y020119D03*
X004212Y019119D03*
D12*
X006952Y019619D02*
X007472Y019619D01*
X007472Y020619D02*
X006952Y020619D01*
X006952Y021619D02*
X007472Y021619D01*
X007472Y022619D02*
X006952Y022619D01*
X009952Y022619D02*
X010472Y022619D01*
X010472Y021619D02*
X009952Y021619D01*
X009952Y020619D02*
X010472Y020619D01*
X010472Y019619D02*
X009952Y019619D01*
D13*
X010463Y013410D02*
X011133Y013410D01*
X011133Y011450D02*
X010463Y011450D01*
X006213Y011450D02*
X005543Y011450D01*
X005543Y013410D02*
X006213Y013410D01*
X006213Y006323D02*
X005543Y006323D01*
X005543Y004363D02*
X006213Y004363D01*
X010463Y004363D02*
X011133Y004363D01*
X011133Y006323D02*
X010463Y006323D01*
X021291Y006323D02*
X021961Y006323D01*
X021961Y004363D02*
X021291Y004363D01*
X026211Y004363D02*
X026881Y004363D01*
X026881Y006323D02*
X026211Y006323D01*
D14*
X003219Y001800D03*
X029204Y001800D03*
X029204Y030934D03*
X003219Y030934D03*
D15*
X003934Y027111D02*
X004489Y027111D01*
X004489Y026127D02*
X003934Y026127D01*
X027934Y026127D02*
X028489Y026127D01*
X028489Y027111D02*
X027934Y027111D01*
D16*
X028183Y027082D02*
X027497Y027082D01*
X027497Y027077D01*
X027508Y027009D01*
X027529Y026943D01*
X027560Y026882D01*
X027601Y026826D01*
X027650Y026778D01*
X027705Y026737D01*
X027767Y026706D01*
X027832Y026685D01*
X027900Y026674D01*
X028183Y026674D01*
X028183Y027082D01*
X028240Y027082D01*
X028240Y026674D01*
X028523Y026674D01*
X028591Y026685D01*
X028657Y026706D01*
X028718Y026737D01*
X028774Y026778D01*
X028822Y026826D01*
X028863Y026882D01*
X028894Y026943D01*
X028915Y027009D01*
X028926Y027077D01*
X028926Y027082D01*
X028240Y027082D01*
X028240Y027140D01*
X028183Y027140D01*
X028183Y027548D01*
X027900Y027548D01*
X027832Y027537D01*
X027767Y027516D01*
X027705Y027485D01*
X027650Y027444D01*
X027601Y027396D01*
X027560Y027340D01*
X027529Y027279D01*
X027508Y027213D01*
X027497Y027145D01*
X027497Y027140D01*
X028183Y027140D01*
X028183Y027082D01*
X028183Y027044D02*
X028240Y027044D01*
X028240Y027140D02*
X028926Y027140D01*
X028926Y027145D01*
X028915Y027213D01*
X028894Y027279D01*
X028863Y027340D01*
X028822Y027396D01*
X028774Y027444D01*
X028718Y027485D01*
X028657Y027516D01*
X028591Y027537D01*
X028523Y027548D01*
X028240Y027548D01*
X028240Y027140D01*
X028240Y027163D02*
X028183Y027163D01*
X028183Y027281D02*
X028240Y027281D01*
X028240Y027400D02*
X028183Y027400D01*
X028183Y027518D02*
X028240Y027518D01*
X028649Y027518D02*
X029925Y027518D01*
X029925Y027400D02*
X028818Y027400D01*
X028893Y027281D02*
X029925Y027281D01*
X029925Y027163D02*
X028923Y027163D01*
X028921Y027044D02*
X029925Y027044D01*
X029925Y026926D02*
X028885Y026926D01*
X028803Y026807D02*
X029925Y026807D01*
X029925Y026689D02*
X028604Y026689D01*
X028588Y026624D02*
X028770Y026548D01*
X028910Y026408D01*
X028986Y026226D01*
X028986Y026028D01*
X028910Y025845D01*
X028770Y025705D01*
X028588Y025630D01*
X027835Y025630D01*
X027653Y025705D01*
X027513Y025845D01*
X027437Y026028D01*
X027437Y026226D01*
X027513Y026408D01*
X027653Y026548D01*
X027835Y026624D01*
X028588Y026624D01*
X028717Y026570D02*
X029925Y026570D01*
X029925Y026452D02*
X028867Y026452D01*
X028941Y026333D02*
X029925Y026333D01*
X029925Y026215D02*
X028986Y026215D01*
X028986Y026096D02*
X029925Y026096D01*
X029925Y025978D02*
X028965Y025978D01*
X028916Y025859D02*
X029925Y025859D01*
X029925Y025741D02*
X028806Y025741D01*
X028240Y026689D02*
X028183Y026689D01*
X028183Y026807D02*
X028240Y026807D01*
X028240Y026926D02*
X028183Y026926D01*
X027819Y026689D02*
X008050Y026689D01*
X008051Y026686D02*
X007999Y026811D01*
X007904Y026906D01*
X007779Y026958D01*
X007644Y026958D01*
X007519Y026906D01*
X007424Y026811D01*
X007372Y026686D01*
X007372Y026551D01*
X007424Y026427D01*
X007442Y026409D01*
X007442Y025828D01*
X007424Y025811D01*
X007372Y025686D01*
X007372Y025551D01*
X007424Y025427D01*
X007519Y025331D01*
X007644Y025280D01*
X007779Y025280D01*
X007904Y025331D01*
X007999Y025427D01*
X008051Y025551D01*
X008051Y025686D01*
X007999Y025811D01*
X007982Y025828D01*
X007982Y026409D01*
X007999Y026427D01*
X008051Y026551D01*
X008051Y026686D01*
X008051Y026570D02*
X012857Y026570D01*
X012889Y026602D02*
X012728Y026442D01*
X012642Y026232D01*
X012642Y026006D01*
X012728Y025796D01*
X012889Y025636D01*
X012929Y025619D01*
X012889Y025602D01*
X012728Y025442D01*
X012642Y025232D01*
X012642Y025006D01*
X012728Y024796D01*
X012889Y024636D01*
X012929Y024619D01*
X012889Y024602D01*
X012728Y024442D01*
X012642Y024232D01*
X012642Y024006D01*
X012728Y023796D01*
X012889Y023636D01*
X012929Y023619D01*
X012889Y023602D01*
X012728Y023442D01*
X012642Y023232D01*
X012642Y023006D01*
X012728Y022796D01*
X012889Y022636D01*
X012929Y022619D01*
X012889Y022602D01*
X012728Y022442D01*
X012642Y022232D01*
X012642Y022006D01*
X012728Y021796D01*
X012889Y021636D01*
X012929Y021619D01*
X012889Y021602D01*
X012728Y021442D01*
X012642Y021232D01*
X012642Y021006D01*
X012728Y020796D01*
X012889Y020636D01*
X012929Y020619D01*
X012889Y020602D01*
X012728Y020442D01*
X012642Y020232D01*
X012642Y020006D01*
X012728Y019796D01*
X012889Y019636D01*
X012929Y019619D01*
X012889Y019602D01*
X012728Y019442D01*
X012642Y019232D01*
X012642Y019006D01*
X012728Y018796D01*
X012889Y018636D01*
X012929Y018619D01*
X012889Y018602D01*
X012728Y018442D01*
X012642Y018232D01*
X012642Y018006D01*
X012728Y017796D01*
X012889Y017636D01*
X012929Y017619D01*
X012889Y017602D01*
X012728Y017442D01*
X012642Y017232D01*
X012642Y017006D01*
X012728Y016796D01*
X012889Y016636D01*
X012929Y016619D01*
X012889Y016602D01*
X012728Y016442D01*
X012642Y016232D01*
X012642Y016006D01*
X012728Y015796D01*
X012889Y015636D01*
X012929Y015619D01*
X012889Y015602D01*
X012728Y015442D01*
X012642Y015232D01*
X012642Y015006D01*
X012728Y014796D01*
X012889Y014636D01*
X013098Y014549D01*
X013325Y014549D01*
X013488Y014616D01*
X013202Y014330D01*
X013202Y014159D01*
X013672Y014159D01*
X013672Y014629D01*
X013518Y014629D01*
X013534Y014636D01*
X013695Y014796D01*
X013782Y015006D01*
X013782Y015232D01*
X013695Y015442D01*
X013534Y015602D01*
X013494Y015619D01*
X013534Y015636D01*
X013695Y015796D01*
X013782Y016006D01*
X013782Y016232D01*
X013695Y016442D01*
X013534Y016602D01*
X013494Y016619D01*
X013534Y016636D01*
X013695Y016796D01*
X013782Y017006D01*
X013782Y017232D01*
X013695Y017442D01*
X013534Y017602D01*
X013494Y017619D01*
X013534Y017636D01*
X013695Y017796D01*
X013782Y018006D01*
X013782Y018232D01*
X013695Y018442D01*
X013534Y018602D01*
X013494Y018619D01*
X013534Y018636D01*
X013695Y018796D01*
X013782Y019006D01*
X013782Y019232D01*
X013695Y019442D01*
X013534Y019602D01*
X013494Y019619D01*
X013534Y019636D01*
X013695Y019796D01*
X013782Y020006D01*
X013782Y020232D01*
X013695Y020442D01*
X013534Y020602D01*
X013494Y020619D01*
X013534Y020636D01*
X013695Y020796D01*
X013782Y021006D01*
X013782Y021232D01*
X013695Y021442D01*
X013534Y021602D01*
X013494Y021619D01*
X013534Y021636D01*
X013695Y021796D01*
X013782Y022006D01*
X013782Y022232D01*
X013695Y022442D01*
X013534Y022602D01*
X013494Y022619D01*
X013534Y022636D01*
X013695Y022796D01*
X013782Y023006D01*
X013782Y023232D01*
X013695Y023442D01*
X013534Y023602D01*
X013494Y023619D01*
X013534Y023636D01*
X013695Y023796D01*
X013782Y024006D01*
X013782Y024232D01*
X013695Y024442D01*
X013534Y024602D01*
X013494Y024619D01*
X013534Y024636D01*
X013695Y024796D01*
X013782Y025006D01*
X013782Y025232D01*
X013695Y025442D01*
X013534Y025602D01*
X013494Y025619D01*
X013534Y025636D01*
X013695Y025796D01*
X013782Y026006D01*
X013782Y026232D01*
X013695Y026442D01*
X013534Y026602D01*
X013325Y026689D01*
X013098Y026689D01*
X012889Y026602D01*
X012738Y026452D02*
X008009Y026452D01*
X007982Y026333D02*
X012683Y026333D01*
X012642Y026215D02*
X007982Y026215D01*
X007982Y026096D02*
X012642Y026096D01*
X012653Y025978D02*
X007982Y025978D01*
X007982Y025859D02*
X012702Y025859D01*
X012783Y025741D02*
X008028Y025741D01*
X008051Y025622D02*
X009736Y025622D01*
X009769Y025656D02*
X009674Y025561D01*
X009622Y025436D01*
X009622Y025301D01*
X009674Y025177D01*
X009769Y025081D01*
X009894Y025030D01*
X005769Y025030D01*
X005887Y025148D02*
X009703Y025148D01*
X009637Y025267D02*
X006006Y025267D01*
X006124Y025385D02*
X007465Y025385D01*
X007392Y025504D02*
X006243Y025504D01*
X006361Y025622D02*
X007372Y025622D01*
X007395Y025741D02*
X006462Y025741D01*
X006449Y025710D02*
X006492Y025813D01*
X006492Y027419D01*
X006499Y027427D01*
X006551Y027551D01*
X006551Y027686D01*
X006499Y027811D01*
X006404Y027906D01*
X006279Y027958D01*
X006144Y027958D01*
X006019Y027906D01*
X005924Y027811D01*
X005872Y027686D01*
X005872Y027551D01*
X005924Y027427D01*
X005932Y027419D01*
X005932Y025985D01*
X005155Y025208D01*
X005144Y025208D01*
X005019Y025156D01*
X004924Y025061D01*
X004872Y024936D01*
X004872Y024801D01*
X004924Y024677D01*
X005019Y024581D01*
X005144Y024530D01*
X005279Y024530D01*
X005404Y024581D01*
X005499Y024677D01*
X005551Y024801D01*
X005551Y024812D01*
X006449Y025710D01*
X006492Y025859D02*
X007442Y025859D01*
X007442Y025978D02*
X006492Y025978D01*
X006492Y026096D02*
X007442Y026096D01*
X007442Y026215D02*
X006492Y026215D01*
X006492Y026333D02*
X007442Y026333D01*
X007414Y026452D02*
X006492Y026452D01*
X006492Y026570D02*
X007372Y026570D01*
X007374Y026689D02*
X006492Y026689D01*
X006492Y026807D02*
X007423Y026807D01*
X007567Y026926D02*
X006492Y026926D01*
X006492Y027044D02*
X027502Y027044D01*
X027500Y027163D02*
X006492Y027163D01*
X006492Y027281D02*
X027531Y027281D01*
X027605Y027400D02*
X006492Y027400D01*
X006537Y027518D02*
X027774Y027518D01*
X027538Y026926D02*
X007856Y026926D01*
X008000Y026807D02*
X027620Y026807D01*
X027706Y026570D02*
X019566Y026570D01*
X019534Y026602D02*
X019325Y026689D01*
X019098Y026689D01*
X018889Y026602D01*
X018728Y026442D01*
X018642Y026232D01*
X018642Y026006D01*
X018728Y025796D01*
X018889Y025636D01*
X019007Y025587D01*
X018944Y025555D01*
X018879Y025508D01*
X018823Y025451D01*
X018775Y025386D01*
X018739Y025315D01*
X018714Y025238D01*
X018702Y025159D01*
X018702Y025159D01*
X019172Y025159D01*
X019172Y025079D01*
X018702Y025079D01*
X018702Y025079D01*
X018714Y024999D01*
X018739Y024923D01*
X018775Y024852D01*
X018823Y024787D01*
X018879Y024730D01*
X018944Y024683D01*
X019007Y024651D01*
X018889Y024602D01*
X018728Y024442D01*
X018642Y024232D01*
X018642Y024006D01*
X018728Y023796D01*
X018889Y023636D01*
X018929Y023619D01*
X018889Y023602D01*
X018728Y023442D01*
X018642Y023232D01*
X018642Y023006D01*
X018728Y022796D01*
X018889Y022636D01*
X018929Y022619D01*
X018889Y022602D01*
X018728Y022442D01*
X018642Y022232D01*
X018642Y022006D01*
X018728Y021796D01*
X018889Y021636D01*
X018929Y021619D01*
X018889Y021602D01*
X018728Y021442D01*
X018642Y021232D01*
X018642Y021006D01*
X018728Y020796D01*
X018889Y020636D01*
X018929Y020619D01*
X018889Y020602D01*
X018728Y020442D01*
X018642Y020232D01*
X018642Y020006D01*
X018728Y019796D01*
X018889Y019636D01*
X018929Y019619D01*
X018889Y019602D01*
X018728Y019442D01*
X018642Y019232D01*
X018642Y019006D01*
X018728Y018796D01*
X018889Y018636D01*
X018929Y018619D01*
X018889Y018602D01*
X018728Y018442D01*
X018642Y018232D01*
X018642Y018006D01*
X018728Y017796D01*
X018889Y017636D01*
X018929Y017619D01*
X018889Y017602D01*
X018728Y017442D01*
X018642Y017232D01*
X018642Y017006D01*
X018728Y016796D01*
X018889Y016636D01*
X018929Y016619D01*
X018889Y016602D01*
X018728Y016442D01*
X018642Y016232D01*
X018642Y016006D01*
X018728Y015796D01*
X018889Y015636D01*
X018929Y015619D01*
X018889Y015602D01*
X018728Y015442D01*
X018642Y015232D01*
X018642Y015006D01*
X018728Y014796D01*
X018835Y014689D01*
X018475Y014689D01*
X018212Y014425D01*
X017948Y014689D01*
X017475Y014689D01*
X017212Y014425D01*
X016948Y014689D01*
X016475Y014689D01*
X016212Y014425D01*
X015948Y014689D01*
X015475Y014689D01*
X015169Y014383D01*
X014923Y014629D01*
X014752Y014629D01*
X014752Y014159D01*
X014672Y014159D01*
X014672Y014629D01*
X014500Y014629D01*
X014212Y014340D01*
X013923Y014629D01*
X013752Y014629D01*
X013752Y014159D01*
X014672Y014159D01*
X014672Y014079D01*
X014752Y014079D01*
X014752Y013609D01*
X014923Y013609D01*
X015169Y013855D01*
X015475Y013549D01*
X015948Y013549D01*
X016212Y013813D01*
X016475Y013549D01*
X016948Y013549D01*
X017212Y013813D01*
X017475Y013549D01*
X017948Y013549D01*
X018212Y013813D01*
X018475Y013549D01*
X018948Y013549D01*
X019282Y013883D01*
X019282Y014355D01*
X019080Y014556D01*
X019098Y014549D01*
X019325Y014549D01*
X019534Y014636D01*
X019695Y014796D01*
X019782Y015006D01*
X019782Y015232D01*
X019695Y015442D01*
X019534Y015602D01*
X019494Y015619D01*
X019534Y015636D01*
X019695Y015796D01*
X019782Y016006D01*
X019782Y016232D01*
X019695Y016442D01*
X019534Y016602D01*
X019494Y016619D01*
X019534Y016636D01*
X019695Y016796D01*
X019782Y017006D01*
X019782Y017232D01*
X019695Y017442D01*
X019534Y017602D01*
X019494Y017619D01*
X019534Y017636D01*
X019695Y017796D01*
X019782Y018006D01*
X019782Y018232D01*
X019695Y018442D01*
X019534Y018602D01*
X019494Y018619D01*
X019534Y018636D01*
X019695Y018796D01*
X019782Y019006D01*
X019782Y019232D01*
X019695Y019442D01*
X019534Y019602D01*
X019494Y019619D01*
X019534Y019636D01*
X019695Y019796D01*
X019782Y020006D01*
X019782Y020232D01*
X019695Y020442D01*
X019534Y020602D01*
X019494Y020619D01*
X019534Y020636D01*
X019695Y020796D01*
X019782Y021006D01*
X019782Y021232D01*
X019695Y021442D01*
X019534Y021602D01*
X019494Y021619D01*
X019534Y021636D01*
X019695Y021796D01*
X019782Y022006D01*
X019782Y022232D01*
X019695Y022442D01*
X019534Y022602D01*
X019494Y022619D01*
X019534Y022636D01*
X019695Y022796D01*
X019782Y023006D01*
X019782Y023232D01*
X019695Y023442D01*
X019534Y023602D01*
X019494Y023619D01*
X019534Y023636D01*
X019695Y023796D01*
X019782Y024006D01*
X019782Y024232D01*
X019695Y024442D01*
X019534Y024602D01*
X019417Y024651D01*
X019479Y024683D01*
X019544Y024730D01*
X019601Y024787D01*
X019648Y024852D01*
X019684Y024923D01*
X019709Y024999D01*
X019722Y025079D01*
X019252Y025079D01*
X019252Y025159D01*
X019722Y025159D01*
X019709Y025238D01*
X019684Y025315D01*
X019648Y025386D01*
X019601Y025451D01*
X019544Y025508D01*
X019479Y025555D01*
X019417Y025587D01*
X019534Y025636D01*
X019695Y025796D01*
X019782Y026006D01*
X019782Y026232D01*
X019695Y026442D01*
X019534Y026602D01*
X019685Y026452D02*
X027556Y026452D01*
X027482Y026333D02*
X019740Y026333D01*
X019782Y026215D02*
X027437Y026215D01*
X027437Y026096D02*
X019782Y026096D01*
X019770Y025978D02*
X027458Y025978D01*
X027507Y025859D02*
X019721Y025859D01*
X019640Y025741D02*
X027617Y025741D01*
X028000Y024629D02*
X027702Y024330D01*
X027702Y024159D01*
X028172Y024159D01*
X028172Y024629D01*
X028000Y024629D01*
X027927Y024556D02*
X019581Y024556D01*
X019697Y024437D02*
X027809Y024437D01*
X027702Y024319D02*
X019746Y024319D01*
X019782Y024200D02*
X027702Y024200D01*
X027702Y024079D02*
X027702Y023908D01*
X027948Y023661D01*
X027642Y023355D01*
X027642Y022883D01*
X027905Y022619D01*
X027642Y022355D01*
X027642Y021883D01*
X027905Y021619D01*
X027642Y021355D01*
X027642Y020883D01*
X027905Y020619D01*
X027642Y020355D01*
X027642Y019883D01*
X027905Y019619D01*
X027642Y019355D01*
X027642Y018883D01*
X027975Y018549D01*
X028448Y018549D01*
X028782Y018883D01*
X028782Y019355D01*
X028518Y019619D01*
X028782Y019883D01*
X028782Y020355D01*
X028518Y020619D01*
X028782Y020883D01*
X028782Y021355D01*
X028518Y021619D01*
X028782Y021883D01*
X028782Y022355D01*
X028518Y022619D01*
X028782Y022883D01*
X028782Y023355D01*
X028475Y023661D01*
X028722Y023908D01*
X028722Y024079D01*
X028252Y024079D01*
X028252Y024159D01*
X028722Y024159D01*
X028722Y024330D01*
X028423Y024629D01*
X028252Y024629D01*
X028252Y024159D01*
X028172Y024159D01*
X028172Y024079D01*
X027702Y024079D01*
X027702Y023963D02*
X019764Y023963D01*
X019782Y024082D02*
X028172Y024082D01*
X028252Y024082D02*
X029925Y024082D01*
X029925Y024200D02*
X028722Y024200D01*
X028722Y024319D02*
X029925Y024319D01*
X029925Y024437D02*
X028614Y024437D01*
X028496Y024556D02*
X029925Y024556D01*
X029925Y024674D02*
X019463Y024674D01*
X019605Y024793D02*
X029925Y024793D01*
X029925Y024911D02*
X019678Y024911D01*
X019714Y025030D02*
X029925Y025030D01*
X029925Y025148D02*
X019252Y025148D01*
X019172Y025148D02*
X013782Y025148D01*
X013782Y025030D02*
X018709Y025030D01*
X018745Y024911D02*
X013743Y024911D01*
X013692Y024793D02*
X018818Y024793D01*
X018960Y024674D02*
X013573Y024674D01*
X013581Y024556D02*
X018842Y024556D01*
X018727Y024437D02*
X013697Y024437D01*
X013746Y024319D02*
X018677Y024319D01*
X018642Y024200D02*
X013782Y024200D01*
X013782Y024082D02*
X018642Y024082D01*
X018659Y023963D02*
X013764Y023963D01*
X013715Y023845D02*
X018708Y023845D01*
X018798Y023726D02*
X013625Y023726D01*
X013520Y023608D02*
X018903Y023608D01*
X018776Y023489D02*
X013647Y023489D01*
X013724Y023371D02*
X018699Y023371D01*
X018650Y023252D02*
X013773Y023252D01*
X013782Y023134D02*
X018642Y023134D01*
X018642Y023015D02*
X013782Y023015D01*
X013737Y022897D02*
X018687Y022897D01*
X018746Y022778D02*
X013677Y022778D01*
X013559Y022660D02*
X018864Y022660D01*
X018828Y022541D02*
X013595Y022541D01*
X013703Y022423D02*
X018721Y022423D01*
X018671Y022304D02*
X013752Y022304D01*
X013782Y022186D02*
X018642Y022186D01*
X018642Y022067D02*
X013782Y022067D01*
X013758Y021949D02*
X018665Y021949D01*
X018714Y021830D02*
X013709Y021830D01*
X013611Y021712D02*
X018812Y021712D01*
X018880Y021593D02*
X013543Y021593D01*
X013662Y021475D02*
X018761Y021475D01*
X018693Y021356D02*
X013730Y021356D01*
X013779Y021238D02*
X018644Y021238D01*
X018642Y021119D02*
X013782Y021119D01*
X013780Y021001D02*
X018643Y021001D01*
X018693Y020882D02*
X013731Y020882D01*
X013663Y020764D02*
X018760Y020764D01*
X018879Y020645D02*
X013544Y020645D01*
X013610Y020527D02*
X018813Y020527D01*
X018715Y020408D02*
X013709Y020408D01*
X013758Y020290D02*
X018665Y020290D01*
X018642Y020171D02*
X013782Y020171D01*
X013782Y020053D02*
X018642Y020053D01*
X018671Y019934D02*
X013752Y019934D01*
X013703Y019816D02*
X018720Y019816D01*
X018827Y019697D02*
X013596Y019697D01*
X013558Y019579D02*
X018865Y019579D01*
X018747Y019460D02*
X013676Y019460D01*
X013736Y019342D02*
X018687Y019342D01*
X018642Y019223D02*
X013782Y019223D01*
X013782Y019105D02*
X018642Y019105D01*
X018649Y018986D02*
X013774Y018986D01*
X013725Y018868D02*
X018699Y018868D01*
X018775Y018749D02*
X013648Y018749D01*
X013523Y018631D02*
X018900Y018631D01*
X018799Y018512D02*
X013624Y018512D01*
X013715Y018394D02*
X018709Y018394D01*
X018659Y018275D02*
X013764Y018275D01*
X013782Y018157D02*
X018642Y018157D01*
X018642Y018038D02*
X013782Y018038D01*
X013746Y017920D02*
X018677Y017920D01*
X018726Y017801D02*
X013697Y017801D01*
X013582Y017683D02*
X018841Y017683D01*
X018851Y017564D02*
X013572Y017564D01*
X013691Y017446D02*
X018732Y017446D01*
X018681Y017327D02*
X013742Y017327D01*
X013782Y017209D02*
X018642Y017209D01*
X018642Y017090D02*
X013782Y017090D01*
X013768Y016972D02*
X018655Y016972D01*
X018705Y016853D02*
X013719Y016853D01*
X013634Y016735D02*
X018789Y016735D01*
X018923Y016616D02*
X013500Y016616D01*
X013639Y016498D02*
X018784Y016498D01*
X018703Y016379D02*
X013721Y016379D01*
X013770Y016261D02*
X018653Y016261D01*
X018642Y016142D02*
X013782Y016142D01*
X013782Y016024D02*
X018642Y016024D01*
X018683Y015905D02*
X013740Y015905D01*
X013686Y015787D02*
X018737Y015787D01*
X018856Y015668D02*
X013567Y015668D01*
X013587Y015550D02*
X018836Y015550D01*
X018724Y015431D02*
X013699Y015431D01*
X013748Y015313D02*
X018675Y015313D01*
X018642Y015194D02*
X013782Y015194D01*
X013782Y015076D02*
X018642Y015076D01*
X018661Y014957D02*
X013762Y014957D01*
X013713Y014839D02*
X018711Y014839D01*
X018804Y014720D02*
X013619Y014720D01*
X013672Y014602D02*
X013752Y014602D01*
X013752Y014483D02*
X013672Y014483D01*
X013672Y014365D02*
X013752Y014365D01*
X013752Y014246D02*
X013672Y014246D01*
X013672Y014159D02*
X013752Y014159D01*
X013752Y014079D01*
X014202Y014079D01*
X014672Y014079D01*
X014672Y013609D01*
X014500Y013609D01*
X014212Y013898D01*
X013923Y013609D01*
X013752Y013609D01*
X013752Y014079D01*
X013672Y014079D01*
X013672Y013609D01*
X013500Y013609D01*
X013202Y013908D01*
X013202Y014079D01*
X013672Y014079D01*
X013672Y014159D01*
X013672Y014128D02*
X009153Y014128D01*
X009153Y014038D02*
X009153Y014362D01*
X009028Y014662D01*
X008799Y014891D01*
X008500Y015015D01*
X008175Y015015D01*
X007876Y014891D01*
X007647Y014662D01*
X007523Y014362D01*
X007523Y014038D01*
X007647Y013738D01*
X007876Y013509D01*
X008175Y013385D01*
X008500Y013385D01*
X008799Y013509D01*
X009028Y013738D01*
X009153Y014038D01*
X009141Y014009D02*
X013202Y014009D01*
X013218Y013891D02*
X011422Y013891D01*
X011447Y013880D02*
X011243Y013965D01*
X010352Y013965D01*
X010148Y013880D01*
X009992Y013724D01*
X009908Y013520D01*
X009908Y013300D01*
X009992Y013096D01*
X010148Y012939D01*
X010352Y012855D01*
X011243Y012855D01*
X011447Y012939D01*
X011603Y013096D01*
X011688Y013300D01*
X011688Y013520D01*
X011603Y013724D01*
X011447Y013880D01*
X011555Y013772D02*
X013337Y013772D01*
X013455Y013654D02*
X011632Y013654D01*
X011681Y013535D02*
X029925Y013535D01*
X029925Y013417D02*
X011688Y013417D01*
X011687Y013298D02*
X029925Y013298D01*
X029925Y013180D02*
X011638Y013180D01*
X011569Y013061D02*
X029925Y013061D01*
X029925Y012943D02*
X011450Y012943D01*
X011243Y012005D02*
X011447Y011920D01*
X011603Y011764D01*
X011688Y011560D01*
X011688Y011340D01*
X011603Y011136D01*
X011447Y010979D01*
X011243Y010895D01*
X010352Y010895D01*
X010148Y010979D01*
X009992Y011136D01*
X009908Y011340D01*
X009908Y011560D01*
X009992Y011764D01*
X010148Y011920D01*
X010352Y012005D01*
X011243Y012005D01*
X011267Y011995D02*
X013202Y011995D01*
X013202Y012079D02*
X013202Y011908D01*
X013500Y011609D01*
X013672Y011609D01*
X013672Y012079D01*
X013752Y012079D01*
X013752Y012159D01*
X014672Y012159D01*
X014672Y012629D01*
X014500Y012629D01*
X014212Y012340D01*
X013923Y012629D01*
X013752Y012629D01*
X013752Y012159D01*
X013672Y012159D01*
X013672Y012629D01*
X013500Y012629D01*
X013202Y012330D01*
X013202Y012159D01*
X013672Y012159D01*
X013672Y012079D01*
X013202Y012079D01*
X013202Y012232D02*
X002498Y012232D01*
X002498Y012350D02*
X013222Y012350D01*
X013340Y012469D02*
X002498Y012469D01*
X002498Y012587D02*
X013459Y012587D01*
X013672Y012587D02*
X013752Y012587D01*
X013752Y012469D02*
X013672Y012469D01*
X013672Y012350D02*
X013752Y012350D01*
X013752Y012232D02*
X013672Y012232D01*
X013672Y012113D02*
X002498Y012113D01*
X002498Y011995D02*
X005408Y011995D01*
X005432Y012005D02*
X005228Y011920D01*
X005072Y011764D01*
X004988Y011560D01*
X004988Y011340D01*
X005072Y011136D01*
X005228Y010979D01*
X005432Y010895D01*
X006323Y010895D01*
X006527Y010979D01*
X006683Y011136D01*
X006768Y011340D01*
X006768Y011560D01*
X006683Y011764D01*
X006527Y011920D01*
X006323Y012005D01*
X005432Y012005D01*
X005184Y011876D02*
X002498Y011876D01*
X002498Y011758D02*
X005069Y011758D01*
X005020Y011639D02*
X002498Y011639D01*
X002498Y011521D02*
X004988Y011521D01*
X004988Y011402D02*
X002498Y011402D01*
X002498Y011284D02*
X005011Y011284D01*
X005060Y011165D02*
X002498Y011165D01*
X002498Y011047D02*
X005161Y011047D01*
X005351Y010928D02*
X002498Y010928D01*
X002498Y010810D02*
X007523Y010810D01*
X007523Y010822D02*
X007523Y010498D01*
X007647Y010198D01*
X007876Y009969D01*
X008175Y009845D01*
X008500Y009845D01*
X008799Y009969D01*
X009028Y010198D01*
X009153Y010498D01*
X009153Y010822D01*
X009028Y011122D01*
X008799Y011351D01*
X008500Y011475D01*
X008175Y011475D01*
X007876Y011351D01*
X007647Y011122D01*
X007523Y010822D01*
X007567Y010928D02*
X006404Y010928D01*
X006594Y011047D02*
X007616Y011047D01*
X007690Y011165D02*
X006695Y011165D01*
X006744Y011284D02*
X007809Y011284D01*
X008000Y011402D02*
X006768Y011402D01*
X006768Y011521D02*
X009908Y011521D01*
X009908Y011402D02*
X008675Y011402D01*
X008866Y011284D02*
X009931Y011284D01*
X009980Y011165D02*
X008985Y011165D01*
X009059Y011047D02*
X010081Y011047D01*
X010271Y010928D02*
X009108Y010928D01*
X009153Y010810D02*
X029925Y010810D01*
X029925Y010928D02*
X011324Y010928D01*
X011514Y011047D02*
X029925Y011047D01*
X029925Y011165D02*
X011615Y011165D01*
X011664Y011284D02*
X029925Y011284D01*
X029925Y011402D02*
X011688Y011402D01*
X011688Y011521D02*
X029925Y011521D01*
X029925Y011639D02*
X019038Y011639D01*
X018948Y011549D02*
X019282Y011883D01*
X019282Y012355D01*
X018948Y012689D01*
X018475Y012689D01*
X018212Y012425D01*
X017948Y012689D01*
X017475Y012689D01*
X017212Y012425D01*
X016948Y012689D01*
X016475Y012689D01*
X016212Y012425D01*
X015948Y012689D01*
X015475Y012689D01*
X015169Y012383D01*
X014923Y012629D01*
X014752Y012629D01*
X014752Y012159D01*
X014672Y012159D01*
X014672Y012079D01*
X014752Y012079D01*
X014752Y011609D01*
X014923Y011609D01*
X015169Y011855D01*
X015475Y011549D01*
X015948Y011549D01*
X016212Y011813D01*
X016475Y011549D01*
X016948Y011549D01*
X017212Y011813D01*
X017475Y011549D01*
X017948Y011549D01*
X018212Y011813D01*
X018475Y011549D01*
X018948Y011549D01*
X019157Y011758D02*
X029925Y011758D01*
X029925Y011876D02*
X019275Y011876D01*
X019282Y011995D02*
X029925Y011995D01*
X029925Y012113D02*
X019282Y012113D01*
X019282Y012232D02*
X029925Y012232D01*
X029925Y012350D02*
X019282Y012350D01*
X019168Y012469D02*
X029925Y012469D01*
X029925Y012587D02*
X019049Y012587D01*
X018374Y012587D02*
X018049Y012587D01*
X018168Y012469D02*
X018255Y012469D01*
X018266Y011758D02*
X018157Y011758D01*
X018038Y011639D02*
X018385Y011639D01*
X017385Y011639D02*
X017038Y011639D01*
X017157Y011758D02*
X017266Y011758D01*
X017255Y012469D02*
X017168Y012469D01*
X017049Y012587D02*
X017374Y012587D01*
X016374Y012587D02*
X016049Y012587D01*
X016168Y012469D02*
X016255Y012469D01*
X016266Y011758D02*
X016157Y011758D01*
X016038Y011639D02*
X016385Y011639D01*
X015385Y011639D02*
X014953Y011639D01*
X015072Y011758D02*
X015266Y011758D01*
X014752Y011758D02*
X014672Y011758D01*
X014672Y011876D02*
X014752Y011876D01*
X014752Y011995D02*
X014672Y011995D01*
X014672Y012079D02*
X014672Y011609D01*
X014500Y011609D01*
X014212Y011898D01*
X013923Y011609D01*
X013752Y011609D01*
X013752Y012079D01*
X014222Y012079D01*
X014672Y012079D01*
X014672Y012113D02*
X013752Y012113D01*
X013752Y011995D02*
X013672Y011995D01*
X013672Y011876D02*
X013752Y011876D01*
X013752Y011758D02*
X013672Y011758D01*
X013672Y011639D02*
X013752Y011639D01*
X013953Y011639D02*
X014470Y011639D01*
X014351Y011758D02*
X014072Y011758D01*
X014190Y011876D02*
X014233Y011876D01*
X014222Y012350D02*
X014201Y012350D01*
X014083Y012469D02*
X014340Y012469D01*
X014459Y012587D02*
X013964Y012587D01*
X014672Y012587D02*
X014752Y012587D01*
X014752Y012469D02*
X014672Y012469D01*
X014672Y012350D02*
X014752Y012350D01*
X014752Y012232D02*
X014672Y012232D01*
X014964Y012587D02*
X015374Y012587D01*
X015255Y012469D02*
X015083Y012469D01*
X014752Y011639D02*
X014672Y011639D01*
X013470Y011639D02*
X011655Y011639D01*
X011606Y011758D02*
X013351Y011758D01*
X013233Y011876D02*
X011491Y011876D01*
X010328Y011995D02*
X006347Y011995D01*
X006571Y011876D02*
X010104Y011876D01*
X009989Y011758D02*
X006686Y011758D01*
X006735Y011639D02*
X009940Y011639D01*
X009153Y010691D02*
X029925Y010691D01*
X029925Y010573D02*
X009153Y010573D01*
X009135Y010454D02*
X029925Y010454D01*
X029925Y010336D02*
X009085Y010336D01*
X009036Y010217D02*
X029925Y010217D01*
X029925Y010099D02*
X008929Y010099D01*
X008811Y009980D02*
X029925Y009980D01*
X029925Y009862D02*
X008541Y009862D01*
X008134Y009862D02*
X002498Y009862D01*
X002498Y009980D02*
X007864Y009980D01*
X007746Y010099D02*
X002498Y010099D01*
X002498Y010217D02*
X007639Y010217D01*
X007590Y010336D02*
X002498Y010336D01*
X002498Y010454D02*
X007541Y010454D01*
X007523Y010573D02*
X002498Y010573D01*
X002498Y010691D02*
X007523Y010691D01*
X006527Y012939D02*
X006323Y012855D01*
X005432Y012855D01*
X005228Y012939D01*
X005072Y013096D01*
X004988Y013300D01*
X004988Y013520D01*
X005072Y013724D01*
X005228Y013880D01*
X005432Y013965D01*
X006323Y013965D01*
X006527Y013880D01*
X006683Y013724D01*
X006768Y013520D01*
X006768Y013300D01*
X006683Y013096D01*
X006527Y012939D01*
X006530Y012943D02*
X010145Y012943D01*
X010026Y013061D02*
X006649Y013061D01*
X006718Y013180D02*
X009957Y013180D01*
X009908Y013298D02*
X006767Y013298D01*
X006768Y013417D02*
X008098Y013417D01*
X007849Y013535D02*
X006761Y013535D01*
X006712Y013654D02*
X007731Y013654D01*
X007632Y013772D02*
X006635Y013772D01*
X006502Y013891D02*
X007583Y013891D01*
X007534Y014009D02*
X002498Y014009D01*
X002498Y013891D02*
X005253Y013891D01*
X005120Y013772D02*
X002498Y013772D01*
X002498Y013654D02*
X005043Y013654D01*
X004994Y013535D02*
X002498Y013535D01*
X002498Y013417D02*
X004988Y013417D01*
X004988Y013298D02*
X002498Y013298D01*
X002498Y013180D02*
X005037Y013180D01*
X005106Y013061D02*
X002498Y013061D01*
X002498Y012943D02*
X005225Y012943D01*
X007523Y014128D02*
X002498Y014128D01*
X002498Y014246D02*
X007523Y014246D01*
X007524Y014365D02*
X002498Y014365D01*
X002498Y014483D02*
X007573Y014483D01*
X007622Y014602D02*
X002498Y014602D01*
X002498Y014720D02*
X007705Y014720D01*
X007824Y014839D02*
X002498Y014839D01*
X002498Y014957D02*
X008037Y014957D01*
X008638Y014957D02*
X012661Y014957D01*
X012642Y015076D02*
X002498Y015076D01*
X002498Y015194D02*
X012642Y015194D01*
X012675Y015313D02*
X002498Y015313D01*
X002498Y015431D02*
X012724Y015431D01*
X012836Y015550D02*
X002498Y015550D01*
X002498Y015668D02*
X012856Y015668D01*
X012737Y015787D02*
X002498Y015787D01*
X002498Y015905D02*
X012683Y015905D01*
X012642Y016024D02*
X002498Y016024D01*
X002498Y016142D02*
X012642Y016142D01*
X012653Y016261D02*
X002498Y016261D01*
X002498Y016379D02*
X012703Y016379D01*
X012784Y016498D02*
X002498Y016498D01*
X002498Y016616D02*
X012923Y016616D01*
X012789Y016735D02*
X002498Y016735D01*
X002498Y016853D02*
X012705Y016853D01*
X012655Y016972D02*
X002498Y016972D01*
X002498Y017090D02*
X012642Y017090D01*
X012642Y017209D02*
X002498Y017209D01*
X002498Y017327D02*
X012681Y017327D01*
X012732Y017446D02*
X002498Y017446D01*
X002498Y017564D02*
X012851Y017564D01*
X012841Y017683D02*
X002498Y017683D01*
X002498Y017801D02*
X012726Y017801D01*
X012677Y017920D02*
X002498Y017920D01*
X002498Y018038D02*
X012642Y018038D01*
X012642Y018157D02*
X002498Y018157D01*
X002498Y018275D02*
X012659Y018275D01*
X012709Y018394D02*
X002498Y018394D01*
X002498Y018512D02*
X012799Y018512D01*
X012900Y018631D02*
X004445Y018631D01*
X004423Y018609D02*
X004722Y018908D01*
X004722Y019079D01*
X004252Y019079D01*
X004252Y019159D01*
X004722Y019159D01*
X004722Y019330D01*
X004475Y019576D01*
X004782Y019883D01*
X004782Y020355D01*
X004518Y020619D01*
X004782Y020883D01*
X004782Y021355D01*
X004518Y021619D01*
X004782Y021883D01*
X004782Y022355D01*
X004518Y022619D01*
X004782Y022883D01*
X004782Y023355D01*
X004518Y023619D01*
X004782Y023883D01*
X004782Y024355D01*
X004448Y024689D01*
X003975Y024689D01*
X003642Y024355D01*
X003642Y023883D01*
X003905Y023619D01*
X003642Y023355D01*
X003642Y022883D01*
X003905Y022619D01*
X003642Y022355D01*
X003642Y021883D01*
X003905Y021619D01*
X003642Y021355D01*
X003642Y020883D01*
X003905Y020619D01*
X003642Y020355D01*
X003642Y019883D01*
X003948Y019576D01*
X003702Y019330D01*
X003702Y019159D01*
X004172Y019159D01*
X004172Y019079D01*
X004252Y019079D01*
X004252Y018609D01*
X004423Y018609D01*
X004252Y018631D02*
X004172Y018631D01*
X004172Y018609D02*
X004172Y019079D01*
X003702Y019079D01*
X003702Y018908D01*
X004000Y018609D01*
X004172Y018609D01*
X004172Y018749D02*
X004252Y018749D01*
X004252Y018868D02*
X004172Y018868D01*
X004172Y018986D02*
X004252Y018986D01*
X004252Y019105D02*
X012642Y019105D01*
X012642Y019223D02*
X010755Y019223D01*
X010743Y019212D02*
X010878Y019347D01*
X010952Y019523D01*
X010952Y019714D01*
X010878Y019891D01*
X010743Y020026D01*
X010567Y020099D01*
X009856Y020099D01*
X009680Y020026D01*
X009545Y019891D01*
X009472Y019714D01*
X009472Y019523D01*
X009545Y019347D01*
X009680Y019212D01*
X009856Y019139D01*
X010567Y019139D01*
X010743Y019212D01*
X010873Y019342D02*
X012687Y019342D01*
X012747Y019460D02*
X010925Y019460D01*
X010952Y019579D02*
X012865Y019579D01*
X012827Y019697D02*
X010952Y019697D01*
X010909Y019816D02*
X012720Y019816D01*
X012671Y019934D02*
X010835Y019934D01*
X010678Y020053D02*
X012642Y020053D01*
X012642Y020171D02*
X010646Y020171D01*
X010567Y020139D02*
X010743Y020212D01*
X010878Y020347D01*
X010952Y020523D01*
X010952Y020714D01*
X010878Y020891D01*
X010743Y021026D01*
X010567Y021099D01*
X009856Y021099D01*
X009680Y021026D01*
X009545Y020891D01*
X009472Y020714D01*
X009472Y020523D01*
X009545Y020347D01*
X009680Y020212D01*
X009856Y020139D01*
X010567Y020139D01*
X010821Y020290D02*
X012665Y020290D01*
X012715Y020408D02*
X010904Y020408D01*
X010952Y020527D02*
X012813Y020527D01*
X012879Y020645D02*
X010952Y020645D01*
X010931Y020764D02*
X012760Y020764D01*
X012693Y020882D02*
X010882Y020882D01*
X010768Y021001D02*
X012643Y021001D01*
X012642Y021119D02*
X004782Y021119D01*
X004782Y021001D02*
X006776Y021001D01*
X006790Y021008D02*
X006731Y020978D01*
X006678Y020939D01*
X006631Y020893D01*
X006592Y020839D01*
X006562Y020780D01*
X006542Y020717D01*
X006532Y020652D01*
X006532Y020639D01*
X007192Y020639D01*
X007192Y021039D01*
X006918Y021039D01*
X006853Y021029D01*
X006790Y021008D01*
X006856Y021139D02*
X006680Y021212D01*
X006545Y021347D01*
X006472Y021523D01*
X006472Y021714D01*
X006545Y021891D01*
X006680Y022026D01*
X006856Y022099D01*
X007567Y022099D01*
X007743Y022026D01*
X007878Y021891D01*
X007952Y021714D01*
X007952Y021523D01*
X007878Y021347D01*
X007743Y021212D01*
X007567Y021139D01*
X006856Y021139D01*
X006654Y021238D02*
X004782Y021238D01*
X004780Y021356D02*
X006541Y021356D01*
X006492Y021475D02*
X004662Y021475D01*
X004543Y021593D02*
X006472Y021593D01*
X006472Y021712D02*
X004611Y021712D01*
X004729Y021830D02*
X006520Y021830D01*
X006603Y021949D02*
X004782Y021949D01*
X004782Y022067D02*
X006780Y022067D01*
X006853Y022209D02*
X006790Y022230D01*
X006731Y022260D01*
X006678Y022299D01*
X006631Y022345D01*
X006592Y022399D01*
X006562Y022458D01*
X006542Y022521D01*
X006532Y022586D01*
X006532Y022599D01*
X007192Y022599D01*
X007232Y022599D01*
X007232Y022639D01*
X007892Y022639D01*
X007892Y022652D01*
X007881Y022717D01*
X007861Y022780D01*
X007831Y022839D01*
X007792Y022893D01*
X007745Y022939D01*
X007692Y022978D01*
X007633Y023008D01*
X007570Y023029D01*
X007505Y023039D01*
X007232Y023039D01*
X007232Y022639D01*
X007192Y022639D01*
X007192Y023039D01*
X006918Y023039D01*
X006853Y023029D01*
X006790Y023008D01*
X006731Y022978D01*
X006678Y022939D01*
X006631Y022893D01*
X006592Y022839D01*
X006562Y022780D01*
X006542Y022717D01*
X006532Y022652D01*
X006532Y022639D01*
X007192Y022639D01*
X007192Y022599D01*
X007192Y022199D01*
X006918Y022199D01*
X006853Y022209D01*
X006672Y022304D02*
X004782Y022304D01*
X004782Y022186D02*
X009742Y022186D01*
X009680Y022212D02*
X009856Y022139D01*
X010567Y022139D01*
X010743Y022212D01*
X010878Y022347D01*
X010952Y022523D01*
X010952Y022714D01*
X010878Y022891D01*
X010743Y023026D01*
X010567Y023099D01*
X009856Y023099D01*
X009680Y023026D01*
X009545Y022891D01*
X009472Y022714D01*
X009472Y022523D01*
X009545Y022347D01*
X009680Y022212D01*
X009587Y022304D02*
X007751Y022304D01*
X007745Y022299D02*
X007792Y022345D01*
X007831Y022399D01*
X007861Y022458D01*
X007881Y022521D01*
X007892Y022586D01*
X007892Y022599D01*
X007232Y022599D01*
X007232Y022199D01*
X007505Y022199D01*
X007570Y022209D01*
X007633Y022230D01*
X007692Y022260D01*
X007745Y022299D01*
X007843Y022423D02*
X009513Y022423D01*
X009472Y022541D02*
X007885Y022541D01*
X007890Y022660D02*
X009472Y022660D01*
X009498Y022778D02*
X007861Y022778D01*
X007787Y022897D02*
X009551Y022897D01*
X009669Y023015D02*
X007610Y023015D01*
X007232Y023015D02*
X007192Y023015D01*
X007192Y022897D02*
X007232Y022897D01*
X007232Y022778D02*
X007192Y022778D01*
X007192Y022660D02*
X007232Y022660D01*
X007232Y022541D02*
X007192Y022541D01*
X007192Y022423D02*
X007232Y022423D01*
X007232Y022304D02*
X007192Y022304D01*
X007643Y022067D02*
X009780Y022067D01*
X009856Y022099D02*
X009680Y022026D01*
X009545Y021891D01*
X009472Y021714D01*
X009472Y021523D01*
X009545Y021347D01*
X009680Y021212D01*
X009856Y021139D01*
X010567Y021139D01*
X010743Y021212D01*
X010878Y021347D01*
X010952Y021523D01*
X010952Y021714D01*
X010878Y021891D01*
X010743Y022026D01*
X010567Y022099D01*
X009856Y022099D01*
X009603Y021949D02*
X007820Y021949D01*
X007903Y021830D02*
X009520Y021830D01*
X009472Y021712D02*
X007952Y021712D01*
X007952Y021593D02*
X009472Y021593D01*
X009492Y021475D02*
X007931Y021475D01*
X007882Y021356D02*
X009541Y021356D01*
X009654Y021238D02*
X007769Y021238D01*
X007647Y021001D02*
X009655Y021001D01*
X009541Y020882D02*
X008928Y020882D01*
X008904Y020906D02*
X008779Y020958D01*
X008644Y020958D01*
X008519Y020906D01*
X008424Y020811D01*
X008372Y020686D01*
X008372Y020551D01*
X008424Y020427D01*
X008442Y020409D01*
X008442Y019981D01*
X008350Y019889D01*
X007879Y019889D01*
X007878Y019891D01*
X007743Y020026D01*
X007567Y020099D01*
X006856Y020099D01*
X006680Y020026D01*
X006545Y019891D01*
X006472Y019714D01*
X006472Y019523D01*
X006545Y019347D01*
X006680Y019212D01*
X006856Y019139D01*
X007567Y019139D01*
X007743Y019212D01*
X007878Y019347D01*
X007879Y019349D01*
X008515Y019349D01*
X008614Y019390D01*
X008690Y019466D01*
X008940Y019716D01*
X008982Y019815D01*
X008982Y020409D01*
X008999Y020427D01*
X009051Y020551D01*
X009051Y020686D01*
X008999Y020811D01*
X008904Y020906D01*
X009018Y020764D02*
X009492Y020764D01*
X009472Y020645D02*
X009051Y020645D01*
X009040Y020527D02*
X009472Y020527D01*
X009519Y020408D02*
X008982Y020408D01*
X008982Y020290D02*
X009602Y020290D01*
X009778Y020171D02*
X008982Y020171D01*
X008982Y020053D02*
X009745Y020053D01*
X009588Y019934D02*
X008982Y019934D01*
X008982Y019816D02*
X009514Y019816D01*
X009472Y019697D02*
X008922Y019697D01*
X008803Y019579D02*
X009472Y019579D01*
X009498Y019460D02*
X008685Y019460D01*
X008395Y019934D02*
X007835Y019934D01*
X007678Y020053D02*
X008442Y020053D01*
X008442Y020171D02*
X005492Y020171D01*
X005492Y020053D02*
X006745Y020053D01*
X006790Y020230D02*
X006853Y020209D01*
X006918Y020199D01*
X007192Y020199D01*
X007192Y020599D01*
X007232Y020599D01*
X007232Y020639D01*
X007892Y020639D01*
X007892Y020652D01*
X007881Y020717D01*
X007861Y020780D01*
X007831Y020839D01*
X007792Y020893D01*
X007745Y020939D01*
X007692Y020978D01*
X007633Y021008D01*
X007570Y021029D01*
X007505Y021039D01*
X007232Y021039D01*
X007232Y020639D01*
X007192Y020639D01*
X007192Y020599D01*
X006532Y020599D01*
X006532Y020586D01*
X006542Y020521D01*
X006562Y020458D01*
X006592Y020399D01*
X006631Y020345D01*
X006678Y020299D01*
X006731Y020260D01*
X006790Y020230D01*
X006690Y020290D02*
X005492Y020290D01*
X005492Y020408D02*
X006587Y020408D01*
X006541Y020527D02*
X005540Y020527D01*
X005551Y020551D02*
X005499Y020427D01*
X005492Y020419D01*
X005492Y019818D01*
X005499Y019811D01*
X005551Y019686D01*
X005551Y019551D01*
X005499Y019427D01*
X005404Y019331D01*
X005279Y019280D01*
X005144Y019280D01*
X005019Y019331D01*
X004924Y019427D01*
X004872Y019551D01*
X004872Y019686D01*
X004924Y019811D01*
X004932Y019818D01*
X004932Y020419D01*
X004924Y020427D01*
X004872Y020551D01*
X004872Y020686D01*
X004924Y020811D01*
X005019Y020906D01*
X005144Y020958D01*
X005279Y020958D01*
X005404Y020906D01*
X005499Y020811D01*
X005551Y020686D01*
X005551Y020551D01*
X005551Y020645D02*
X006532Y020645D01*
X006557Y020764D02*
X005518Y020764D01*
X005428Y020882D02*
X006624Y020882D01*
X007192Y020882D02*
X007232Y020882D01*
X007232Y020764D02*
X007192Y020764D01*
X007192Y020645D02*
X007232Y020645D01*
X007232Y020599D02*
X007892Y020599D01*
X007892Y020586D01*
X007881Y020521D01*
X007861Y020458D01*
X007831Y020399D01*
X007792Y020345D01*
X007745Y020299D01*
X007692Y020260D01*
X007633Y020230D01*
X007570Y020209D01*
X007505Y020199D01*
X007232Y020199D01*
X007232Y020599D01*
X007232Y020527D02*
X007192Y020527D01*
X007192Y020408D02*
X007232Y020408D01*
X007232Y020290D02*
X007192Y020290D01*
X007733Y020290D02*
X008442Y020290D01*
X008442Y020408D02*
X007836Y020408D01*
X007882Y020527D02*
X008383Y020527D01*
X008372Y020645D02*
X007892Y020645D01*
X007866Y020764D02*
X008405Y020764D01*
X008496Y020882D02*
X007799Y020882D01*
X007232Y021001D02*
X007192Y021001D01*
X006588Y019934D02*
X005492Y019934D01*
X005494Y019816D02*
X006514Y019816D01*
X006472Y019697D02*
X005546Y019697D01*
X005551Y019579D02*
X006472Y019579D01*
X006498Y019460D02*
X005513Y019460D01*
X005414Y019342D02*
X006550Y019342D01*
X006668Y019223D02*
X004722Y019223D01*
X004710Y019342D02*
X005009Y019342D01*
X004910Y019460D02*
X004591Y019460D01*
X004478Y019579D02*
X004872Y019579D01*
X004877Y019697D02*
X004596Y019697D01*
X004715Y019816D02*
X004929Y019816D01*
X004932Y019934D02*
X004782Y019934D01*
X004782Y020053D02*
X004932Y020053D01*
X004932Y020171D02*
X004782Y020171D01*
X004782Y020290D02*
X004932Y020290D01*
X004932Y020408D02*
X004728Y020408D01*
X004610Y020527D02*
X004883Y020527D01*
X004872Y020645D02*
X004544Y020645D01*
X004663Y020764D02*
X004905Y020764D01*
X004996Y020882D02*
X004781Y020882D01*
X005212Y020619D02*
X005212Y019619D01*
X004722Y018986D02*
X012649Y018986D01*
X012699Y018868D02*
X004682Y018868D01*
X004563Y018749D02*
X012775Y018749D01*
X012644Y021238D02*
X010769Y021238D01*
X010882Y021356D02*
X012693Y021356D01*
X012761Y021475D02*
X010931Y021475D01*
X010952Y021593D02*
X012880Y021593D01*
X012812Y021712D02*
X010952Y021712D01*
X010903Y021830D02*
X012714Y021830D01*
X012665Y021949D02*
X010820Y021949D01*
X010643Y022067D02*
X012642Y022067D01*
X012642Y022186D02*
X010681Y022186D01*
X010836Y022304D02*
X012671Y022304D01*
X012721Y022423D02*
X010910Y022423D01*
X010952Y022541D02*
X012828Y022541D01*
X012864Y022660D02*
X010952Y022660D01*
X010925Y022778D02*
X012746Y022778D01*
X012687Y022897D02*
X010872Y022897D01*
X010754Y023015D02*
X012642Y023015D01*
X012642Y023134D02*
X004782Y023134D01*
X004782Y023252D02*
X012650Y023252D01*
X012699Y023371D02*
X004766Y023371D01*
X004647Y023489D02*
X012776Y023489D01*
X012903Y023608D02*
X004529Y023608D01*
X004625Y023726D02*
X012798Y023726D01*
X012708Y023845D02*
X004744Y023845D01*
X004782Y023963D02*
X012659Y023963D01*
X012642Y024082D02*
X004782Y024082D01*
X004782Y024200D02*
X012642Y024200D01*
X012677Y024319D02*
X004782Y024319D01*
X004699Y024437D02*
X012727Y024437D01*
X012842Y024556D02*
X011342Y024556D01*
X011404Y024581D02*
X011279Y024530D01*
X011144Y024530D01*
X011019Y024581D01*
X010924Y024677D01*
X010872Y024801D01*
X010872Y024826D01*
X010600Y025099D01*
X010171Y025099D01*
X010154Y025081D01*
X010029Y025030D01*
X009894Y025030D01*
X010029Y025030D02*
X010669Y025030D01*
X010787Y024911D02*
X005650Y024911D01*
X005547Y024793D02*
X010876Y024793D01*
X010927Y024674D02*
X005497Y024674D01*
X005342Y024556D02*
X011081Y024556D01*
X011404Y024581D02*
X011499Y024677D01*
X011551Y024801D01*
X011551Y024936D01*
X011499Y025061D01*
X011404Y025156D01*
X011279Y025208D01*
X011254Y025208D01*
X010864Y025598D01*
X010765Y025639D01*
X010171Y025639D01*
X010154Y025656D01*
X010029Y025708D01*
X009894Y025708D01*
X009769Y025656D01*
X009650Y025504D02*
X008031Y025504D01*
X007958Y025385D02*
X009622Y025385D01*
X010805Y025622D02*
X012921Y025622D01*
X012790Y025504D02*
X010958Y025504D01*
X011077Y025385D02*
X012705Y025385D01*
X012656Y025267D02*
X011195Y025267D01*
X011411Y025148D02*
X012642Y025148D01*
X012642Y025030D02*
X011512Y025030D01*
X011551Y024911D02*
X012681Y024911D01*
X012731Y024793D02*
X011547Y024793D01*
X011497Y024674D02*
X012850Y024674D01*
X013767Y025267D02*
X018723Y025267D01*
X018775Y025385D02*
X013718Y025385D01*
X013633Y025504D02*
X018875Y025504D01*
X018921Y025622D02*
X013502Y025622D01*
X013640Y025741D02*
X018783Y025741D01*
X018702Y025859D02*
X013721Y025859D01*
X013770Y025978D02*
X018653Y025978D01*
X018642Y026096D02*
X013782Y026096D01*
X013782Y026215D02*
X018642Y026215D01*
X018683Y026333D02*
X013740Y026333D01*
X013685Y026452D02*
X018738Y026452D01*
X018857Y026570D02*
X013566Y026570D01*
X019502Y025622D02*
X029925Y025622D01*
X029925Y025504D02*
X019548Y025504D01*
X019648Y025385D02*
X029925Y025385D01*
X029925Y025267D02*
X019700Y025267D01*
X019722Y025159D02*
X019722Y025159D01*
X019722Y025079D02*
X019722Y025079D01*
X019715Y023845D02*
X027764Y023845D01*
X027883Y023726D02*
X019625Y023726D01*
X019520Y023608D02*
X027894Y023608D01*
X027776Y023489D02*
X019647Y023489D01*
X019724Y023371D02*
X027657Y023371D01*
X027642Y023252D02*
X019773Y023252D01*
X019782Y023134D02*
X027642Y023134D01*
X027642Y023015D02*
X019782Y023015D01*
X019737Y022897D02*
X027642Y022897D01*
X027746Y022778D02*
X019677Y022778D01*
X019559Y022660D02*
X027864Y022660D01*
X027828Y022541D02*
X019595Y022541D01*
X019703Y022423D02*
X027709Y022423D01*
X027642Y022304D02*
X019752Y022304D01*
X019782Y022186D02*
X027642Y022186D01*
X027642Y022067D02*
X019782Y022067D01*
X019758Y021949D02*
X027642Y021949D01*
X027694Y021830D02*
X019709Y021830D01*
X019611Y021712D02*
X027812Y021712D01*
X027880Y021593D02*
X019543Y021593D01*
X019662Y021475D02*
X027761Y021475D01*
X027643Y021356D02*
X019730Y021356D01*
X019779Y021238D02*
X027642Y021238D01*
X027642Y021119D02*
X019782Y021119D01*
X019780Y021001D02*
X027642Y021001D01*
X027642Y020882D02*
X019731Y020882D01*
X019663Y020764D02*
X027760Y020764D01*
X027879Y020645D02*
X019544Y020645D01*
X019610Y020527D02*
X027813Y020527D01*
X027695Y020408D02*
X019709Y020408D01*
X019758Y020290D02*
X027642Y020290D01*
X027642Y020171D02*
X019782Y020171D01*
X019782Y020053D02*
X027642Y020053D01*
X027642Y019934D02*
X019752Y019934D01*
X019703Y019816D02*
X027708Y019816D01*
X027827Y019697D02*
X019596Y019697D01*
X019558Y019579D02*
X027865Y019579D01*
X027747Y019460D02*
X019676Y019460D01*
X019736Y019342D02*
X027642Y019342D01*
X027642Y019223D02*
X019782Y019223D01*
X019782Y019105D02*
X027642Y019105D01*
X027642Y018986D02*
X019774Y018986D01*
X019725Y018868D02*
X027656Y018868D01*
X027775Y018749D02*
X019648Y018749D01*
X019523Y018631D02*
X027893Y018631D01*
X028530Y018631D02*
X029925Y018631D01*
X029925Y018749D02*
X028648Y018749D01*
X028767Y018868D02*
X029925Y018868D01*
X029925Y018986D02*
X028782Y018986D01*
X028782Y019105D02*
X029925Y019105D01*
X029925Y019223D02*
X028782Y019223D01*
X028782Y019342D02*
X029925Y019342D01*
X029925Y019460D02*
X028676Y019460D01*
X028558Y019579D02*
X029925Y019579D01*
X029925Y019697D02*
X028596Y019697D01*
X028715Y019816D02*
X029925Y019816D01*
X029925Y019934D02*
X028782Y019934D01*
X028782Y020053D02*
X029925Y020053D01*
X029925Y020171D02*
X028782Y020171D01*
X028782Y020290D02*
X029925Y020290D01*
X029925Y020408D02*
X028728Y020408D01*
X028610Y020527D02*
X029925Y020527D01*
X029925Y020645D02*
X028544Y020645D01*
X028663Y020764D02*
X029925Y020764D01*
X029925Y020882D02*
X028781Y020882D01*
X028782Y021001D02*
X029925Y021001D01*
X029925Y021119D02*
X028782Y021119D01*
X028782Y021238D02*
X029925Y021238D01*
X029925Y021356D02*
X028780Y021356D01*
X028662Y021475D02*
X029925Y021475D01*
X029925Y021593D02*
X028543Y021593D01*
X028611Y021712D02*
X029925Y021712D01*
X029925Y021830D02*
X028729Y021830D01*
X028782Y021949D02*
X029925Y021949D01*
X029925Y022067D02*
X028782Y022067D01*
X028782Y022186D02*
X029925Y022186D01*
X029925Y022304D02*
X028782Y022304D01*
X028714Y022423D02*
X029925Y022423D01*
X029925Y022541D02*
X028595Y022541D01*
X028559Y022660D02*
X029925Y022660D01*
X029925Y022778D02*
X028677Y022778D01*
X028782Y022897D02*
X029925Y022897D01*
X029925Y023015D02*
X028782Y023015D01*
X028782Y023134D02*
X029925Y023134D01*
X029925Y023252D02*
X028782Y023252D01*
X028766Y023371D02*
X029925Y023371D01*
X029925Y023489D02*
X028647Y023489D01*
X028529Y023608D02*
X029925Y023608D01*
X029925Y023726D02*
X028540Y023726D01*
X028659Y023845D02*
X029925Y023845D01*
X029925Y023963D02*
X028722Y023963D01*
X028252Y024200D02*
X028172Y024200D01*
X028172Y024319D02*
X028252Y024319D01*
X028252Y024437D02*
X028172Y024437D01*
X028172Y024556D02*
X028252Y024556D01*
X029925Y027637D02*
X006551Y027637D01*
X006522Y027755D02*
X029925Y027755D01*
X029925Y027874D02*
X006436Y027874D01*
X006212Y027619D02*
X006212Y025869D01*
X005212Y024869D01*
X005081Y024556D02*
X004581Y024556D01*
X004462Y024674D02*
X004927Y024674D01*
X004876Y024793D02*
X002498Y024793D01*
X002498Y024911D02*
X004872Y024911D01*
X004911Y025030D02*
X002498Y025030D01*
X002498Y025148D02*
X005012Y025148D01*
X005214Y025267D02*
X002498Y025267D01*
X002498Y025385D02*
X005332Y025385D01*
X005451Y025504D02*
X002498Y025504D01*
X002498Y025622D02*
X005569Y025622D01*
X005688Y025741D02*
X004694Y025741D01*
X004718Y025753D02*
X004774Y025793D01*
X004822Y025842D01*
X004863Y025898D01*
X004894Y025959D01*
X004915Y026024D01*
X004926Y026092D01*
X004926Y026098D01*
X004240Y026098D01*
X004240Y025690D01*
X004523Y025690D01*
X004591Y025700D01*
X004657Y025722D01*
X004718Y025753D01*
X004835Y025859D02*
X005806Y025859D01*
X005925Y025978D02*
X004900Y025978D01*
X004926Y026096D02*
X005932Y026096D01*
X005932Y026215D02*
X004917Y026215D01*
X004915Y026229D02*
X004894Y026295D01*
X004863Y026356D01*
X004822Y026412D01*
X004774Y026460D01*
X004718Y026501D01*
X004657Y026532D01*
X004591Y026553D01*
X004523Y026564D01*
X004240Y026564D01*
X004240Y026155D01*
X004926Y026155D01*
X004926Y026161D01*
X004915Y026229D01*
X004874Y026333D02*
X005932Y026333D01*
X005932Y026452D02*
X004782Y026452D01*
X004769Y026689D02*
X005932Y026689D01*
X005932Y026807D02*
X004888Y026807D01*
X004910Y026829D02*
X004986Y027012D01*
X004986Y027210D01*
X004910Y027393D01*
X004770Y027532D01*
X004588Y027608D01*
X003835Y027608D01*
X003653Y027532D01*
X003513Y027393D01*
X003437Y027210D01*
X003437Y027012D01*
X003513Y026829D01*
X003653Y026690D01*
X003835Y026614D01*
X004588Y026614D01*
X004770Y026690D01*
X004910Y026829D01*
X004950Y026926D02*
X005932Y026926D01*
X005932Y027044D02*
X004986Y027044D01*
X004986Y027163D02*
X005932Y027163D01*
X005932Y027281D02*
X004956Y027281D01*
X004903Y027400D02*
X005932Y027400D01*
X005886Y027518D02*
X004784Y027518D01*
X004183Y026564D02*
X003900Y026564D01*
X003832Y026553D01*
X003767Y026532D01*
X003705Y026501D01*
X003650Y026460D01*
X003601Y026412D01*
X003560Y026356D01*
X003529Y026295D01*
X003508Y026229D01*
X003497Y026161D01*
X003497Y026155D01*
X004183Y026155D01*
X004183Y026098D01*
X004240Y026098D01*
X004240Y026155D01*
X004183Y026155D01*
X004183Y026564D01*
X004183Y026452D02*
X004240Y026452D01*
X004240Y026333D02*
X004183Y026333D01*
X004183Y026215D02*
X004240Y026215D01*
X004240Y026096D02*
X004183Y026096D01*
X004183Y026098D02*
X004183Y025690D01*
X003900Y025690D01*
X003832Y025700D01*
X003767Y025722D01*
X003705Y025753D01*
X003650Y025793D01*
X003601Y025842D01*
X003560Y025898D01*
X003529Y025959D01*
X003508Y026024D01*
X003497Y026092D01*
X003497Y026098D01*
X004183Y026098D01*
X004183Y025978D02*
X004240Y025978D01*
X004240Y025859D02*
X004183Y025859D01*
X004183Y025741D02*
X004240Y025741D01*
X003729Y025741D02*
X002498Y025741D01*
X002498Y025859D02*
X003588Y025859D01*
X003523Y025978D02*
X002498Y025978D01*
X002498Y026096D02*
X003497Y026096D01*
X003506Y026215D02*
X002498Y026215D01*
X002498Y026333D02*
X003549Y026333D01*
X003641Y026452D02*
X002498Y026452D01*
X002498Y026570D02*
X005932Y026570D01*
X005872Y027637D02*
X002498Y027637D01*
X002498Y027755D02*
X005901Y027755D01*
X005987Y027874D02*
X002498Y027874D01*
X002498Y027992D02*
X029925Y027992D01*
X029925Y028111D02*
X002498Y028111D01*
X002498Y028229D02*
X029925Y028229D01*
X029925Y028348D02*
X002498Y028348D01*
X002498Y028466D02*
X029925Y028466D01*
X029925Y028585D02*
X002498Y028585D01*
X002498Y028703D02*
X029925Y028703D01*
X029925Y028822D02*
X002498Y028822D01*
X002498Y028940D02*
X029925Y028940D01*
X029925Y029059D02*
X002498Y029059D01*
X002498Y029177D02*
X029925Y029177D01*
X029925Y029296D02*
X002498Y029296D01*
X002498Y029414D02*
X029925Y029414D01*
X029925Y029533D02*
X002498Y029533D01*
X002498Y029651D02*
X002712Y029651D01*
X002691Y029657D02*
X003039Y029564D01*
X003400Y029564D01*
X003748Y029657D01*
X004061Y029838D01*
X004316Y030093D01*
X004496Y030405D01*
X004589Y030753D01*
X004589Y031114D01*
X004496Y031463D01*
X004385Y031655D01*
X028038Y031655D01*
X027927Y031463D01*
X027834Y031114D01*
X027834Y030753D01*
X027927Y030405D01*
X028107Y030093D01*
X028362Y029838D01*
X028675Y029657D01*
X029023Y029564D01*
X029384Y029564D01*
X029732Y029657D01*
X029925Y029768D01*
X029925Y002966D01*
X029732Y003077D01*
X029384Y003170D01*
X029023Y003170D01*
X028675Y003077D01*
X028362Y002896D01*
X028107Y002641D01*
X027927Y002329D01*
X027834Y001980D01*
X027834Y001620D01*
X027927Y001271D01*
X028038Y001079D01*
X018905Y001079D01*
X018977Y001121D01*
X019210Y001353D01*
X019374Y001637D01*
X019459Y001955D01*
X019459Y002283D01*
X019374Y002600D01*
X019210Y002885D01*
X018977Y003117D01*
X018974Y003119D01*
X018977Y003121D01*
X019210Y003353D01*
X019374Y003637D01*
X019459Y003955D01*
X019459Y004283D01*
X019374Y004600D01*
X019210Y004885D01*
X018977Y005117D01*
X018693Y005281D01*
X018376Y005366D01*
X018047Y005366D01*
X017730Y005281D01*
X017446Y005117D01*
X017213Y004885D01*
X017049Y004600D01*
X016964Y004283D01*
X016964Y003955D01*
X017049Y003637D01*
X017213Y003353D01*
X017446Y003121D01*
X017449Y003119D01*
X017446Y003117D01*
X017213Y002885D01*
X017049Y002600D01*
X016964Y002283D01*
X016964Y001955D01*
X017049Y001637D01*
X017213Y001353D01*
X017446Y001121D01*
X017518Y001079D01*
X014905Y001079D01*
X014977Y001121D01*
X015210Y001353D01*
X015374Y001637D01*
X015459Y001955D01*
X015459Y002283D01*
X015374Y002600D01*
X015210Y002885D01*
X014977Y003117D01*
X014974Y003119D01*
X014977Y003121D01*
X015210Y003353D01*
X015374Y003637D01*
X015459Y003955D01*
X015459Y004283D01*
X015374Y004600D01*
X015210Y004885D01*
X014977Y005117D01*
X014693Y005281D01*
X014376Y005366D01*
X014047Y005366D01*
X013730Y005281D01*
X013446Y005117D01*
X013213Y004885D01*
X013049Y004600D01*
X012964Y004283D01*
X012964Y003955D01*
X013049Y003637D01*
X013213Y003353D01*
X013446Y003121D01*
X013449Y003119D01*
X013446Y003117D01*
X013213Y002885D01*
X013049Y002600D01*
X012964Y002283D01*
X012964Y001955D01*
X013049Y001637D01*
X013213Y001353D01*
X013446Y001121D01*
X013518Y001079D01*
X004385Y001079D01*
X004496Y001271D01*
X004589Y001620D01*
X004589Y001980D01*
X004496Y002329D01*
X004316Y002641D01*
X004061Y002896D01*
X003748Y003077D01*
X003400Y003170D01*
X003039Y003170D01*
X002691Y003077D01*
X002498Y002966D01*
X002498Y029768D01*
X002691Y029657D01*
X003727Y029651D02*
X028696Y029651D01*
X028480Y029770D02*
X003943Y029770D01*
X004111Y029888D02*
X028312Y029888D01*
X028193Y030007D02*
X004230Y030007D01*
X004335Y030125D02*
X028088Y030125D01*
X028020Y030244D02*
X004403Y030244D01*
X004471Y030362D02*
X027952Y030362D01*
X027907Y030481D02*
X004516Y030481D01*
X004548Y030599D02*
X027875Y030599D01*
X027843Y030718D02*
X004580Y030718D01*
X004589Y030836D02*
X027834Y030836D01*
X027834Y030955D02*
X004589Y030955D01*
X004589Y031073D02*
X027834Y031073D01*
X027855Y031192D02*
X004569Y031192D01*
X004537Y031310D02*
X027886Y031310D01*
X027918Y031429D02*
X004505Y031429D01*
X004447Y031547D02*
X027976Y031547D01*
X029711Y029651D02*
X029925Y029651D01*
X029925Y018512D02*
X019624Y018512D01*
X019715Y018394D02*
X029925Y018394D01*
X029925Y018275D02*
X019764Y018275D01*
X019782Y018157D02*
X029925Y018157D01*
X029925Y018038D02*
X019782Y018038D01*
X019746Y017920D02*
X029925Y017920D01*
X029925Y017801D02*
X019697Y017801D01*
X019582Y017683D02*
X029925Y017683D01*
X029925Y017564D02*
X019572Y017564D01*
X019691Y017446D02*
X029925Y017446D01*
X029925Y017327D02*
X019742Y017327D01*
X019782Y017209D02*
X029925Y017209D01*
X029925Y017090D02*
X019782Y017090D01*
X019768Y016972D02*
X029925Y016972D01*
X029925Y016853D02*
X019719Y016853D01*
X019634Y016735D02*
X029925Y016735D01*
X029925Y016616D02*
X019500Y016616D01*
X019639Y016498D02*
X029925Y016498D01*
X029925Y016379D02*
X019721Y016379D01*
X019770Y016261D02*
X029925Y016261D01*
X029925Y016142D02*
X019782Y016142D01*
X019782Y016024D02*
X029925Y016024D01*
X029925Y015905D02*
X019740Y015905D01*
X019686Y015787D02*
X029925Y015787D01*
X029925Y015668D02*
X019567Y015668D01*
X019587Y015550D02*
X029925Y015550D01*
X029925Y015431D02*
X019699Y015431D01*
X019748Y015313D02*
X029925Y015313D01*
X029925Y015194D02*
X019782Y015194D01*
X019782Y015076D02*
X029925Y015076D01*
X029925Y014957D02*
X019762Y014957D01*
X019713Y014839D02*
X029925Y014839D01*
X029925Y014720D02*
X019619Y014720D01*
X019453Y014602D02*
X029925Y014602D01*
X029925Y014483D02*
X019153Y014483D01*
X019272Y014365D02*
X029925Y014365D01*
X029925Y014246D02*
X019282Y014246D01*
X019282Y014128D02*
X029925Y014128D01*
X029925Y014009D02*
X019282Y014009D01*
X019282Y013891D02*
X029925Y013891D01*
X029925Y013772D02*
X019171Y013772D01*
X019053Y013654D02*
X029925Y013654D01*
X029925Y012824D02*
X002498Y012824D01*
X002498Y012706D02*
X029925Y012706D01*
X029925Y009743D02*
X002498Y009743D01*
X002498Y009625D02*
X029925Y009625D01*
X029925Y009506D02*
X002498Y009506D01*
X002498Y009388D02*
X029925Y009388D01*
X029925Y009269D02*
X002498Y009269D01*
X002498Y009151D02*
X029925Y009151D01*
X029925Y009032D02*
X002498Y009032D01*
X002498Y008914D02*
X029925Y008914D01*
X029925Y008795D02*
X002498Y008795D01*
X002498Y008677D02*
X029925Y008677D01*
X029925Y008558D02*
X002498Y008558D01*
X002498Y008440D02*
X029925Y008440D01*
X029925Y008321D02*
X002498Y008321D01*
X002498Y008203D02*
X029925Y008203D01*
X029925Y008084D02*
X002498Y008084D01*
X002498Y007966D02*
X029925Y007966D01*
X029925Y007847D02*
X024443Y007847D01*
X024547Y007804D02*
X024248Y007928D01*
X023923Y007928D01*
X023624Y007804D01*
X023395Y007575D01*
X023271Y007275D01*
X023271Y006951D01*
X023395Y006652D01*
X023624Y006422D01*
X023923Y006298D01*
X024248Y006298D01*
X024547Y006422D01*
X024776Y006652D01*
X024901Y006951D01*
X024901Y007275D01*
X024776Y007575D01*
X024547Y007804D01*
X024623Y007729D02*
X029925Y007729D01*
X029925Y007610D02*
X024741Y007610D01*
X024811Y007492D02*
X029925Y007492D01*
X029925Y007373D02*
X024860Y007373D01*
X024901Y007255D02*
X029925Y007255D01*
X029925Y007136D02*
X024901Y007136D01*
X024901Y007018D02*
X029925Y007018D01*
X029925Y006899D02*
X024879Y006899D01*
X024830Y006781D02*
X025883Y006781D01*
X025896Y006794D02*
X025740Y006638D01*
X025656Y006434D01*
X025656Y006213D01*
X025740Y006009D01*
X025896Y005853D01*
X026100Y005768D01*
X026991Y005768D01*
X027195Y005853D01*
X027351Y006009D01*
X027436Y006213D01*
X027436Y006434D01*
X027351Y006638D01*
X027195Y006794D01*
X026991Y006878D01*
X026100Y006878D01*
X025896Y006794D01*
X025765Y006662D02*
X024781Y006662D01*
X024669Y006544D02*
X025701Y006544D01*
X025656Y006425D02*
X024550Y006425D01*
X024268Y006307D02*
X025656Y006307D01*
X025666Y006188D02*
X022505Y006188D01*
X022516Y006213D02*
X022516Y006434D01*
X022431Y006638D01*
X022275Y006794D01*
X022071Y006878D01*
X021180Y006878D01*
X020976Y006794D01*
X020820Y006638D01*
X020736Y006434D01*
X020736Y006213D01*
X020820Y006009D01*
X020976Y005853D01*
X021180Y005768D01*
X022071Y005768D01*
X022275Y005853D01*
X022431Y006009D01*
X022516Y006213D01*
X022516Y006307D02*
X023903Y006307D01*
X023621Y006425D02*
X022516Y006425D01*
X022470Y006544D02*
X023502Y006544D01*
X023390Y006662D02*
X022406Y006662D01*
X022288Y006781D02*
X023341Y006781D01*
X023292Y006899D02*
X012551Y006899D01*
X012551Y006936D02*
X012499Y007061D01*
X012404Y007156D01*
X012279Y007208D01*
X012144Y007208D01*
X012051Y007169D01*
X012051Y007186D01*
X011999Y007311D01*
X011904Y007406D01*
X011779Y007458D01*
X011644Y007458D01*
X011519Y007406D01*
X011424Y007311D01*
X011372Y007186D01*
X011372Y007051D01*
X011424Y006927D01*
X011442Y006909D01*
X011442Y006796D01*
X011243Y006878D01*
X010352Y006878D01*
X010148Y006794D01*
X009992Y006638D01*
X009908Y006434D01*
X009908Y006213D01*
X009992Y006009D01*
X010148Y005853D01*
X010352Y005768D01*
X011243Y005768D01*
X011442Y005851D01*
X011442Y005828D01*
X011424Y005811D01*
X011372Y005686D01*
X011372Y005551D01*
X011424Y005427D01*
X011519Y005331D01*
X011644Y005280D01*
X011779Y005280D01*
X011904Y005331D01*
X011962Y005389D01*
X012019Y005331D01*
X012144Y005280D01*
X012279Y005280D01*
X012404Y005331D01*
X012499Y005427D01*
X012551Y005551D01*
X012551Y005686D01*
X012499Y005811D01*
X012482Y005828D01*
X012482Y006659D01*
X012499Y006677D01*
X012551Y006801D01*
X012551Y006936D01*
X012517Y007018D02*
X023271Y007018D01*
X023271Y007136D02*
X012424Y007136D01*
X012542Y006781D02*
X020963Y006781D01*
X020845Y006662D02*
X012485Y006662D01*
X012482Y006544D02*
X020781Y006544D01*
X020736Y006425D02*
X012482Y006425D01*
X012482Y006307D02*
X020736Y006307D01*
X020746Y006188D02*
X012482Y006188D01*
X012482Y006070D02*
X020795Y006070D01*
X020878Y005951D02*
X012482Y005951D01*
X012482Y005833D02*
X021024Y005833D01*
X021180Y004918D02*
X020976Y004834D01*
X020820Y004678D01*
X020736Y004474D01*
X020736Y004253D01*
X020820Y004049D01*
X020976Y003893D01*
X021180Y003808D01*
X022071Y003808D01*
X022275Y003893D01*
X022431Y004049D01*
X022516Y004253D01*
X022516Y004474D01*
X022431Y004678D01*
X022275Y004834D01*
X022071Y004918D01*
X021180Y004918D01*
X021100Y004885D02*
X019210Y004885D01*
X019278Y004766D02*
X020909Y004766D01*
X020808Y004648D02*
X019346Y004648D01*
X019393Y004529D02*
X020759Y004529D01*
X020736Y004411D02*
X019425Y004411D01*
X019456Y004292D02*
X020736Y004292D01*
X020768Y004174D02*
X019459Y004174D01*
X019459Y004055D02*
X020817Y004055D01*
X020932Y003937D02*
X019454Y003937D01*
X019422Y003818D02*
X021156Y003818D01*
X022095Y003818D02*
X023305Y003818D01*
X023271Y003735D02*
X023271Y003411D01*
X023395Y003112D01*
X023624Y002882D01*
X023923Y002758D01*
X024248Y002758D01*
X024547Y002882D01*
X024776Y003112D01*
X024901Y003411D01*
X024901Y003735D01*
X024776Y004035D01*
X024547Y004264D01*
X024248Y004388D01*
X023923Y004388D01*
X023624Y004264D01*
X023395Y004035D01*
X023271Y003735D01*
X023271Y003700D02*
X019391Y003700D01*
X019342Y003581D02*
X023271Y003581D01*
X023271Y003463D02*
X019273Y003463D01*
X019201Y003344D02*
X023298Y003344D01*
X023347Y003226D02*
X019083Y003226D01*
X018987Y003107D02*
X023399Y003107D01*
X023517Y002989D02*
X019106Y002989D01*
X019218Y002870D02*
X023653Y002870D01*
X024518Y002870D02*
X028337Y002870D01*
X028218Y002752D02*
X019286Y002752D01*
X019355Y002633D02*
X028103Y002633D01*
X028034Y002515D02*
X019397Y002515D01*
X019429Y002396D02*
X027966Y002396D01*
X027913Y002278D02*
X019459Y002278D01*
X019459Y002159D02*
X027882Y002159D01*
X027850Y002041D02*
X019459Y002041D01*
X019450Y001922D02*
X027834Y001922D01*
X027834Y001804D02*
X019419Y001804D01*
X019387Y001685D02*
X027834Y001685D01*
X027848Y001567D02*
X019333Y001567D01*
X019265Y001448D02*
X027880Y001448D01*
X027911Y001330D02*
X019187Y001330D01*
X019068Y001211D02*
X027962Y001211D01*
X028030Y001093D02*
X018929Y001093D01*
X017494Y001093D02*
X014929Y001093D01*
X015068Y001211D02*
X017355Y001211D01*
X017236Y001330D02*
X015187Y001330D01*
X015265Y001448D02*
X017158Y001448D01*
X017090Y001567D02*
X015333Y001567D01*
X015387Y001685D02*
X017036Y001685D01*
X017005Y001804D02*
X015419Y001804D01*
X015450Y001922D02*
X016973Y001922D01*
X016964Y002041D02*
X015459Y002041D01*
X015459Y002159D02*
X016964Y002159D01*
X016964Y002278D02*
X015459Y002278D01*
X015429Y002396D02*
X016995Y002396D01*
X017026Y002515D02*
X015397Y002515D01*
X015355Y002633D02*
X017068Y002633D01*
X017137Y002752D02*
X015286Y002752D01*
X015218Y002870D02*
X017205Y002870D01*
X017317Y002989D02*
X015106Y002989D01*
X014987Y003107D02*
X017436Y003107D01*
X017340Y003226D02*
X015083Y003226D01*
X015201Y003344D02*
X017222Y003344D01*
X017150Y003463D02*
X015273Y003463D01*
X015342Y003581D02*
X017081Y003581D01*
X017032Y003700D02*
X015391Y003700D01*
X015422Y003818D02*
X017001Y003818D01*
X016969Y003937D02*
X015454Y003937D01*
X015459Y004055D02*
X016964Y004055D01*
X016964Y004174D02*
X015459Y004174D01*
X015456Y004292D02*
X016967Y004292D01*
X016998Y004411D02*
X015425Y004411D01*
X015393Y004529D02*
X017030Y004529D01*
X017077Y004648D02*
X015346Y004648D01*
X015278Y004766D02*
X017145Y004766D01*
X017213Y004885D02*
X015210Y004885D01*
X015091Y005003D02*
X017332Y005003D01*
X017454Y005122D02*
X014969Y005122D01*
X014764Y005240D02*
X017659Y005240D01*
X018020Y005359D02*
X014403Y005359D01*
X014020Y005359D02*
X012431Y005359D01*
X012520Y005477D02*
X029925Y005477D01*
X029925Y005359D02*
X018403Y005359D01*
X018764Y005240D02*
X029925Y005240D01*
X029925Y005122D02*
X018969Y005122D01*
X019091Y005003D02*
X029925Y005003D01*
X029925Y004885D02*
X027072Y004885D01*
X026991Y004918D02*
X027195Y004834D01*
X027351Y004678D01*
X027436Y004474D01*
X027436Y004253D01*
X027351Y004049D01*
X027195Y003893D01*
X026991Y003808D01*
X026100Y003808D01*
X025896Y003893D01*
X025740Y004049D01*
X025656Y004253D01*
X025656Y004474D01*
X025740Y004678D01*
X025896Y004834D01*
X026100Y004918D01*
X026991Y004918D01*
X027262Y004766D02*
X029925Y004766D01*
X029925Y004648D02*
X027363Y004648D01*
X027412Y004529D02*
X029925Y004529D01*
X029925Y004411D02*
X027436Y004411D01*
X027436Y004292D02*
X029925Y004292D01*
X029925Y004174D02*
X027403Y004174D01*
X027354Y004055D02*
X029925Y004055D01*
X029925Y003937D02*
X027239Y003937D01*
X027015Y003818D02*
X029925Y003818D01*
X029925Y003700D02*
X024901Y003700D01*
X024901Y003581D02*
X029925Y003581D01*
X029925Y003463D02*
X024901Y003463D01*
X024873Y003344D02*
X029925Y003344D01*
X029925Y003226D02*
X024824Y003226D01*
X024772Y003107D02*
X028790Y003107D01*
X028523Y002989D02*
X024654Y002989D01*
X024866Y003818D02*
X026076Y003818D01*
X025852Y003937D02*
X024817Y003937D01*
X024756Y004055D02*
X025737Y004055D01*
X025688Y004174D02*
X024638Y004174D01*
X024479Y004292D02*
X025656Y004292D01*
X025656Y004411D02*
X022516Y004411D01*
X022516Y004292D02*
X023692Y004292D01*
X023534Y004174D02*
X022483Y004174D01*
X022434Y004055D02*
X023415Y004055D01*
X023354Y003937D02*
X022319Y003937D01*
X022492Y004529D02*
X025679Y004529D01*
X025728Y004648D02*
X022443Y004648D01*
X022342Y004766D02*
X025829Y004766D01*
X026020Y004885D02*
X022152Y004885D01*
X022227Y005833D02*
X025944Y005833D01*
X025798Y005951D02*
X022374Y005951D01*
X022456Y006070D02*
X025715Y006070D01*
X027147Y005833D02*
X029925Y005833D01*
X029925Y005951D02*
X027294Y005951D01*
X027376Y006070D02*
X029925Y006070D01*
X029925Y006188D02*
X027425Y006188D01*
X027436Y006307D02*
X029925Y006307D01*
X029925Y006425D02*
X027436Y006425D01*
X027390Y006544D02*
X029925Y006544D01*
X029925Y006662D02*
X027326Y006662D01*
X027208Y006781D02*
X029925Y006781D01*
X029925Y005714D02*
X012539Y005714D01*
X012551Y005596D02*
X029925Y005596D01*
X029925Y003107D02*
X029618Y003107D01*
X029884Y002989D02*
X029925Y002989D01*
X023728Y007847D02*
X008695Y007847D01*
X008799Y007804D02*
X008500Y007928D01*
X008175Y007928D01*
X007876Y007804D01*
X007647Y007575D01*
X007523Y007275D01*
X007523Y006951D01*
X007647Y006652D01*
X007876Y006422D01*
X008175Y006298D01*
X008500Y006298D01*
X008799Y006422D01*
X009028Y006652D01*
X009153Y006951D01*
X009153Y007275D01*
X009028Y007575D01*
X008799Y007804D01*
X008875Y007729D02*
X023549Y007729D01*
X023430Y007610D02*
X008993Y007610D01*
X009063Y007492D02*
X023360Y007492D01*
X023311Y007373D02*
X011937Y007373D01*
X012022Y007255D02*
X023271Y007255D01*
X018370Y013654D02*
X018053Y013654D01*
X018171Y013772D02*
X018252Y013772D01*
X018270Y014483D02*
X018153Y014483D01*
X018035Y014602D02*
X018388Y014602D01*
X017388Y014602D02*
X017035Y014602D01*
X017153Y014483D02*
X017270Y014483D01*
X017252Y013772D02*
X017171Y013772D01*
X017053Y013654D02*
X017370Y013654D01*
X016370Y013654D02*
X016053Y013654D01*
X016171Y013772D02*
X016252Y013772D01*
X016270Y014483D02*
X016153Y014483D01*
X016035Y014602D02*
X016388Y014602D01*
X015388Y014602D02*
X014950Y014602D01*
X015068Y014483D02*
X015270Y014483D01*
X014752Y014483D02*
X014672Y014483D01*
X014672Y014365D02*
X014752Y014365D01*
X014752Y014246D02*
X014672Y014246D01*
X014672Y014128D02*
X013752Y014128D01*
X013752Y014009D02*
X013672Y014009D01*
X013672Y013891D02*
X013752Y013891D01*
X013752Y013772D02*
X013672Y013772D01*
X013672Y013654D02*
X013752Y013654D01*
X013968Y013654D02*
X014455Y013654D01*
X014337Y013772D02*
X014086Y013772D01*
X014205Y013891D02*
X014218Y013891D01*
X014236Y014365D02*
X014187Y014365D01*
X014068Y014483D02*
X014355Y014483D01*
X014473Y014602D02*
X013950Y014602D01*
X013473Y014602D02*
X013453Y014602D01*
X013355Y014483D02*
X009102Y014483D01*
X009151Y014365D02*
X013236Y014365D01*
X013202Y014246D02*
X009153Y014246D01*
X009092Y013891D02*
X010173Y013891D01*
X010040Y013772D02*
X009043Y013772D01*
X008944Y013654D02*
X009963Y013654D01*
X009914Y013535D02*
X008826Y013535D01*
X008577Y013417D02*
X009908Y013417D01*
X009053Y014602D02*
X012970Y014602D01*
X012804Y014720D02*
X008970Y014720D01*
X008851Y014839D02*
X012711Y014839D01*
X014672Y014602D02*
X014752Y014602D01*
X014752Y014009D02*
X014672Y014009D01*
X014672Y013891D02*
X014752Y013891D01*
X014752Y013772D02*
X014672Y013772D01*
X014672Y013654D02*
X014752Y013654D01*
X014968Y013654D02*
X015370Y013654D01*
X015252Y013772D02*
X015086Y013772D01*
X009668Y019223D02*
X007755Y019223D01*
X007873Y019342D02*
X009550Y019342D01*
X006580Y022423D02*
X004714Y022423D01*
X004595Y022541D02*
X006539Y022541D01*
X006533Y022660D02*
X004559Y022660D01*
X004677Y022778D02*
X006562Y022778D01*
X006636Y022897D02*
X004782Y022897D01*
X004782Y023015D02*
X006813Y023015D01*
X003894Y023608D02*
X002498Y023608D01*
X002498Y023726D02*
X003798Y023726D01*
X003679Y023845D02*
X002498Y023845D01*
X002498Y023963D02*
X003642Y023963D01*
X003642Y024082D02*
X002498Y024082D01*
X002498Y024200D02*
X003642Y024200D01*
X003642Y024319D02*
X002498Y024319D01*
X002498Y024437D02*
X003724Y024437D01*
X003842Y024556D02*
X002498Y024556D01*
X002498Y024674D02*
X003961Y024674D01*
X003776Y023489D02*
X002498Y023489D01*
X002498Y023371D02*
X003657Y023371D01*
X003642Y023252D02*
X002498Y023252D01*
X002498Y023134D02*
X003642Y023134D01*
X003642Y023015D02*
X002498Y023015D01*
X002498Y022897D02*
X003642Y022897D01*
X003746Y022778D02*
X002498Y022778D01*
X002498Y022660D02*
X003864Y022660D01*
X003828Y022541D02*
X002498Y022541D01*
X002498Y022423D02*
X003709Y022423D01*
X003642Y022304D02*
X002498Y022304D01*
X002498Y022186D02*
X003642Y022186D01*
X003642Y022067D02*
X002498Y022067D01*
X002498Y021949D02*
X003642Y021949D01*
X003694Y021830D02*
X002498Y021830D01*
X002498Y021712D02*
X003812Y021712D01*
X003880Y021593D02*
X002498Y021593D01*
X002498Y021475D02*
X003761Y021475D01*
X003643Y021356D02*
X002498Y021356D01*
X002498Y021238D02*
X003642Y021238D01*
X003642Y021119D02*
X002498Y021119D01*
X002498Y021001D02*
X003642Y021001D01*
X003642Y020882D02*
X002498Y020882D01*
X002498Y020764D02*
X003760Y020764D01*
X003879Y020645D02*
X002498Y020645D01*
X002498Y020527D02*
X003813Y020527D01*
X003695Y020408D02*
X002498Y020408D01*
X002498Y020290D02*
X003642Y020290D01*
X003642Y020171D02*
X002498Y020171D01*
X002498Y020053D02*
X003642Y020053D01*
X003642Y019934D02*
X002498Y019934D01*
X002498Y019816D02*
X003708Y019816D01*
X003827Y019697D02*
X002498Y019697D01*
X002498Y019579D02*
X003945Y019579D01*
X003832Y019460D02*
X002498Y019460D01*
X002498Y019342D02*
X003713Y019342D01*
X003702Y019223D02*
X002498Y019223D01*
X002498Y019105D02*
X004172Y019105D01*
X003860Y018749D02*
X002498Y018749D01*
X002498Y018631D02*
X003978Y018631D01*
X003741Y018868D02*
X002498Y018868D01*
X002498Y018986D02*
X003702Y018986D01*
X003654Y026689D02*
X002498Y026689D01*
X002498Y026807D02*
X003535Y026807D01*
X003473Y026926D02*
X002498Y026926D01*
X002498Y027044D02*
X003437Y027044D01*
X003437Y027163D02*
X002498Y027163D01*
X002498Y027281D02*
X003467Y027281D01*
X003520Y027400D02*
X002498Y027400D01*
X002498Y027518D02*
X003639Y027518D01*
X002498Y007847D02*
X007980Y007847D01*
X007801Y007729D02*
X002498Y007729D01*
X002498Y007610D02*
X007682Y007610D01*
X007612Y007492D02*
X002498Y007492D01*
X002498Y007373D02*
X007563Y007373D01*
X007523Y007255D02*
X002498Y007255D01*
X002498Y007136D02*
X007523Y007136D01*
X007523Y007018D02*
X002498Y007018D01*
X002498Y006899D02*
X007544Y006899D01*
X007593Y006781D02*
X006540Y006781D01*
X006527Y006794D02*
X006323Y006878D01*
X005432Y006878D01*
X005228Y006794D01*
X005072Y006638D01*
X004988Y006434D01*
X004988Y006213D01*
X005072Y006009D01*
X005228Y005853D01*
X005432Y005768D01*
X006323Y005768D01*
X006527Y005853D01*
X006683Y006009D01*
X006768Y006213D01*
X006768Y006434D01*
X006683Y006638D01*
X006527Y006794D01*
X006658Y006662D02*
X007642Y006662D01*
X007754Y006544D02*
X006722Y006544D01*
X006768Y006425D02*
X007873Y006425D01*
X008155Y006307D02*
X006768Y006307D01*
X006757Y006188D02*
X009918Y006188D01*
X009908Y006307D02*
X008520Y006307D01*
X008802Y006425D02*
X009908Y006425D01*
X009953Y006544D02*
X008921Y006544D01*
X009033Y006662D02*
X010017Y006662D01*
X010135Y006781D02*
X009082Y006781D01*
X009131Y006899D02*
X011442Y006899D01*
X011386Y007018D02*
X009153Y007018D01*
X009153Y007136D02*
X011372Y007136D01*
X011401Y007255D02*
X009153Y007255D01*
X009112Y007373D02*
X011487Y007373D01*
X011442Y005833D02*
X011399Y005833D01*
X011384Y005714D02*
X002498Y005714D01*
X002498Y005596D02*
X011372Y005596D01*
X011403Y005477D02*
X002498Y005477D01*
X002498Y005359D02*
X011492Y005359D01*
X011931Y005359D02*
X011992Y005359D01*
X011447Y004834D02*
X011243Y004918D01*
X010352Y004918D01*
X010148Y004834D01*
X009992Y004678D01*
X009908Y004474D01*
X009908Y004253D01*
X009992Y004049D01*
X010148Y003893D01*
X010352Y003808D01*
X011243Y003808D01*
X011447Y003893D01*
X011603Y004049D01*
X011688Y004253D01*
X011688Y004474D01*
X011603Y004678D01*
X011447Y004834D01*
X011514Y004766D02*
X013145Y004766D01*
X013077Y004648D02*
X011615Y004648D01*
X011664Y004529D02*
X013030Y004529D01*
X012998Y004411D02*
X011688Y004411D01*
X011688Y004292D02*
X012967Y004292D01*
X012964Y004174D02*
X011655Y004174D01*
X011606Y004055D02*
X012964Y004055D01*
X012969Y003937D02*
X011491Y003937D01*
X011267Y003818D02*
X013001Y003818D01*
X013032Y003700D02*
X009153Y003700D01*
X009153Y003735D02*
X009028Y004035D01*
X008799Y004264D01*
X008500Y004388D01*
X008175Y004388D01*
X007876Y004264D01*
X007647Y004035D01*
X007523Y003735D01*
X007523Y003411D01*
X007647Y003112D01*
X007876Y002882D01*
X008175Y002758D01*
X008500Y002758D01*
X008799Y002882D01*
X009028Y003112D01*
X009153Y003411D01*
X009153Y003735D01*
X009118Y003818D02*
X010328Y003818D01*
X010104Y003937D02*
X009069Y003937D01*
X009008Y004055D02*
X009989Y004055D01*
X009940Y004174D02*
X008890Y004174D01*
X008731Y004292D02*
X009908Y004292D01*
X009908Y004411D02*
X006768Y004411D01*
X006768Y004474D02*
X006683Y004678D01*
X006527Y004834D01*
X006323Y004918D01*
X005432Y004918D01*
X005228Y004834D01*
X005072Y004678D01*
X004988Y004474D01*
X004988Y004253D01*
X005072Y004049D01*
X005228Y003893D01*
X005432Y003808D01*
X006323Y003808D01*
X006527Y003893D01*
X006683Y004049D01*
X006768Y004253D01*
X006768Y004474D01*
X006744Y004529D02*
X009931Y004529D01*
X009980Y004648D02*
X006695Y004648D01*
X006594Y004766D02*
X010081Y004766D01*
X010272Y004885D02*
X006404Y004885D01*
X006768Y004292D02*
X007944Y004292D01*
X007786Y004174D02*
X006735Y004174D01*
X006686Y004055D02*
X007667Y004055D01*
X007606Y003937D02*
X006571Y003937D01*
X006347Y003818D02*
X007557Y003818D01*
X007523Y003700D02*
X002498Y003700D01*
X002498Y003818D02*
X005408Y003818D01*
X005184Y003937D02*
X002498Y003937D01*
X002498Y004055D02*
X005069Y004055D01*
X005020Y004174D02*
X002498Y004174D01*
X002498Y004292D02*
X004988Y004292D01*
X004988Y004411D02*
X002498Y004411D01*
X002498Y004529D02*
X005011Y004529D01*
X005060Y004648D02*
X002498Y004648D01*
X002498Y004766D02*
X005161Y004766D01*
X005352Y004885D02*
X002498Y004885D01*
X002498Y005003D02*
X013332Y005003D01*
X013213Y004885D02*
X011324Y004885D01*
X010196Y005833D02*
X006479Y005833D01*
X006626Y005951D02*
X010050Y005951D01*
X009967Y006070D02*
X006708Y006070D01*
X005276Y005833D02*
X002498Y005833D01*
X002498Y005951D02*
X005130Y005951D01*
X005047Y006070D02*
X002498Y006070D01*
X002498Y006188D02*
X004998Y006188D01*
X004988Y006307D02*
X002498Y006307D01*
X002498Y006425D02*
X004988Y006425D01*
X005033Y006544D02*
X002498Y006544D01*
X002498Y006662D02*
X005097Y006662D01*
X005215Y006781D02*
X002498Y006781D01*
X002498Y005240D02*
X013659Y005240D01*
X013454Y005122D02*
X002498Y005122D01*
X002498Y003581D02*
X007523Y003581D01*
X007523Y003463D02*
X002498Y003463D01*
X002498Y003344D02*
X007550Y003344D01*
X007599Y003226D02*
X002498Y003226D01*
X002498Y003107D02*
X002805Y003107D01*
X002539Y002989D02*
X002498Y002989D01*
X003633Y003107D02*
X007651Y003107D01*
X007769Y002989D02*
X003900Y002989D01*
X004086Y002870D02*
X007905Y002870D01*
X008770Y002870D02*
X013205Y002870D01*
X013137Y002752D02*
X004205Y002752D01*
X004320Y002633D02*
X013068Y002633D01*
X013026Y002515D02*
X004389Y002515D01*
X004457Y002396D02*
X012995Y002396D01*
X012964Y002278D02*
X004510Y002278D01*
X004541Y002159D02*
X012964Y002159D01*
X012964Y002041D02*
X004573Y002041D01*
X004589Y001922D02*
X012973Y001922D01*
X013005Y001804D02*
X004589Y001804D01*
X004589Y001685D02*
X013036Y001685D01*
X013090Y001567D02*
X004575Y001567D01*
X004544Y001448D02*
X013158Y001448D01*
X013236Y001330D02*
X004512Y001330D01*
X004462Y001211D02*
X013355Y001211D01*
X013494Y001093D02*
X004393Y001093D01*
X008906Y002989D02*
X013317Y002989D01*
X013436Y003107D02*
X009024Y003107D01*
X009076Y003226D02*
X013340Y003226D01*
X013222Y003344D02*
X009125Y003344D01*
X009153Y003463D02*
X013150Y003463D01*
X013081Y003581D02*
X009153Y003581D01*
D17*
X012462Y015619D03*
X012462Y016619D03*
X012462Y017619D03*
X007712Y018619D03*
X005212Y021869D03*
X009462Y024369D03*
X010712Y027119D03*
X012712Y028619D03*
X021712Y021119D03*
X021712Y019619D03*
D18*
X011212Y024869D03*
X009962Y025369D03*
X007712Y025619D03*
X007712Y026619D03*
X006212Y027619D03*
X005212Y024869D03*
X005212Y020619D03*
X005212Y019619D03*
X008712Y020619D03*
X011712Y007119D03*
X012212Y006869D03*
X012212Y005619D03*
X011712Y005619D03*
D19*
X011712Y007119D01*
X012212Y006869D02*
X012212Y005619D01*
X008462Y019619D02*
X007212Y019619D01*
X008462Y019619D02*
X008712Y019869D01*
X008712Y020619D01*
X011212Y024869D02*
X010712Y025369D01*
X009962Y025369D01*
X007712Y025619D02*
X007712Y026619D01*
M02*
