G75*
%MOIN*%
%OFA0B0*%
%FSLAX24Y24*%
%IPPOS*%
%LPD*%
%AMOC8*
5,1,8,0,0,1.08239X$1,22.5*
%
%ADD10C,0.0000*%
%ADD11C,0.0030*%
D10*
X003671Y003800D02*
X003671Y013100D01*
X003673Y013144D01*
X003679Y013187D01*
X003688Y013229D01*
X003701Y013271D01*
X003718Y013311D01*
X003738Y013350D01*
X003761Y013387D01*
X003788Y013421D01*
X003817Y013454D01*
X003850Y013483D01*
X003884Y013510D01*
X003921Y013533D01*
X003960Y013553D01*
X004000Y013570D01*
X004042Y013583D01*
X004084Y013592D01*
X004127Y013598D01*
X004171Y013600D01*
X005571Y013600D01*
X005721Y013450D01*
X007621Y013450D01*
X007771Y013600D01*
X009171Y013600D01*
X009215Y013598D01*
X009258Y013592D01*
X009300Y013583D01*
X009342Y013570D01*
X009382Y013553D01*
X009421Y013533D01*
X009458Y013510D01*
X009492Y013483D01*
X009525Y013454D01*
X009554Y013421D01*
X009581Y013387D01*
X009604Y013350D01*
X009624Y013311D01*
X009641Y013271D01*
X009654Y013229D01*
X009663Y013187D01*
X009669Y013144D01*
X009671Y013100D01*
X009671Y004000D01*
X009371Y003700D01*
X008071Y003700D01*
X007471Y003100D01*
X004671Y003100D01*
X003971Y003800D01*
X003671Y003800D01*
D11*
X004686Y005624D02*
X004686Y005809D01*
X004747Y005871D01*
X004871Y005871D01*
X004932Y005809D01*
X004932Y005624D01*
X004932Y005747D02*
X005056Y005871D01*
X005056Y005992D02*
X005056Y006177D01*
X004994Y006239D01*
X004932Y006177D01*
X004932Y006054D01*
X004871Y005992D01*
X004809Y006054D01*
X004809Y006239D01*
X004809Y006361D02*
X004809Y006484D01*
X004747Y006422D02*
X004994Y006422D01*
X005056Y006484D01*
X005048Y006915D02*
X004986Y006977D01*
X005048Y006915D02*
X005171Y006915D01*
X005233Y006977D01*
X005233Y007038D01*
X005171Y007100D01*
X005109Y007100D01*
X005171Y007100D02*
X005233Y007162D01*
X005233Y007224D01*
X005171Y007285D01*
X005048Y007285D01*
X004986Y007224D01*
X004864Y007162D02*
X004803Y007162D01*
X004618Y007162D01*
X004618Y007038D02*
X004864Y007038D01*
X004803Y006915D02*
X004803Y007285D01*
X004679Y007285D02*
X004679Y006915D01*
X004679Y007915D02*
X004679Y008285D01*
X004803Y008285D02*
X004803Y007915D01*
X004864Y008038D02*
X004618Y008038D01*
X004618Y008162D02*
X004803Y008162D01*
X004864Y008162D01*
X004986Y008100D02*
X005233Y008100D01*
X005171Y007915D02*
X005171Y008285D01*
X004986Y008100D01*
X004961Y008775D02*
X004961Y009009D01*
X005136Y009009D01*
X005195Y008950D01*
X005195Y008775D01*
X005311Y008833D02*
X005311Y008950D01*
X005369Y009009D01*
X005544Y009009D01*
X005544Y009125D02*
X005544Y008775D01*
X005369Y008775D01*
X005311Y008833D01*
X004845Y008833D02*
X004845Y008950D01*
X004728Y008950D01*
X004845Y008833D02*
X004786Y008775D01*
X004669Y008775D01*
X004611Y008833D01*
X004611Y009067D01*
X004669Y009125D01*
X004786Y009125D01*
X004845Y009067D01*
X004771Y009478D02*
X004771Y009664D01*
X004832Y009725D01*
X004894Y009725D01*
X004956Y009664D01*
X004956Y009478D01*
X004586Y009478D01*
X004586Y009664D01*
X004647Y009725D01*
X004709Y009725D01*
X004771Y009664D01*
X004771Y009847D02*
X004771Y010094D01*
X004709Y010094D02*
X004956Y010094D01*
X004956Y010338D02*
X004586Y010338D01*
X004586Y010215D02*
X004586Y010462D01*
X004771Y010583D02*
X004771Y010830D01*
X004894Y010707D02*
X004647Y010707D01*
X004709Y010094D02*
X004586Y009970D01*
X004709Y009847D01*
X004956Y009847D01*
X005056Y005624D02*
X004686Y005624D01*
X008068Y005977D02*
X008129Y005915D01*
X008253Y005915D01*
X008314Y005977D01*
X008314Y006038D01*
X008253Y006100D01*
X008191Y006100D01*
X008253Y006100D02*
X008314Y006162D01*
X008314Y006224D01*
X008253Y006285D01*
X008129Y006285D01*
X008068Y006224D01*
X008436Y006285D02*
X008436Y006038D01*
X008559Y005915D01*
X008683Y006038D01*
X008683Y006285D01*
X008733Y006915D02*
X008486Y006915D01*
X008733Y007162D01*
X008733Y007224D01*
X008671Y007285D01*
X008548Y007285D01*
X008486Y007224D01*
X008364Y007162D02*
X008303Y007162D01*
X008118Y007162D01*
X008118Y007038D02*
X008364Y007038D01*
X008303Y006915D02*
X008303Y007285D01*
X008179Y007285D02*
X008179Y006915D01*
X008229Y007865D02*
X008229Y008235D01*
X008353Y008235D02*
X008353Y007865D01*
X008414Y007988D02*
X008168Y007988D01*
X008168Y008112D02*
X008353Y008112D01*
X008414Y008112D01*
X008536Y008112D02*
X008659Y008235D01*
X008659Y007865D01*
X008536Y007865D02*
X008783Y007865D01*
X008671Y008915D02*
X008548Y008915D01*
X008486Y008977D01*
X008733Y009224D01*
X008733Y008977D01*
X008671Y008915D01*
X008486Y008977D02*
X008486Y009224D01*
X008548Y009285D01*
X008671Y009285D01*
X008733Y009224D01*
X008694Y009478D02*
X008756Y009540D01*
X008756Y009664D01*
X008694Y009725D01*
X008386Y009725D01*
X008447Y009847D02*
X008509Y009847D01*
X008571Y009908D01*
X008571Y010032D01*
X008632Y010094D01*
X008694Y010094D01*
X008756Y010032D01*
X008756Y009908D01*
X008694Y009847D01*
X008694Y009478D02*
X008386Y009478D01*
X008303Y009285D02*
X008303Y008915D01*
X008179Y008915D02*
X008179Y009285D01*
X008118Y009162D02*
X008303Y009162D01*
X008364Y009162D01*
X008364Y009038D02*
X008118Y009038D01*
X008447Y009847D02*
X008386Y009908D01*
X008386Y010032D01*
X008447Y010094D01*
X008386Y010215D02*
X008386Y010400D01*
X008447Y010462D01*
X008509Y010462D01*
X008571Y010400D01*
X008571Y010215D01*
X008756Y010215D02*
X008756Y010400D01*
X008694Y010462D01*
X008632Y010462D01*
X008571Y010400D01*
X008756Y010215D02*
X008386Y010215D01*
X008571Y010583D02*
X008571Y010830D01*
X008694Y010707D02*
X008447Y010707D01*
M02*
